<svg width="512" height="512" version="1.1" xmlns="http://www.w3.org/2000/svg" desc="Created with imagetracer.js version 1.2.6" ><path fill="rgb(254,237,209)" stroke="rgb(254,237,209)" stroke-width="1" opacity="1" d="M 235.5 51 L 275.5 51 L 279 52 L 279 78.5 L 281.5 82 L 287.5 84 L 292 83 Q 291.3 86.8 294.5 88 L 301.5 89 L 339.5 80 L 307 113.5 Q 305.8 120.8 309.5 123 L 320 129.5 L 319 134.5 L 321 139 L 361 162.5 L 303.5 174 L 297.5 176 L 295 178.5 L 294 183.5 L 321 256.5 L 319.5 256 L 279.5 228 L 271.5 227 L 267.5 229 Q 264.4 224.1 256.5 224 L 252 227.5 L 238 276 Q 235.3 277.1 236 274.5 L 221 237.5 L 285 173.5 L 287 167.5 L 287 161.5 L 292 136.5 L 292 128.5 Q 290.5 122 285.5 119 L 276.5 116 L 250.5 121 L 244.5 121 L 234.5 124 L 174.5 184 L 171.5 184 L 121 172.5 L 168.5 143 L 173 138.5 Q 174.1 130.4 170 127.5 L 126 72.5 L 128.5 72 L 163.5 82 L 191.5 89 L 195.5 89 L 201 84.5 L 201 53.5 L 201.5 53 L 210.5 53 L 211.5 52 L 234.5 52 L 235.5 51 Z " /><path fill="rgb(31,37,32)" stroke="rgb(31,37,32)" stroke-width="1" opacity="1" d="M 241.5 50 L 271 50.5 L 241.5 51 L 241.5 50 Z " /><path fill="rgb(31,37,32)" stroke="rgb(31,37,32)" stroke-width="1" opacity="1" d="M 214.5 51 L 221 51.5 L 214.5 52 L 214.5 51 Z " /><path fill="rgb(31,37,32)" stroke="rgb(31,37,32)" stroke-width="1" opacity="1" d="M 289.5 51 L 292 51.5 L 289.5 52 L 289.5 51 Z " /><path fill="rgb(31,37,32)" stroke="rgb(31,37,32)" stroke-width="1" opacity="1" d="M 306 52 L 313 52.5 L 307 53 L 307 70.5 L 308.5 71 L 308.5 72 L 306 71.5 L 306 52 Z " /><path fill="rgb(31,37,32)" stroke="rgb(31,37,32)" stroke-width="1" opacity="1" d="M 176.5 54 L 181 54.5 L 176.5 55 L 176.5 54 Z " /><path fill="rgb(31,37,32)" stroke="rgb(31,37,32)" stroke-width="1" opacity="1" d="M 167.5 55 L 171 55.5 L 167.5 56 L 167.5 55 Z " /><path fill="rgb(31,37,32)" stroke="rgb(31,37,32)" stroke-width="1" opacity="1" d="M 341.5 55 L 344 55.5 L 341.5 56 L 341.5 55 Z " /><path fill="rgb(31,37,32)" stroke="rgb(31,37,32)" stroke-width="1" opacity="1" d="M 159.5 56 L 163 56.5 L 159.5 57 L 159.5 56 Z " /><path fill="rgb(31,37,32)" stroke="rgb(31,37,32)" stroke-width="1" opacity="1" d="M 349.5 56 L 352 56.5 L 349.5 57 L 349.5 56 Z " /><path fill="rgb(31,37,32)" stroke="rgb(31,37,32)" stroke-width="1" opacity="1" d="M 152.5 57 L 155 57.5 L 152.5 58 L 152.5 57 Z " /><path fill="rgb(31,37,32)" stroke="rgb(31,37,32)" stroke-width="1" opacity="1" d="M 356.5 57 L 360 57.5 L 356.5 58 L 356.5 57 Z " /><path fill="rgb(31,37,32)" stroke="rgb(31,37,32)" stroke-width="1" opacity="1" d="M 145.5 58 L 148 58.5 L 145.5 59 L 145.5 58 Z " /><path fill="rgb(31,37,32)" stroke="rgb(31,37,32)" stroke-width="1" opacity="1" d="M 363.5 58 L 365 58.5 L 361.5 60 L 361.5 59 L 363.5 58 Z " /><path fill="rgb(31,37,32)" stroke="rgb(31,37,32)" stroke-width="1" opacity="1" d="M 140.5 59 L 144 60.5 L 142.5 61 L 140.5 59 Z " /><path fill="rgb(31,37,32)" stroke="rgb(31,37,32)" stroke-width="1" opacity="1" d="M 100.5 66 L 103 66.5 L 100.5 67 L 100.5 66 Z " /><path fill="rgb(31,37,32)" stroke="rgb(31,37,32)" stroke-width="1" opacity="1" d="M 104.5 69 L 106.5 72 L 104.5 69 Z " /><path fill="rgb(31,37,32)" stroke="rgb(31,37,32)" stroke-width="1" opacity="1" d="M 379.5 70 L 380 71.5 L 368 82.5 L 379.5 70 Z " /><path fill="rgb(31,37,32)" stroke="rgb(31,37,32)" stroke-width="1" opacity="1" d="M 125.5 72 L 126.5 74 L 125.5 72 Z " /><path fill="rgb(31,37,32)" stroke="rgb(31,37,32)" stroke-width="1" opacity="1" d="M 108.5 74 L 109.5 76 L 108.5 74 Z " /><path fill="rgb(31,37,32)" stroke="rgb(31,37,32)" stroke-width="1" opacity="1" d="M 396.5 75 L 397 165 L 395 164.5 L 396 163.5 L 396 77.5 Q 393.8 76.3 396.5 75 Z " /><path fill="rgb(31,37,32)" stroke="rgb(31,37,32)" stroke-width="1" opacity="1" d="M 128.5 76 L 129.5 78 L 128.5 76 Z " /><path fill="rgb(31,37,32)" stroke="rgb(31,37,32)" stroke-width="1" opacity="1" d="M 111.5 78 L 113.5 81 L 111.5 78 Z " /><path fill="rgb(31,37,32)" stroke="rgb(31,37,32)" stroke-width="1" opacity="1" d="M 132.5 81 L 133.5 83 L 132.5 81 Z " /><path fill="rgb(31,37,32)" stroke="rgb(31,37,32)" stroke-width="1" opacity="1" d="M 115.5 83 L 116.5 85 L 115.5 83 Z " /><path fill="rgb(31,37,32)" stroke="rgb(31,37,32)" stroke-width="1" opacity="1" d="M 292.5 84 L 295.5 88 L 292.5 84 Z " /><path fill="rgb(31,37,32)" stroke="rgb(31,37,32)" stroke-width="1" opacity="1" d="M 135.5 85 L 137.5 88 L 135.5 85 Z " /><path fill="rgb(31,37,32)" stroke="rgb(31,37,32)" stroke-width="1" opacity="1" d="M 485.5 86 L 486.5 88 L 485.5 86 Z " /><path fill="rgb(31,37,32)" stroke="rgb(31,37,32)" stroke-width="1" opacity="1" d="M 23.5 88 L 19.5 93 L 23.5 88 Z " /><path fill="rgb(31,37,32)" stroke="rgb(31,37,32)" stroke-width="1" opacity="1" d="M 119.5 88 L 120.5 90 L 119.5 88 Z " /><path fill="rgb(31,37,32)" stroke="rgb(31,37,32)" stroke-width="1" opacity="1" d="M 488.5 88 L 492.5 93 L 488.5 88 Z " /><path fill="rgb(31,37,32)" stroke="rgb(31,37,32)" stroke-width="1" opacity="1" d="M 139.5 90 L 140.5 92 L 139.5 90 Z " /><path fill="rgb(31,37,32)" stroke="rgb(31,37,32)" stroke-width="1" opacity="1" d="M 122.5 92 L 124.5 95 L 122.5 92 Z " /><path fill="rgb(31,37,32)" stroke="rgb(31,37,32)" stroke-width="1" opacity="1" d="M 493.5 94 L 494.5 96 L 493.5 94 Z " /><path fill="rgb(31,37,32)" stroke="rgb(31,37,32)" stroke-width="1" opacity="1" d="M 143.5 95 L 144.5 97 L 143.5 95 Z " /><path fill="rgb(31,37,32)" stroke="rgb(31,37,32)" stroke-width="1" opacity="1" d="M 375.5 95 L 342.5 129 L 375.5 95 Z " /><path fill="rgb(31,37,32)" stroke="rgb(31,37,32)" stroke-width="1" opacity="1" d="M 126.5 97 L 127.5 99 L 126.5 97 Z " /><path fill="rgb(31,37,32)" stroke="rgb(31,37,32)" stroke-width="1" opacity="1" d="M 146.5 99 L 148.5 102 L 146.5 99 Z " /><path fill="rgb(31,37,32)" stroke="rgb(31,37,32)" stroke-width="1" opacity="1" d="M 129.5 101 L 131.5 104 L 129.5 101 Z " /><path fill="rgb(31,37,32)" stroke="rgb(31,37,32)" stroke-width="1" opacity="1" d="M 150.5 104 L 151.5 106 L 150.5 104 Z " /><path fill="rgb(31,37,32)" stroke="rgb(31,37,32)" stroke-width="1" opacity="1" d="M 133.5 106 L 135.5 109 L 133.5 106 Z " /><path fill="rgb(31,37,32)" stroke="rgb(31,37,32)" stroke-width="1" opacity="1" d="M 343.5 106 L 321.5 129 L 343.5 106 Z " /><path fill="rgb(31,37,32)" stroke="rgb(31,37,32)" stroke-width="1" opacity="1" d="M 154.5 109 L 155.5 111 L 154.5 109 Z " /><path fill="rgb(31,37,32)" stroke="rgb(31,37,32)" stroke-width="1" opacity="1" d="M 137.5 111 L 138.5 113 L 137.5 111 Z " /><path fill="rgb(31,37,32)" stroke="rgb(31,37,32)" stroke-width="1" opacity="1" d="M 157.5 113 L 159.5 116 L 157.5 113 Z " /><path fill="rgb(31,37,32)" stroke="rgb(31,37,32)" stroke-width="1" opacity="1" d="M 140.5 115 L 142.5 118 L 140.5 115 Z " /><path fill="rgb(31,37,32)" stroke="rgb(31,37,32)" stroke-width="1" opacity="1" d="M 161.5 118 L 162.5 120 L 161.5 118 Z " /><path fill="rgb(31,37,32)" stroke="rgb(31,37,32)" stroke-width="1" opacity="1" d="M 144.5 120 L 146.5 123 L 144.5 120 Z " /><path fill="rgb(31,37,32)" stroke="rgb(31,37,32)" stroke-width="1" opacity="1" d="M 241.5 122 L 244 122.5 L 241.5 123 L 241.5 122 Z " /><path fill="rgb(31,37,32)" stroke="rgb(31,37,32)" stroke-width="1" opacity="1" d="M 165.5 123 L 166.5 125 L 165.5 123 Z " /><path fill="rgb(31,37,32)" stroke="rgb(31,37,32)" stroke-width="1" opacity="1" d="M 148.5 125 L 149.5 127 L 148.5 125 Z " /><path fill="rgb(31,37,32)" stroke="rgb(31,37,32)" stroke-width="1" opacity="1" d="M 232.5 126 L 168.5 191 L 232.5 126 Z " /><path fill="rgb(31,37,32)" stroke="rgb(31,37,32)" stroke-width="1" opacity="1" d="M 168.5 127 L 169.5 129 L 168.5 127 Z " /><path fill="rgb(31,37,32)" stroke="rgb(31,37,32)" stroke-width="1" opacity="1" d="M 151.5 129 L 153.5 132 L 151.5 129 Z " /><path fill="rgb(31,37,32)" stroke="rgb(31,37,32)" stroke-width="1" opacity="1" d="M 291.5 130 L 292 133.5 L 291 133.5 L 291.5 130 Z " /><path fill="rgb(31,37,32)" stroke="rgb(31,37,32)" stroke-width="1" opacity="1" d="M 339.5 131 L 340.5 133 L 339.5 131 Z " /><path fill="rgb(31,37,32)" stroke="rgb(31,37,32)" stroke-width="1" opacity="1" d="M 270.5 132 L 273 132.5 L 270.5 133 L 270.5 132 Z " /><path fill="rgb(31,37,32)" stroke="rgb(31,37,32)" stroke-width="1" opacity="1" d="M 172.5 133 L 173 136.5 L 172 136.5 L 172.5 133 Z " /><path fill="rgb(31,37,32)" stroke="rgb(31,37,32)" stroke-width="1" opacity="1" d="M 264.5 133 L 267 133.5 L 264.5 134 L 264.5 133 Z " /><path fill="rgb(31,37,32)" stroke="rgb(31,37,32)" stroke-width="1" opacity="1" d="M 276.5 133 L 277 135.5 L 276 135.5 L 276.5 133 Z " /><path fill="rgb(31,37,32)" stroke="rgb(31,37,32)" stroke-width="1" opacity="1" d="M 147.5 137 L 146.5 139 L 147.5 137 Z " /><path fill="rgb(31,37,32)" stroke="rgb(31,37,32)" stroke-width="1" opacity="1" d="M 321.5 137 L 323.5 140 L 321.5 137 Z " /><path fill="rgb(31,37,32)" stroke="rgb(31,37,32)" stroke-width="1" opacity="1" d="M 349.5 137 L 350.5 139 L 349.5 137 Z " /><path fill="rgb(31,37,32)" stroke="rgb(31,37,32)" stroke-width="1" opacity="1" d="M 455.5 137 L 497 137.5 L 455.5 138 L 455.5 137 Z " /><path fill="rgb(31,37,32)" stroke="rgb(31,37,32)" stroke-width="1" opacity="1" d="M 452.5 138 L 449.5 142 L 452.5 138 Z " /><path fill="rgb(31,37,32)" stroke="rgb(31,37,32)" stroke-width="1" opacity="1" d="M 275.5 139 L 276 141.5 L 275 141.5 L 275.5 139 Z " /><path fill="rgb(31,37,32)" stroke="rgb(31,37,32)" stroke-width="1" opacity="1" d="M 168.5 141 L 167.5 143 L 168.5 141 Z " /><path fill="rgb(31,37,32)" stroke="rgb(31,37,32)" stroke-width="1" opacity="1" d="M 136.5 144 L 135.5 146 L 136.5 144 Z " /><path fill="rgb(31,37,32)" stroke="rgb(31,37,32)" stroke-width="1" opacity="1" d="M 274.5 145 L 275 147.5 L 274 147.5 L 274.5 145 Z " /><path fill="rgb(31,37,32)" stroke="rgb(31,37,32)" stroke-width="1" opacity="1" d="M 160.5 146 L 159.5 148 L 160.5 146 Z " /><path fill="rgb(31,37,32)" stroke="rgb(31,37,32)" stroke-width="1" opacity="1" d="M 366.5 147 L 367.5 149 L 366.5 147 Z " /><path fill="rgb(31,37,32)" stroke="rgb(31,37,32)" stroke-width="1" opacity="1" d="M 157.5 148 L 156.5 150 L 157.5 148 Z " /><path fill="rgb(31,37,32)" stroke="rgb(31,37,32)" stroke-width="1" opacity="1" d="M 231.5 148 L 230.5 150 L 231.5 148 Z " /><path fill="rgb(31,37,32)" stroke="rgb(31,37,32)" stroke-width="1" opacity="1" d="M 339.5 148 L 340.5 150 L 339.5 148 Z " /><path fill="rgb(31,37,32)" stroke="rgb(31,37,32)" stroke-width="1" opacity="1" d="M 128.5 149 L 127.5 151 L 128.5 149 Z " /><path fill="rgb(31,37,32)" stroke="rgb(31,37,32)" stroke-width="1" opacity="1" d="M 450.5 149 L 451.5 151 L 450.5 149 Z " /><path fill="rgb(31,37,32)" stroke="rgb(31,37,32)" stroke-width="1" opacity="1" d="M 273.5 151 L 274 153.5 L 273 153.5 L 273.5 151 Z " /><path fill="rgb(31,37,32)" stroke="rgb(31,37,32)" stroke-width="1" opacity="1" d="M 149.5 153 L 148.5 155 L 149.5 153 Z " /><path fill="rgb(31,37,32)" stroke="rgb(31,37,32)" stroke-width="1" opacity="1" d="M 226.5 153 L 223.5 157 L 226.5 153 Z " /><path fill="rgb(31,37,32)" stroke="rgb(31,37,32)" stroke-width="1" opacity="1" d="M 378.5 154 L 379.5 156 L 378.5 154 Z " /><path fill="rgb(31,37,32)" stroke="rgb(31,37,32)" stroke-width="1" opacity="1" d="M 117.5 156 L 116.5 158 L 117.5 156 Z " /><path fill="rgb(31,37,32)" stroke="rgb(31,37,32)" stroke-width="1" opacity="1" d="M 383.5 157 L 384.5 159 L 383.5 157 Z " /><path fill="rgb(31,37,32)" stroke="rgb(31,37,32)" stroke-width="1" opacity="1" d="M 356.5 158 L 357.5 160 L 356.5 158 Z " /><path fill="rgb(31,37,32)" stroke="rgb(31,37,32)" stroke-width="1" opacity="1" d="M 109.5 161 L 108.5 163 L 109.5 161 Z " /><path fill="rgb(31,37,32)" stroke="rgb(31,37,32)" stroke-width="1" opacity="1" d="M 390.5 161 L 391.5 163 L 390.5 161 Z " /><path fill="rgb(31,37,32)" stroke="rgb(31,37,32)" stroke-width="1" opacity="1" d="M 130.5 165 L 129.5 167 L 130.5 165 Z " /><path fill="rgb(31,37,32)" stroke="rgb(31,37,32)" stroke-width="1" opacity="1" d="M 213.5 166 L 212.5 168 L 213.5 166 Z " /><path fill="rgb(31,37,32)" stroke="rgb(31,37,32)" stroke-width="1" opacity="1" d="M 98.5 168 L 97.5 170 L 98.5 168 Z " /><path fill="rgb(31,37,32)" stroke="rgb(31,37,32)" stroke-width="1" opacity="1" d="M 373.5 168 L 374.5 170 L 373.5 168 Z " /><path fill="rgb(31,37,32)" stroke="rgb(31,37,32)" stroke-width="1" opacity="1" d="M 122.5 170 L 121.5 172 L 122.5 170 Z " /><path fill="rgb(31,37,32)" stroke="rgb(31,37,32)" stroke-width="1" opacity="1" d="M 119.5 172 L 118.5 174 L 119.5 172 Z " /><path fill="rgb(31,37,32)" stroke="rgb(31,37,32)" stroke-width="1" opacity="1" d="M 90.5 173 L 89.5 175 L 90.5 173 Z " /><path fill="rgb(31,37,32)" stroke="rgb(31,37,32)" stroke-width="1" opacity="1" d="M 381.5 173 L 382.5 175 L 381.5 173 Z " /><path fill="rgb(31,37,32)" stroke="rgb(31,37,32)" stroke-width="1" opacity="1" d="M 87.5 175 L 84.5 179 L 87.5 175 Z " /><path fill="rgb(31,37,32)" stroke="rgb(31,37,32)" stroke-width="1" opacity="1" d="M 282.5 175 L 220.5 238 L 282.5 175 Z " /><path fill="rgb(31,37,32)" stroke="rgb(31,37,32)" stroke-width="1" opacity="1" d="M 377.5 175 L 380 175.5 L 377.5 176 L 377.5 175 Z " /><path fill="rgb(31,37,32)" stroke="rgb(31,37,32)" stroke-width="1" opacity="1" d="M 55.5 180 L 60 180.5 L 55.5 181 L 55.5 180 Z " /><path fill="rgb(31,37,32)" stroke="rgb(31,37,32)" stroke-width="1" opacity="1" d="M 53.5 181 L 51.5 184 L 53.5 181 Z " /><path fill="rgb(31,37,32)" stroke="rgb(31,37,32)" stroke-width="1" opacity="1" d="M 61.5 181 L 63.5 184 L 61.5 181 Z " /><path fill="rgb(31,37,32)" stroke="rgb(31,37,32)" stroke-width="1" opacity="1" d="M 340.5 182 L 343 182.5 L 340.5 183 L 340.5 182 Z " /><path fill="rgb(31,37,32)" stroke="rgb(31,37,32)" stroke-width="1" opacity="1" d="M 84.5 185 L 87.5 189 L 84.5 185 Z " /><path fill="rgb(31,37,32)" stroke="rgb(31,37,32)" stroke-width="1" opacity="1" d="M 324.5 185 L 327 185.5 L 324.5 186 L 324.5 185 Z " /><path fill="rgb(31,37,32)" stroke="rgb(31,37,32)" stroke-width="1" opacity="1" d="M 396.5 187 L 397 311.5 L 396 311.5 L 396.5 187 Z " /><path fill="rgb(31,37,32)" stroke="rgb(31,37,32)" stroke-width="1" opacity="1" d="M 387.5 188 L 390 188.5 L 387.5 189 L 387.5 188 Z " /><path fill="rgb(31,37,32)" stroke="rgb(31,37,32)" stroke-width="1" opacity="1" d="M 382.5 189 L 385 189.5 L 382.5 190 L 382.5 189 Z " /><path fill="rgb(31,37,32)" stroke="rgb(31,37,32)" stroke-width="1" opacity="1" d="M 371.5 191 L 374 191.5 L 371.5 192 L 371.5 191 Z " /><path fill="rgb(31,37,32)" stroke="rgb(31,37,32)" stroke-width="1" opacity="1" d="M 355.5 194 L 358 194.5 L 355.5 195 L 355.5 194 Z " /><path fill="rgb(31,37,32)" stroke="rgb(31,37,32)" stroke-width="1" opacity="1" d="M 339.5 197 L 342 197.5 L 339.5 198 L 339.5 197 Z " /><path fill="rgb(31,37,32)" stroke="rgb(31,37,32)" stroke-width="1" opacity="1" d="M 456.5 197 L 497 197.5 L 456.5 198 L 456.5 197 Z " /><path fill="rgb(31,37,32)" stroke="rgb(31,37,32)" stroke-width="1" opacity="1" d="M 334.5 198 L 337 198.5 L 334.5 199 L 334.5 198 Z " /><path fill="rgb(31,37,32)" stroke="rgb(31,37,32)" stroke-width="1" opacity="1" d="M 452.5 198 L 450.5 201 L 452.5 198 Z " /><path fill="rgb(31,37,32)" stroke="rgb(31,37,32)" stroke-width="1" opacity="1" d="M 141.5 200 L 144 200.5 L 141.5 201 L 141.5 200 Z " /><path fill="rgb(31,37,32)" stroke="rgb(31,37,32)" stroke-width="1" opacity="1" d="M 154.5 204 L 137.5 222 L 154.5 204 Z " /><path fill="rgb(31,37,32)" stroke="rgb(31,37,32)" stroke-width="1" opacity="1" d="M 124.5 209 L 125.5 211 L 124.5 209 Z " /><path fill="rgb(31,37,32)" stroke="rgb(31,37,32)" stroke-width="1" opacity="1" d="M 450.5 209 L 451.5 211 L 450.5 209 Z " /><path fill="rgb(31,37,32)" stroke="rgb(31,37,32)" stroke-width="1" opacity="1" d="M 116.5 210 L 115.5 212 L 116.5 210 Z " /><path fill="rgb(31,37,32)" stroke="rgb(31,37,32)" stroke-width="1" opacity="1" d="M 485.5 212 L 497 212.5 L 485.5 213 L 485.5 212 Z " /><path fill="rgb(31,37,32)" stroke="rgb(31,37,32)" stroke-width="1" opacity="1" d="M 161.5 218 L 160.5 220 L 161.5 218 Z " /><path fill="rgb(31,37,32)" stroke="rgb(31,37,32)" stroke-width="1" opacity="1" d="M 115.5 220 L 136 241.5 L 103 273.5 L 135 240.5 L 115.5 220 Z " /><path fill="rgb(31,37,32)" stroke="rgb(31,37,32)" stroke-width="1" opacity="1" d="M 157.5 222 L 153.5 227 L 157.5 222 Z " /><path fill="rgb(31,37,32)" stroke="rgb(31,37,32)" stroke-width="1" opacity="1" d="M 278.5 228 L 279.5 230 L 278.5 228 Z " /><path fill="rgb(31,37,32)" stroke="rgb(31,37,32)" stroke-width="1" opacity="1" d="M 281.5 230 L 282.5 232 L 281.5 230 Z " /><path fill="rgb(31,37,32)" stroke="rgb(31,37,32)" stroke-width="1" opacity="1" d="M 291.5 237 L 292.5 239 L 291.5 237 Z " /><path fill="rgb(31,37,32)" stroke="rgb(31,37,32)" stroke-width="1" opacity="1" d="M 294.5 239 L 295.5 241 L 294.5 239 Z " /><path fill="rgb(31,37,32)" stroke="rgb(31,37,32)" stroke-width="1" opacity="1" d="M 301.5 244 L 302.5 246 L 301.5 244 Z " /><path fill="rgb(31,37,32)" stroke="rgb(31,37,32)" stroke-width="1" opacity="1" d="M 304.5 246 L 305.5 248 L 304.5 246 Z " /><path fill="rgb(31,37,32)" stroke="rgb(31,37,32)" stroke-width="1" opacity="1" d="M 280.5 247 L 281.5 249 L 280.5 247 Z " /><path fill="rgb(31,37,32)" stroke="rgb(31,37,32)" stroke-width="1" opacity="1" d="M 208.5 249 L 209.5 251 L 208.5 250 L 187 270.5 L 208.5 249 Z " /><path fill="rgb(31,37,32)" stroke="rgb(31,37,32)" stroke-width="1" opacity="1" d="M 147.5 252 L 157 262.5 L 156 262.5 L 147.5 252 Z " /><path fill="rgb(31,37,32)" stroke="rgb(31,37,32)" stroke-width="1" opacity="1" d="M 287.5 252 L 288.5 254 L 287.5 252 Z " /><path fill="rgb(31,37,32)" stroke="rgb(31,37,32)" stroke-width="1" opacity="1" d="M 314.5 253 L 315.5 255 L 314.5 253 Z " /><path fill="rgb(31,37,32)" stroke="rgb(31,37,32)" stroke-width="1" opacity="1" d="M 290.5 254 L 291.5 256 L 290.5 254 Z " /><path fill="rgb(31,37,32)" stroke="rgb(31,37,32)" stroke-width="1" opacity="1" d="M 317.5 255 L 318.5 257 L 317.5 255 Z " /><path fill="rgb(31,37,32)" stroke="rgb(31,37,32)" stroke-width="1" opacity="1" d="M 297.5 259 L 298.5 261 L 297.5 259 Z " /><path fill="rgb(31,37,32)" stroke="rgb(31,37,32)" stroke-width="1" opacity="1" d="M 451.5 259 L 450.5 261 L 451.5 259 Z " /><path fill="rgb(31,37,32)" stroke="rgb(31,37,32)" stroke-width="1" opacity="1" d="M 324.5 260 L 325.5 262 L 324.5 260 Z " /><path fill="rgb(31,37,32)" stroke="rgb(31,37,32)" stroke-width="1" opacity="1" d="M 300.5 261 L 301.5 263 L 300.5 261 Z " /><path fill="rgb(31,37,32)" stroke="rgb(31,37,32)" stroke-width="1" opacity="1" d="M 327.5 262 L 328.5 264 L 327.5 262 Z " /><path fill="rgb(31,37,32)" stroke="rgb(31,37,32)" stroke-width="1" opacity="1" d="M 303.5 263 L 304.5 265 L 303.5 263 Z " /><path fill="rgb(31,37,32)" stroke="rgb(31,37,32)" stroke-width="1" opacity="1" d="M 334.5 267 L 337 267.5 Q 337.8 269.8 335.5 269 L 334.5 267 Z " /><path fill="rgb(31,37,32)" stroke="rgb(31,37,32)" stroke-width="1" opacity="1" d="M 310.5 268 L 311.5 270 L 310.5 268 Z " /><path fill="rgb(31,37,32)" stroke="rgb(31,37,32)" stroke-width="1" opacity="1" d="M 450.5 269 L 452.5 272 L 450.5 269 Z " /><path fill="rgb(31,37,32)" stroke="rgb(31,37,32)" stroke-width="1" opacity="1" d="M 313.5 270 L 314.5 272 L 313.5 270 Z " /><path fill="rgb(31,37,32)" stroke="rgb(31,37,32)" stroke-width="1" opacity="1" d="M 455.5 272 L 497 272.5 L 455.5 273 L 455.5 272 Z " /><path fill="rgb(31,37,32)" stroke="rgb(31,37,32)" stroke-width="1" opacity="1" d="M 166.5 273 L 134.5 306 L 166.5 273 Z " /><path fill="rgb(31,37,32)" stroke="rgb(31,37,32)" stroke-width="1" opacity="1" d="M 168.5 273 L 188.5 294 L 168.5 273 Z " /><path fill="rgb(31,37,32)" stroke="rgb(31,37,32)" stroke-width="1" opacity="1" d="M 102.5 275 L 101.5 277 L 102.5 275 Z " /><path fill="rgb(31,37,32)" stroke="rgb(31,37,32)" stroke-width="1" opacity="1" d="M 320.5 275 L 321.5 277 L 320.5 275 Z " /><path fill="rgb(31,37,32)" stroke="rgb(31,37,32)" stroke-width="1" opacity="1" d="M 323.5 277 L 324.5 279 L 323.5 277 Z " /><path fill="rgb(31,37,32)" stroke="rgb(31,37,32)" stroke-width="1" opacity="1" d="M 115.5 282 L 114.5 284 L 115.5 282 Z " /><path fill="rgb(31,37,32)" stroke="rgb(31,37,32)" stroke-width="1" opacity="1" d="M 330.5 282 L 331.5 284 L 330.5 282 Z " /><path fill="rgb(31,37,32)" stroke="rgb(31,37,32)" stroke-width="1" opacity="1" d="M 333.5 284 L 334.5 286 L 333.5 284 Z " /><path fill="rgb(31,37,32)" stroke="rgb(31,37,32)" stroke-width="1" opacity="1" d="M 113.5 285 L 114 288.5 L 113 288.5 L 113.5 285 Z " /><path fill="rgb(31,37,32)" stroke="rgb(31,37,32)" stroke-width="1" opacity="1" d="M 199.5 285 L 200 289.5 L 199 289.5 L 199.5 285 Z " /><path fill="rgb(31,37,32)" stroke="rgb(31,37,32)" stroke-width="1" opacity="1" d="M 336.5 286 L 337.5 288 L 336.5 286 Z " /><path fill="rgb(31,37,32)" stroke="rgb(31,37,32)" stroke-width="1" opacity="1" d="M 340.5 289 L 341.5 291 L 340.5 289 Z " /><path fill="rgb(31,37,32)" stroke="rgb(31,37,32)" stroke-width="1" opacity="1" d="M 114.5 291 L 116.5 294 L 114.5 291 Z " /><path fill="rgb(31,37,32)" stroke="rgb(31,37,32)" stroke-width="1" opacity="1" d="M 198.5 291 L 196.5 294 L 198.5 291 Z " /><path fill="rgb(31,37,32)" stroke="rgb(31,37,32)" stroke-width="1" opacity="1" d="M 343.5 291 L 344.5 293 L 343.5 291 Z " /><path fill="rgb(31,37,32)" stroke="rgb(31,37,32)" stroke-width="1" opacity="1" d="M 125.5 293 L 124.5 295 L 123 294.5 L 125.5 293 Z " /><path fill="rgb(31,37,32)" stroke="rgb(31,37,32)" stroke-width="1" opacity="1" d="M 346.5 293 L 347.5 295 L 346.5 293 Z " /><path fill="rgb(31,37,32)" stroke="rgb(31,37,32)" stroke-width="1" opacity="1" d="M 190.5 294 L 195 294.5 L 190.5 295 L 190.5 294 Z " /><path fill="rgb(31,37,32)" stroke="rgb(31,37,32)" stroke-width="1" opacity="1" d="M 104.5 302 L 106.5 305 L 104.5 302 Z " /><path fill="rgb(31,37,32)" stroke="rgb(31,37,32)" stroke-width="1" opacity="1" d="M 246.5 302 L 247.5 304 L 246.5 302 Z " /><path fill="rgb(31,37,32)" stroke="rgb(31,37,32)" stroke-width="1" opacity="1" d="M 108.5 305 L 109.5 307 L 108.5 305 Z " /><path fill="rgb(31,37,32)" stroke="rgb(31,37,32)" stroke-width="1" opacity="1" d="M 116.5 309 L 121 309.5 L 116.5 310 L 116.5 309 Z " /><path fill="rgb(31,37,32)" stroke="rgb(31,37,32)" stroke-width="1" opacity="1" d="M 122.5 309 L 126 309.5 L 122.5 310 L 122.5 309 Z " /><path fill="rgb(31,37,32)" stroke="rgb(31,37,32)" stroke-width="1" opacity="1" d="M 50.5 311 L 51 313.5 L 50 313.5 L 50.5 311 Z " /><path fill="rgb(31,37,32)" stroke="rgb(31,37,32)" stroke-width="1" opacity="1" d="M 65.5 312 L 67 314.5 L 65 313.5 L 65.5 312 Z " /><path fill="rgb(31,37,32)" stroke="rgb(31,37,32)" stroke-width="1" opacity="1" d="M 394.5 315 L 392.5 318 L 394.5 315 Z " /><path fill="rgb(31,37,32)" stroke="rgb(31,37,32)" stroke-width="1" opacity="1" d="M 258.5 317 L 259 319 L 388 319.5 L 258 320 L 258.5 317 Z " /><path fill="rgb(31,37,32)" stroke="rgb(31,37,32)" stroke-width="1" opacity="1" d="M 237.5 318 L 236.5 320 L 74 319.5 L 236.5 319 L 237.5 318 Z " /><path fill="rgb(31,37,32)" stroke="rgb(31,37,32)" stroke-width="1" opacity="1" d="M 451.5 319 L 450.5 321 L 451.5 319 Z " /><path fill="rgb(31,37,32)" stroke="rgb(31,37,32)" stroke-width="1" opacity="1" d="M 407.5 322 L 406.5 324 L 407.5 322 Z " /><path fill="rgb(31,37,32)" stroke="rgb(31,37,32)" stroke-width="1" opacity="1" d="M 54.5 323 L 55.5 325 L 54.5 323 Z " /><path fill="rgb(31,37,32)" stroke="rgb(31,37,32)" stroke-width="1" opacity="1" d="M 404.5 326 L 403.5 328 L 404.5 326 Z " /><path fill="rgb(31,37,32)" stroke="rgb(31,37,32)" stroke-width="1" opacity="1" d="M 59.5 328 L 60.5 330 L 59.5 328 Z " /><path fill="rgb(31,37,32)" stroke="rgb(31,37,32)" stroke-width="1" opacity="1" d="M 449.5 328 L 450.5 330 L 449.5 328 Z " /><path fill="rgb(31,37,32)" stroke="rgb(31,37,32)" stroke-width="1" opacity="1" d="M 400.5 329 L 399.5 331 L 400.5 329 Z " /><path fill="rgb(31,37,32)" stroke="rgb(31,37,32)" stroke-width="1" opacity="1" d="M 454.5 332 L 497 332.5 L 454.5 333 L 454.5 332 Z " /><path fill="rgb(31,37,32)" stroke="rgb(31,37,32)" stroke-width="1" opacity="1" d="M 493.5 376 L 491.5 379 L 493.5 376 Z " /><path fill="rgb(31,37,32)" stroke="rgb(31,37,32)" stroke-width="1" opacity="1" d="M 20.5 379 L 21.5 381 L 20.5 379 Z " /><path fill="rgb(31,37,32)" stroke="rgb(31,37,32)" stroke-width="1" opacity="1" d="M 488.5 381 L 487.5 383 L 488.5 381 Z " /><path fill="rgb(31,37,32)" stroke="rgb(31,37,32)" stroke-width="1" opacity="1" d="M 349.5 399 L 350.5 401 L 349.5 399 Z " /><path fill="rgb(31,37,32)" stroke="rgb(31,37,32)" stroke-width="1" opacity="1" d="M 370.5 399 L 369.5 401 L 370.5 399 Z " /><path fill="rgb(31,37,32)" stroke="rgb(31,37,32)" stroke-width="1" opacity="1" d="M 345.5 412 L 348 412.5 L 345.5 413 L 345.5 412 Z " /><path fill="rgb(31,37,32)" stroke="rgb(31,37,32)" stroke-width="1" opacity="1" d="M 394.5 432 L 396 432.5 L 393.5 434 L 394.5 432 Z " /><path fill="rgb(31,37,32)" stroke="rgb(31,37,32)" stroke-width="1" opacity="1" d="M 154.5 433 L 153.5 435 L 154.5 433 Z " /><path fill="rgb(31,37,32)" stroke="rgb(31,37,32)" stroke-width="1" opacity="1" d="M 163.5 433 L 165.5 436 L 163.5 433 Z " /><path fill="rgb(31,37,32)" stroke="rgb(31,37,32)" stroke-width="1" opacity="1" d="M 202.5 433 L 200.5 436 L 202.5 433 Z " /><path fill="rgb(31,37,32)" stroke="rgb(31,37,32)" stroke-width="1" opacity="1" d="M 211.5 433 L 212.5 435 L 211.5 433 Z " /><path fill="rgb(31,37,32)" stroke="rgb(31,37,32)" stroke-width="1" opacity="1" d="M 297.5 433 L 296.5 435 L 297.5 433 Z " /><path fill="rgb(31,37,32)" stroke="rgb(31,37,32)" stroke-width="1" opacity="1" d="M 306.5 433 L 308.5 436 L 306.5 433 Z " /><path fill="rgb(31,37,32)" stroke="rgb(31,37,32)" stroke-width="1" opacity="1" d="M 345.5 433 L 343.5 436 L 345.5 433 Z " /><path fill="rgb(31,37,32)" stroke="rgb(31,37,32)" stroke-width="1" opacity="1" d="M 354.5 433 L 355.5 435 L 354.5 433 Z " /><path fill="rgb(31,37,32)" stroke="rgb(31,37,32)" stroke-width="1" opacity="1" d="M 309.5 437 L 310 461 L 342 461 L 342 438.5 L 343 438.5 L 343 462 L 310.5 462 L 309 460.5 L 309.5 437 Z " /><path fill="rgb(31,37,32)" stroke="rgb(31,37,32)" stroke-width="1" opacity="1" d="M 390.5 437 L 391 460.5 L 389.5 462 L 357 462 L 357.5 449 L 358 461 L 390 461 L 390.5 437 Z " /><path fill="rgb(31,37,32)" stroke="rgb(31,37,32)" stroke-width="1" opacity="1" d="M 166.5 438 L 167 461 L 199 461 L 199 438.5 L 200 438.5 L 200 462 L 167.5 462 L 166 460.5 L 166.5 438 Z " /><path fill="rgb(31,37,32)" stroke="rgb(31,37,32)" stroke-width="1" opacity="1" d="M 71.5 454 L 72 456.5 L 71 456.5 L 71.5 454 Z " /><path fill="rgb(31,37,32)" stroke="rgb(31,37,32)" stroke-width="1" opacity="1" d="M 436.5 458 L 435.5 460 L 436.5 458 Z " /><path fill="rgb(31,37,32)" stroke="rgb(31,37,32)" stroke-width="1" opacity="1" d="M 77.5 461 L 104 461.5 L 77.5 462 L 77.5 461 Z " /><path fill="rgb(31,37,32)" stroke="rgb(31,37,32)" stroke-width="1" opacity="1" d="M 119.5 461 L 152 461.5 L 119.5 462 L 119.5 461 Z " /><path fill="rgb(31,37,32)" stroke="rgb(31,37,32)" stroke-width="1" opacity="1" d="M 214.5 461 L 247 461.5 L 214.5 462 L 214.5 461 Z " /><path fill="rgb(31,37,32)" stroke="rgb(31,37,32)" stroke-width="1" opacity="1" d="M 262.5 461 L 295 461.5 L 262.5 462 L 262.5 461 Z " /><path fill="rgb(31,37,32)" stroke="rgb(31,37,32)" stroke-width="1" opacity="1" d="M 405.5 461 L 432 461.5 L 405.5 462 L 405.5 461 Z " /><path fill="rgb(0,0,0)" stroke="rgb(0,0,0)" stroke-width="1" opacity="0.6274509803921569" d="M 218.5 36 L 231 36.5 L 218.5 37 L 218.5 36 Z " /><path fill="rgb(0,0,0)" stroke="rgb(0,0,0)" stroke-width="1" opacity="0.6274509803921569" d="M 280.5 36 L 294 36.5 L 280.5 37 L 280.5 36 Z " /><path fill="rgb(0,0,0)" stroke="rgb(0,0,0)" stroke-width="1" opacity="0.6274509803921569" d="M 201.5 37 L 209 37.5 L 201.5 38 L 201.5 37 Z " /><path fill="rgb(0,0,0)" stroke="rgb(0,0,0)" stroke-width="1" opacity="0.6274509803921569" d="M 302.5 37 L 310 37.5 L 302.5 38 L 302.5 37 Z " /><path fill="rgb(0,0,0)" stroke="rgb(0,0,0)" stroke-width="1" opacity="0.6274509803921569" d="M 189.5 38 L 195 38.5 L 189.5 39 L 189.5 38 Z " /><path fill="rgb(0,0,0)" stroke="rgb(0,0,0)" stroke-width="1" opacity="0.6274509803921569" d="M 314.5 38 L 317.5 42 L 314.5 38 Z " /><path fill="rgb(0,0,0)" stroke="rgb(0,0,0)" stroke-width="1" opacity="0.6274509803921569" d="M 178.5 39 L 183 39.5 L 178.5 40 L 178.5 39 Z " /><path fill="rgb(0,0,0)" stroke="rgb(0,0,0)" stroke-width="1" opacity="0.6274509803921569" d="M 168.5 40 L 173 40.5 L 168.5 41 L 168.5 40 Z " /><path fill="rgb(0,0,0)" stroke="rgb(0,0,0)" stroke-width="1" opacity="0.6274509803921569" d="M 160.5 41 L 164 41.5 L 160.5 42 L 160.5 41 Z " /><path fill="rgb(0,0,0)" stroke="rgb(0,0,0)" stroke-width="1" opacity="0.6274509803921569" d="M 339.5 41 L 336.5 45 L 339.5 41 Z " /><path fill="rgb(0,0,0)" stroke="rgb(0,0,0)" stroke-width="1" opacity="0.6274509803921569" d="M 347.5 41 L 351 41.5 L 347.5 42 L 347.5 41 Z " /><path fill="rgb(0,0,0)" stroke="rgb(0,0,0)" stroke-width="1" opacity="0.6274509803921569" d="M 152.5 42 L 156 42.5 L 152.5 43 L 152.5 42 Z " /><path fill="rgb(0,0,0)" stroke="rgb(0,0,0)" stroke-width="1" opacity="0.6274509803921569" d="M 355.5 42 L 359 42.5 L 355.5 43 L 355.5 42 Z " /><path fill="rgb(0,0,0)" stroke="rgb(0,0,0)" stroke-width="1" opacity="0.6274509803921569" d="M 145.5 43 L 149 43.5 L 145.5 44 L 145.5 43 Z " /><path fill="rgb(0,0,0)" stroke="rgb(0,0,0)" stroke-width="1" opacity="0.6274509803921569" d="M 318.5 43 L 319 45.5 L 318 45.5 L 318.5 43 Z " /><path fill="rgb(0,0,0)" stroke="rgb(0,0,0)" stroke-width="1" opacity="0.6274509803921569" d="M 363.5 43 L 366 43.5 L 363.5 44 L 363.5 43 Z " /><path fill="rgb(0,0,0)" stroke="rgb(0,0,0)" stroke-width="1" opacity="0.6274509803921569" d="M 139.5 44 L 142 44.5 L 139.5 45 L 139.5 44 Z " /><path fill="rgb(0,0,0)" stroke="rgb(0,0,0)" stroke-width="1" opacity="0.6274509803921569" d="M 370.5 44 L 373 44.5 L 370.5 45 L 370.5 44 Z " /><path fill="rgb(0,0,0)" stroke="rgb(0,0,0)" stroke-width="1" opacity="0.6274509803921569" d="M 132.5 45 L 135 45.5 L 132.5 46 L 132.5 45 Z " /><path fill="rgb(0,0,0)" stroke="rgb(0,0,0)" stroke-width="1" opacity="0.6274509803921569" d="M 376.5 45 L 380 45.5 L 376.5 46 L 376.5 45 Z " /><path fill="rgb(0,0,0)" stroke="rgb(0,0,0)" stroke-width="1" opacity="0.6274509803921569" d="M 121.5 47 L 124 47.5 L 121.5 48 L 121.5 47 Z " /><path fill="rgb(0,0,0)" stroke="rgb(0,0,0)" stroke-width="1" opacity="0.6274509803921569" d="M 388.5 47 L 391 47.5 L 388.5 48 L 388.5 47 Z " /><path fill="rgb(0,0,0)" stroke="rgb(0,0,0)" stroke-width="1" opacity="0.6274509803921569" d="M 115.5 48 L 118 48.5 L 115.5 49 L 115.5 48 Z " /><path fill="rgb(0,0,0)" stroke="rgb(0,0,0)" stroke-width="1" opacity="0.6274509803921569" d="M 394.5 48 L 397 48.5 L 394.5 49 L 394.5 48 Z " /><path fill="rgb(0,0,0)" stroke="rgb(0,0,0)" stroke-width="1" opacity="0.6274509803921569" d="M 399.5 49 L 402 49.5 L 399.5 50 L 399.5 49 Z " /><path fill="rgb(0,0,0)" stroke="rgb(0,0,0)" stroke-width="1" opacity="0.6274509803921569" d="M 404.5 50 L 407 50.5 L 404.5 51 L 404.5 50 Z " /><path fill="rgb(0,0,0)" stroke="rgb(0,0,0)" stroke-width="1" opacity="0.6274509803921569" d="M 90.5 53 L 93 53.5 L 90.5 54 L 90.5 53 Z " /><path fill="rgb(0,0,0)" stroke="rgb(0,0,0)" stroke-width="1" opacity="0.6274509803921569" d="M 81.5 55 L 84 55.5 L 81.5 56 L 81.5 55 Z " /><path fill="rgb(0,0,0)" stroke="rgb(0,0,0)" stroke-width="1" opacity="0.6274509803921569" d="M 17.5 74 L 16.5 76 L 17.5 74 Z " /><path fill="rgb(0,0,0)" stroke="rgb(0,0,0)" stroke-width="1" opacity="0.6274509803921569" d="M 13.5 77 L 8.5 83 L 13.5 77 Z " /><path fill="rgb(0,0,0)" stroke="rgb(0,0,0)" stroke-width="1" opacity="0.6274509803921569" d="M 498.5 77 L 503.5 83 L 498.5 77 Z " /><path fill="rgb(0,0,0)" stroke="rgb(0,0,0)" stroke-width="1" opacity="0.6274509803921569" d="M 6.5 85 L 5.5 87 L 6.5 85 Z " /><path fill="rgb(0,0,0)" stroke="rgb(0,0,0)" stroke-width="1" opacity="0.6274509803921569" d="M 0.5 99 L 1 102.5 L 0 102.5 L 0.5 99 Z " /><path fill="rgb(0,0,0)" stroke="rgb(0,0,0)" stroke-width="1" opacity="0.6274509803921569" d="M 511.5 99 L 512 102.5 L 511 102.5 L 511.5 99 Z " /><path fill="rgb(0,0,0)" stroke="rgb(0,0,0)" stroke-width="1" opacity="0.6274509803921569" d="M 511.5 367 L 512 370.5 L 511 370.5 L 511.5 367 Z " /><path fill="rgb(0,0,0)" stroke="rgb(0,0,0)" stroke-width="1" opacity="0.6274509803921569" d="M 0.5 368 L 1 370.5 L 0 370.5 L 0.5 368 Z " /><path fill="rgb(0,0,0)" stroke="rgb(0,0,0)" stroke-width="1" opacity="0.6274509803921569" d="M 506.5 383 L 505.5 385 L 506.5 383 Z " /><path fill="rgb(0,0,0)" stroke="rgb(0,0,0)" stroke-width="1" opacity="0.6274509803921569" d="M 6.5 385 L 7.5 387 L 6.5 385 Z " /><path fill="rgb(0,0,0)" stroke="rgb(0,0,0)" stroke-width="1" opacity="0.6274509803921569" d="M 504.5 386 L 502.5 389 L 504.5 386 Z " /><path fill="rgb(0,0,0)" stroke="rgb(0,0,0)" stroke-width="1" opacity="0.6274509803921569" d="M 499.5 391 L 497.5 394 L 499.5 391 Z " /><path fill="rgb(0,0,0)" stroke="rgb(0,0,0)" stroke-width="1" opacity="0.6274509803921569" d="M 14.5 393 L 16.5 396 L 14.5 393 Z " /><path fill="rgb(0,0,0)" stroke="rgb(0,0,0)" stroke-width="1" opacity="0.6274509803921569" d="M 492.5 396 L 491.5 398 L 490 397.5 L 492.5 396 Z " /><path fill="rgb(0,0,0)" stroke="rgb(0,0,0)" stroke-width="1" opacity="0.6274509803921569" d="M 55.5 410 L 57 411.5 L 57 456.5 L 56 456.5 L 56 411.5 L 55.5 410 Z " /><path fill="rgb(0,0,0)" stroke="rgb(0,0,0)" stroke-width="1" opacity="0.6274509803921569" d="M 453.5 410 L 453 411.5 L 452.5 458 L 452 411.5 L 453.5 410 Z " /><path fill="rgb(0,0,0)" stroke="rgb(0,0,0)" stroke-width="1" opacity="0.6274509803921569" d="M 449.5 465 L 448.5 467 L 449.5 465 Z " /><path fill="rgb(0,0,0)" stroke="rgb(0,0,0)" stroke-width="1" opacity="0.6274509803921569" d="M 65.5 471 L 66.5 473 L 65.5 471 Z " /><path fill="rgb(175,218,155)" stroke="rgb(175,218,155)" stroke-width="1" opacity="0.9921568627450981" d="M 226.5 51 L 229 51.5 L 226.5 52 L 226.5 51 Z " /><path fill="rgb(175,218,155)" stroke="rgb(175,218,155)" stroke-width="1" opacity="0.9921568627450981" d="M 279.5 51 L 284 51.5 L 279.5 52 L 279.5 51 Z " /><path fill="rgb(175,218,155)" stroke="rgb(175,218,155)" stroke-width="1" opacity="0.9921568627450981" d="M 184.5 54 L 186 54.5 L 186 71 L 184 70.5 L 185 69.5 L 185 55.5 L 184.5 54 Z " /><path fill="rgb(175,218,155)" stroke="rgb(175,218,155)" stroke-width="1" opacity="0.9921568627450981" d="M 372.5 77 L 356.5 94 L 372.5 77 Z " /><path fill="rgb(175,218,155)" stroke="rgb(175,218,155)" stroke-width="1" opacity="0.9921568627450981" d="M 369.5 102 L 355.5 117 L 369.5 102 Z " /><path fill="rgb(175,218,155)" stroke="rgb(175,218,155)" stroke-width="1" opacity="0.9921568627450981" d="M 144.5 121 L 145.5 123 L 144.5 121 Z " /><path fill="rgb(175,218,155)" stroke="rgb(175,218,155)" stroke-width="1" opacity="0.9921568627450981" d="M 62.5 181 L 63.5 183 L 62.5 181 Z " /><path fill="rgb(175,218,155)" stroke="rgb(175,218,155)" stroke-width="1" opacity="0.9921568627450981" d="M 84.5 186 L 86.5 189 L 84.5 186 Z " /><path fill="rgb(175,218,155)" stroke="rgb(175,218,155)" stroke-width="1" opacity="0.9921568627450981" d="M 312.5 188 L 311.5 190 L 312.5 188 Z " /><path fill="rgb(175,218,155)" stroke="rgb(175,218,155)" stroke-width="1" opacity="0.9921568627450981" d="M 134.5 241 L 104.5 272 L 134.5 241 Z " /><path fill="rgb(175,218,155)" stroke="rgb(175,218,155)" stroke-width="1" opacity="0.9921568627450981" d="M 208.5 250 L 188.5 271 L 208.5 250 Z " /><path fill="rgb(175,218,155)" stroke="rgb(175,218,155)" stroke-width="1" opacity="0.9921568627450981" d="M 166.5 274 L 136.5 305 L 166.5 274 Z " /><path fill="rgb(175,218,155)" stroke="rgb(175,218,155)" stroke-width="1" opacity="0.9921568627450981" d="M 198.5 292 L 197.5 294 L 198.5 292 Z " /><path fill="rgb(175,218,155)" stroke="rgb(175,218,155)" stroke-width="1" opacity="0.9921568627450981" d="M 382.5 303 L 380.5 306 L 382.5 303 Z " /><path fill="rgb(175,218,155)" stroke="rgb(175,218,155)" stroke-width="1" opacity="0.9921568627450981" d="M 65.5 306 L 108 306.5 L 65.5 307 L 65.5 306 Z " /><path fill="rgb(175,218,155)" stroke="rgb(175,218,155)" stroke-width="1" opacity="0.9921568627450981" d="M 134.5 306 L 232 306.5 L 134.5 307 L 134.5 306 Z " /><path fill="rgb(175,218,155)" stroke="rgb(175,218,155)" stroke-width="1" opacity="0.9921568627450981" d="M 262.5 306 L 378 306.5 L 262.5 307 L 262.5 306 Z " /><path fill="rgb(0,0,0)" stroke="rgb(0,0,0)" stroke-width="1" opacity="0.996078431372549" d="M 231.5 36 L 236 36.5 L 231.5 37 L 231.5 36 Z " /><path fill="rgb(0,0,0)" stroke="rgb(0,0,0)" stroke-width="1" opacity="0.996078431372549" d="M 276.5 36 L 280 36.5 L 276.5 37 L 276.5 36 Z " /><path fill="rgb(0,0,0)" stroke="rgb(0,0,0)" stroke-width="1" opacity="0.996078431372549" d="M 209.5 37 L 212 37.5 L 209.5 38 L 209.5 37 Z " /><path fill="rgb(0,0,0)" stroke="rgb(0,0,0)" stroke-width="1" opacity="0.996078431372549" d="M 299.5 37 L 302 37.5 L 299.5 38 L 299.5 37 Z " /><path fill="rgb(0,0,0)" stroke="rgb(0,0,0)" stroke-width="1" opacity="0.996078431372549" d="M 15.5 76 L 14.5 78 L 15.5 76 Z " /><path fill="rgb(0,0,0)" stroke="rgb(0,0,0)" stroke-width="1" opacity="0.996078431372549" d="M 496.5 76 L 497.5 78 L 496.5 76 Z " /><path fill="rgb(0,0,0)" stroke="rgb(0,0,0)" stroke-width="1" opacity="0.996078431372549" d="M 8.5 83 L 7.5 85 L 8.5 83 Z " /><path fill="rgb(0,0,0)" stroke="rgb(0,0,0)" stroke-width="1" opacity="0.996078431372549" d="M 503.5 83 L 504.5 85 L 503.5 83 Z " /><path fill="rgb(0,0,0)" stroke="rgb(0,0,0)" stroke-width="1" opacity="0.996078431372549" d="M 0.5 103 L 1 106.5 L 0 106.5 L 0.5 103 Z " /><path fill="rgb(0,0,0)" stroke="rgb(0,0,0)" stroke-width="1" opacity="0.996078431372549" d="M 511.5 103 L 512 106.5 L 511 106.5 L 511.5 103 Z " /><path fill="rgb(0,0,0)" stroke="rgb(0,0,0)" stroke-width="1" opacity="0.996078431372549" d="M 0.5 364 L 1 367.5 L 0 367.5 L 0.5 364 Z " /><path fill="rgb(0,0,0)" stroke="rgb(0,0,0)" stroke-width="1" opacity="0.996078431372549" d="M 511.5 364 L 512 366.5 L 511 366.5 L 511.5 364 Z " /><path fill="rgb(0,0,0)" stroke="rgb(0,0,0)" stroke-width="1" opacity="0.996078431372549" d="M 8.5 387 L 13.5 393 L 8.5 387 Z " /><path fill="rgb(0,0,0)" stroke="rgb(0,0,0)" stroke-width="1" opacity="0.996078431372549" d="M 501.5 389 L 500.5 391 L 501.5 389 Z " /><path fill="rgb(0,0,0)" stroke="rgb(0,0,0)" stroke-width="1" opacity="0.996078431372549" d="M 496.5 393 L 495.5 395 L 496.5 393 Z " /><path fill="rgb(0,0,0)" stroke="rgb(0,0,0)" stroke-width="1" opacity="0.996078431372549" d="M 61.5 467 L 64.5 471 L 61.5 467 Z " /><path fill="rgb(0,0,0)" stroke="rgb(0,0,0)" stroke-width="1" opacity="0.996078431372549" d="M 447.5 467 L 443.5 472 L 447.5 467 Z " /><path fill="rgb(179,228,159)" stroke="rgb(179,228,159)" stroke-width="1" opacity="0.996078431372549" d="M 319.5 45 L 320.5 46 Q 329.8 45.2 335 47 Q 334.1 52.9 338.5 55 L 345.5 57 L 360 58.5 L 358.5 60 L 354.5 60 L 345.5 63 L 307 71 L 307 53 L 313.5 53 L 318 49.5 L 319.5 45 Z " /><path fill="rgb(179,228,159)" stroke="rgb(179,228,159)" stroke-width="1" opacity="0.996078431372549" d="M 175.5 55 L 185 55 L 185 70 Q 163.2 66.5 144 59.5 L 166.5 57 L 167.5 56 L 174.5 56 L 175.5 55 Z " /><path fill="rgb(179,228,159)" stroke="rgb(179,228,159)" stroke-width="1" opacity="0.996078431372549" d="M 100.5 67 L 104 69.5 L 152 130.5 L 153 134 L 84 177.5 L 83 183.5 L 86.5 189 L 125.5 198 L 134.5 199 L 139.5 201 L 148.5 202 L 154 204.5 L 137.5 221 L 125.5 209 L 119.5 208 L 114 212.5 L 113 217.5 L 114 220.5 L 134 241.5 L 101 275.5 L 98 284.5 L 98 290.5 Q 99.6 300.9 107 305.5 L 65 306 L 65 184.5 L 62.5 181 L 57 180 L 57 166.5 L 58.5 165 Q 64.3 165.8 65 161.5 L 65 76.5 L 66.5 75 L 100.5 67 Z " /><path fill="rgb(179,228,159)" stroke="rgb(179,228,159)" stroke-width="1" opacity="0.996078431372549" d="M 383.5 89 L 384 156.5 L 382.5 156 L 340 131.5 L 383.5 89 Z " /><path fill="rgb(179,228,159)" stroke="rgb(179,228,159)" stroke-width="1" opacity="0.996078431372549" d="M 381.5 190 L 384 190.5 L 384 299.5 L 379.5 306 L 263.5 306 L 263 303.5 L 277 256.5 L 278 249.5 L 279.5 248 L 346.5 295 L 355.5 296 Q 360.9 294.4 360 286.5 L 328 200.5 L 360.5 194 L 365.5 194 L 381.5 190 Z " /><path fill="rgb(179,228,159)" stroke="rgb(179,228,159)" stroke-width="1" opacity="0.996078431372549" d="M 208.5 251 L 231 306 L 135 305.5 L 167.5 274 L 187.5 294 L 195.5 295 L 199 292.5 L 200 284.5 L 188 271.5 L 208.5 251 Z " /><path fill="rgb(181,210,215)" stroke="rgb(181,210,215)" stroke-width="1" opacity="1" d="M 412 68 L 446.5 75 L 481.5 85 L 485 87.5 L 485 137 L 453.5 137 L 450 139.5 L 448 146.5 L 452.5 152 L 454.5 153 L 485 153 L 485 197 L 454.5 197 L 450 199 L 448 206.5 L 452.5 212 L 454.5 213 L 485 213 L 485 257 L 454.5 257 L 449 261.5 L 448 266.5 L 450 271 L 453.5 273 L 485 273 L 485 317 L 455.5 317 L 449 321.5 L 448 326.5 L 451.5 332 L 453.5 333 L 485 333 L 484 351.5 Q 481.4 360.4 475.5 366 L 466.5 372 L 424.5 386 L 44.5 386 L 19 377 L 17 373.5 L 15 364.5 L 15 105.5 L 18 95.5 L 23.5 89 L 30.5 85 L 50 80 L 50 160.5 L 52.5 164 L 57 165 L 57 179.5 L 54.5 180 L 51 182.5 L 50 184.5 L 50 315.5 Q 52.5 324 58.5 329 L 67.5 334 L 72.5 335 L 388.5 335 L 398.5 332 L 408 323.5 L 412 312.5 L 412 68 Z " /><path fill="rgb(181,210,215)" stroke="rgb(181,210,215)" stroke-width="1" opacity="1" d="M 275.5 132 L 276 136.5 L 271 165.5 L 176.5 260 L 149 231.5 L 242.5 138 L 275.5 132 Z " /><path fill="rgb(181,210,215)" stroke="rgb(181,210,215)" stroke-width="1" opacity="1" d="M 145.5 253 L 151 257.5 L 145 262 L 145 263.5 L 121.5 287 L 115.5 291 Q 113 290 114 285.5 L 145.5 253 Z " /><path fill="rgb(181,210,215)" stroke="rgb(181,210,215)" stroke-width="1" opacity="1" d="M 353 405 L 366.5 405 L 367 407.5 L 371.5 413 L 425 413 L 425 444.5 L 419.5 449 L 406 449 L 405 435.5 L 401.5 432 L 396.5 431 L 391 434.5 L 390 436.5 L 390 449 L 358 449 L 358 437.5 L 353.5 432 L 348.5 431 L 343 435.5 L 342 437.5 L 342 449 L 310 449 L 310 436.5 L 307.5 433 L 301.5 431 L 295 435.5 L 294 449 L 263.5 449 L 262 447.5 Q 264.4 435.6 258.5 432 L 253.5 431 L 248 434.5 L 247 436.5 L 247 449 L 215 449 L 215 437.5 L 210.5 432 L 205.5 431 L 201 433 L 199 436.5 L 199 449 L 167 449 L 167 436.5 L 164.5 433 L 158.5 431 L 152 435.5 L 151 449 L 119 449 L 119 436.5 L 115.5 432 L 110.5 431 L 105 434.5 L 104 436.5 L 104 449 L 72 449 L 72 413 L 348.5 413 L 352 409.5 L 353 405 Z " /><path fill="rgb(243,217,167)" stroke="rgb(243,217,167)" stroke-width="1" opacity="1" d="M 230.5 51 L 235 51.5 L 230.5 52 L 230.5 51 Z " /><path fill="rgb(243,217,167)" stroke="rgb(243,217,167)" stroke-width="1" opacity="1" d="M 276.5 51 L 291 52 L 291 82.5 L 288.5 83 L 285.5 84 L 280 80.5 L 279 78.5 L 279 52 Q 275.7 52.8 276.5 51 Z " /><path fill="rgb(243,217,167)" stroke="rgb(243,217,167)" stroke-width="1" opacity="1" d="M 378.5 71 L 373.5 77 L 319.5 129 L 308 121.5 L 307 113.5 L 340.5 80 L 378.5 71 Z " /><path fill="rgb(243,217,167)" stroke="rgb(243,217,167)" stroke-width="1" opacity="1" d="M 292.5 85 L 294.5 88 L 292.5 85 Z " /><path fill="rgb(243,217,167)" stroke="rgb(243,217,167)" stroke-width="1" opacity="1" d="M 150.5 103 L 151.5 105 L 150.5 103 Z " /><path fill="rgb(243,217,167)" stroke="rgb(243,217,167)" stroke-width="1" opacity="1" d="M 161.5 117 L 162.5 119 L 161.5 117 Z " /><path fill="rgb(243,217,167)" stroke="rgb(243,217,167)" stroke-width="1" opacity="1" d="M 361.5 162 L 381 173 Q 382.4 177 375.5 175 L 343.5 182 L 317.5 186 L 311 189.5 L 310 198.5 L 336 267.5 L 332.5 265 L 321 257.5 L 320.5 256 L 319 256.5 L 320 253.5 L 298 195.5 L 294 180.5 L 297.5 176 L 332.5 169 L 337.5 167 L 356.5 164 L 361.5 162 Z " /><path fill="rgb(243,217,167)" stroke="rgb(243,217,167)" stroke-width="1" opacity="1" d="M 119.5 173 L 124.5 173 L 174 184.5 L 168.5 190 L 164.5 190 L 112 178.5 L 119.5 173 Z " /><path fill="rgb(243,217,167)" stroke="rgb(243,217,167)" stroke-width="1" opacity="1" d="M 256.5 224 L 262.5 225 L 268 229.5 L 248 301 Q 245.3 302.1 246 299.5 L 236 276.5 L 238 276 L 249 235.5 L 252 227.5 L 254.5 225 L 256.5 224 Z " /><path fill="rgb(149,177,183)" stroke="rgb(149,177,183)" stroke-width="1" opacity="1" d="M 317.5 49 L 315.5 52 L 317.5 49 Z " /><path fill="rgb(149,177,183)" stroke="rgb(149,177,183)" stroke-width="1" opacity="1" d="M 221.5 51 L 226 51.5 L 221.5 52 L 221.5 51 Z " /><path fill="rgb(149,177,183)" stroke="rgb(149,177,183)" stroke-width="1" opacity="1" d="M 284.5 51 L 289 51.5 L 284.5 52 L 284.5 51 Z " /><path fill="rgb(149,177,183)" stroke="rgb(149,177,183)" stroke-width="1" opacity="1" d="M 203.5 52 L 207 52.5 L 203.5 53 L 203.5 52 Z " /><path fill="rgb(149,177,183)" stroke="rgb(149,177,183)" stroke-width="1" opacity="1" d="M 291.5 52 L 292 81.5 L 291 81.5 L 291.5 52 Z " /><path fill="rgb(149,177,183)" stroke="rgb(149,177,183)" stroke-width="1" opacity="1" d="M 171.5 55 L 174 55.5 L 171.5 56 L 171.5 55 Z " /><path fill="rgb(149,177,183)" stroke="rgb(149,177,183)" stroke-width="1" opacity="1" d="M 411 67 L 414 67.5 L 412 68 L 411.5 313 L 411 67 Z " /><path fill="rgb(149,177,183)" stroke="rgb(149,177,183)" stroke-width="1" opacity="1" d="M 106.5 72 L 107.5 74 L 106.5 72 Z " /><path fill="rgb(149,177,183)" stroke="rgb(149,177,183)" stroke-width="1" opacity="1" d="M 392.5 79 L 381.5 91 L 392.5 79 Z " /><path fill="rgb(149,177,183)" stroke="rgb(149,177,183)" stroke-width="1" opacity="1" d="M 117.5 86 L 118.5 88 L 117.5 86 Z " /><path fill="rgb(149,177,183)" stroke="rgb(149,177,183)" stroke-width="1" opacity="1" d="M 484.5 86 L 493 93.5 L 497 102.5 L 497 137 L 485.5 137 L 485 136.5 L 485 87.5 L 484.5 86 Z " /><path fill="rgb(149,177,183)" stroke="rgb(149,177,183)" stroke-width="1" opacity="1" d="M 25.5 87 L 24.5 89 L 25.5 87 Z " /><path fill="rgb(149,177,183)" stroke="rgb(149,177,183)" stroke-width="1" opacity="1" d="M 192.5 88 L 195 88.5 L 192.5 89 L 192.5 88 Z " /><path fill="rgb(149,177,183)" stroke="rgb(149,177,183)" stroke-width="1" opacity="1" d="M 297.5 88 L 301 88.5 L 297.5 89 L 297.5 88 Z " /><path fill="rgb(149,177,183)" stroke="rgb(149,177,183)" stroke-width="1" opacity="1" d="M 19.5 93 L 18.5 95 L 19.5 93 Z " /><path fill="rgb(149,177,183)" stroke="rgb(149,177,183)" stroke-width="1" opacity="1" d="M 355.5 94 L 344.5 106 L 355.5 94 Z " /><path fill="rgb(149,177,183)" stroke="rgb(149,177,183)" stroke-width="1" opacity="1" d="M 15.5 102 L 16 104.5 L 15 104.5 L 15.5 102 Z " /><path fill="rgb(149,177,183)" stroke="rgb(149,177,183)" stroke-width="1" opacity="1" d="M 286.5 120 L 288.5 123 L 286.5 120 Z " /><path fill="rgb(149,177,183)" stroke="rgb(149,177,183)" stroke-width="1" opacity="1" d="M 146.5 123 L 147.5 125 L 146.5 123 Z " /><path fill="rgb(149,177,183)" stroke="rgb(149,177,183)" stroke-width="1" opacity="1" d="M 341.5 129 L 340.5 131 L 341.5 129 Z " /><path fill="rgb(149,177,183)" stroke="rgb(149,177,183)" stroke-width="1" opacity="1" d="M 260.5 134 L 263 134.5 L 260.5 135 L 260.5 134 Z " /><path fill="rgb(149,177,183)" stroke="rgb(149,177,183)" stroke-width="1" opacity="1" d="M 254.5 135 L 257 135.5 L 254.5 136 L 254.5 135 Z " /><path fill="rgb(149,177,183)" stroke="rgb(149,177,183)" stroke-width="1" opacity="1" d="M 241.5 138 L 238.5 142 L 241.5 138 Z " /><path fill="rgb(149,177,183)" stroke="rgb(149,177,183)" stroke-width="1" opacity="1" d="M 451.5 138 L 450.5 140 L 451.5 138 Z " /><path fill="rgb(149,177,183)" stroke="rgb(149,177,183)" stroke-width="1" opacity="1" d="M 171.5 139 L 170.5 141 L 171.5 139 Z " /><path fill="rgb(149,177,183)" stroke="rgb(149,177,183)" stroke-width="1" opacity="1" d="M 236.5 143 L 235.5 145 L 236.5 143 Z " /><path fill="rgb(149,177,183)" stroke="rgb(149,177,183)" stroke-width="1" opacity="1" d="M 448.5 143 L 449 146.5 L 448 146.5 L 448.5 143 Z " /><path fill="rgb(149,177,183)" stroke="rgb(149,177,183)" stroke-width="1" opacity="1" d="M 233.5 146 L 232.5 148 L 233.5 146 Z " /><path fill="rgb(149,177,183)" stroke="rgb(149,177,183)" stroke-width="1" opacity="1" d="M 229.5 150 L 227.5 153 L 229.5 150 Z " /><path fill="rgb(149,177,183)" stroke="rgb(149,177,183)" stroke-width="1" opacity="1" d="M 454.5 152 L 497 152 L 497 197 L 485.5 197 L 485 196.5 L 485 153 L 454.5 153 L 454.5 152 Z " /><path fill="rgb(149,177,183)" stroke="rgb(149,177,183)" stroke-width="1" opacity="1" d="M 272.5 155 L 273 157.5 L 272 157.5 L 272.5 155 Z " /><path fill="rgb(149,177,183)" stroke="rgb(149,177,183)" stroke-width="1" opacity="1" d="M 220.5 159 L 214.5 166 L 220.5 159 Z " /><path fill="rgb(149,177,183)" stroke="rgb(149,177,183)" stroke-width="1" opacity="1" d="M 271.5 161 L 272 163.5 L 271 163.5 L 271.5 161 Z " /><path fill="rgb(149,177,183)" stroke="rgb(149,177,183)" stroke-width="1" opacity="1" d="M 51.5 162 L 52.5 164 L 51.5 162 Z " /><path fill="rgb(149,177,183)" stroke="rgb(149,177,183)" stroke-width="1" opacity="1" d="M 270.5 166 L 177.5 260 L 270.5 166 Z " /><path fill="rgb(149,177,183)" stroke="rgb(149,177,183)" stroke-width="1" opacity="1" d="M 205.5 174 L 189.5 191 L 205.5 174 Z " /><path fill="rgb(149,177,183)" stroke="rgb(149,177,183)" stroke-width="1" opacity="1" d="M 112.5 177 L 111.5 179 L 112.5 177 Z " /><path fill="rgb(149,177,183)" stroke="rgb(149,177,183)" stroke-width="1" opacity="1" d="M 83.5 180 L 84 182.5 L 83 182.5 L 83.5 180 Z " /><path fill="rgb(149,177,183)" stroke="rgb(149,177,183)" stroke-width="1" opacity="1" d="M 52.5 181 L 51.5 183 L 52.5 181 Z " /><path fill="rgb(149,177,183)" stroke="rgb(149,177,183)" stroke-width="1" opacity="1" d="M 187.5 192 L 186.5 194 L 187.5 192 Z " /><path fill="rgb(149,177,183)" stroke="rgb(149,177,183)" stroke-width="1" opacity="1" d="M 182.5 197 L 179.5 201 L 182.5 197 Z " /><path fill="rgb(149,177,183)" stroke="rgb(149,177,183)" stroke-width="1" opacity="1" d="M 177.5 202 L 175.5 205 L 177.5 202 Z " /><path fill="rgb(149,177,183)" stroke="rgb(149,177,183)" stroke-width="1" opacity="1" d="M 448.5 203 L 449 206.5 L 448 206.5 L 448.5 203 Z " /><path fill="rgb(149,177,183)" stroke="rgb(149,177,183)" stroke-width="1" opacity="1" d="M 173.5 206 L 165.5 215 L 173.5 206 Z " /><path fill="rgb(149,177,183)" stroke="rgb(149,177,183)" stroke-width="1" opacity="1" d="M 127.5 211 L 136.5 221 L 127.5 211 Z " /><path fill="rgb(149,177,183)" stroke="rgb(149,177,183)" stroke-width="1" opacity="1" d="M 454.5 212 L 484.5 212 L 485.5 213 L 497 213 L 497 258 L 454.5 258 L 454.5 257 L 485 257 L 485 213 L 454.5 213 L 454.5 212 Z " /><path fill="rgb(149,177,183)" stroke="rgb(149,177,183)" stroke-width="1" opacity="1" d="M 163.5 216 L 162.5 218 L 163.5 216 Z " /><path fill="rgb(149,177,183)" stroke="rgb(149,177,183)" stroke-width="1" opacity="1" d="M 159.5 220 L 158.5 222 L 159.5 220 Z " /><path fill="rgb(149,177,183)" stroke="rgb(149,177,183)" stroke-width="1" opacity="1" d="M 152.5 227 L 149.5 231 L 152.5 227 Z " /><path fill="rgb(149,177,183)" stroke="rgb(149,177,183)" stroke-width="1" opacity="1" d="M 148.5 232 L 175.5 260 L 148.5 232 Z " /><path fill="rgb(149,177,183)" stroke="rgb(149,177,183)" stroke-width="1" opacity="1" d="M 279.5 247 L 278.5 249 L 279.5 247 Z " /><path fill="rgb(149,177,183)" stroke="rgb(149,177,183)" stroke-width="1" opacity="1" d="M 145.5 252 L 156 261.5 L 156 263.5 L 126.5 293 L 119.5 295 L 114 290.5 L 116.5 290 L 121.5 287 L 145 263.5 Q 144.3 261.3 146.5 262 L 151 257.5 L 146.5 253 L 116.5 282 L 145.5 252 Z " /><path fill="rgb(149,177,183)" stroke="rgb(149,177,183)" stroke-width="1" opacity="1" d="M 448.5 263 L 449 266.5 L 448 266.5 L 448.5 263 Z " /><path fill="rgb(149,177,183)" stroke="rgb(149,177,183)" stroke-width="1" opacity="1" d="M 187.5 271 L 197.5 282 L 187.5 271 Z " /><path fill="rgb(149,177,183)" stroke="rgb(149,177,183)" stroke-width="1" opacity="1" d="M 485 273 L 496.5 273 L 497 273.5 L 497 318 L 455 317.5 L 485 317 L 485 273 Z " /><path fill="rgb(149,177,183)" stroke="rgb(149,177,183)" stroke-width="1" opacity="1" d="M 98.5 285 L 99 289.5 L 98 289.5 L 98.5 285 Z " /><path fill="rgb(149,177,183)" stroke="rgb(149,177,183)" stroke-width="1" opacity="1" d="M 359.5 287 L 360 289.5 L 359 289.5 L 359.5 287 Z " /><path fill="rgb(149,177,183)" stroke="rgb(149,177,183)" stroke-width="1" opacity="1" d="M 357.5 293 L 356.5 295 L 357.5 293 Z " /><path fill="rgb(149,177,183)" stroke="rgb(149,177,183)" stroke-width="1" opacity="1" d="M 246.5 301 L 247.5 303 L 246.5 301 Z " /><path fill="rgb(149,177,183)" stroke="rgb(149,177,183)" stroke-width="1" opacity="1" d="M 67.5 315 L 69.5 318 L 67.5 315 Z " /><path fill="rgb(149,177,183)" stroke="rgb(149,177,183)" stroke-width="1" opacity="1" d="M 407.5 323 L 405.5 326 L 407.5 323 Z " /><path fill="rgb(149,177,183)" stroke="rgb(149,177,183)" stroke-width="1" opacity="1" d="M 448.5 323 L 449 326.5 L 448 326.5 L 448.5 323 Z " /><path fill="rgb(149,177,183)" stroke="rgb(149,177,183)" stroke-width="1" opacity="1" d="M 55.5 325 L 58.5 329 L 55.5 325 Z " /><path fill="rgb(149,177,183)" stroke="rgb(149,177,183)" stroke-width="1" opacity="1" d="M 402.5 328 L 401.5 330 L 402.5 328 Z " /><path fill="rgb(149,177,183)" stroke="rgb(149,177,183)" stroke-width="1" opacity="1" d="M 449.5 329 L 451.5 332 L 449.5 329 Z " /><path fill="rgb(149,177,183)" stroke="rgb(149,177,183)" stroke-width="1" opacity="1" d="M 485 333 L 497 333 L 497 367.5 Q 495.1 376.1 489.5 381 L 480.5 386 L 444.5 398 L 372.5 398 L 369 400.5 L 367.5 408 L 367 405 L 353.5 405 L 352 403.5 L 349.5 399 L 347.5 398 L 64.5 398 L 30.5 386 Q 23.1 383.4 19 377.5 L 20.5 377 L 44.5 386 L 424.5 386 L 466.5 372 L 477 364.5 L 484 351.5 L 485 333 Z " /><path fill="rgb(149,177,183)" stroke="rgb(149,177,183)" stroke-width="1" opacity="1" d="M 72.5 334 L 389 334.5 L 72.5 335 L 72.5 334 Z " /><path fill="rgb(149,177,183)" stroke="rgb(149,177,183)" stroke-width="1" opacity="1" d="M 15.5 365 L 16 368.5 L 15 368.5 L 15.5 365 Z " /><path fill="rgb(149,177,183)" stroke="rgb(149,177,183)" stroke-width="1" opacity="1" d="M 17.5 374 L 18.5 376 L 17.5 374 Z " /><path fill="rgb(149,177,183)" stroke="rgb(149,177,183)" stroke-width="1" opacity="1" d="M 368.5 409 L 373 412.5 L 371.5 413 L 368.5 409 Z " /><path fill="rgb(149,177,183)" stroke="rgb(149,177,183)" stroke-width="1" opacity="1" d="M 349.5 411 L 348.5 413 L 349.5 411 Z " /><path fill="rgb(149,177,183)" stroke="rgb(149,177,183)" stroke-width="1" opacity="1" d="M 71.5 413 L 72 449 L 104 449 L 104 461 L 76.5 461 L 72 457.5 L 71 453.5 L 71.5 413 Z " /><path fill="rgb(149,177,183)" stroke="rgb(149,177,183)" stroke-width="1" opacity="1" d="M 425 413 L 437.5 413 L 438 413.5 L 438 454.5 L 434.5 460 L 432.5 461 L 405 461 L 405.5 439 L 406 449 L 419.5 449 L 425 444.5 L 425 413 Z " /><path fill="rgb(149,177,183)" stroke="rgb(149,177,183)" stroke-width="1" opacity="1" d="M 110.5 431 L 113 431.5 L 110.5 432 L 110.5 431 Z " /><path fill="rgb(149,177,183)" stroke="rgb(149,177,183)" stroke-width="1" opacity="1" d="M 158.5 431 L 161 431.5 L 158.5 432 L 158.5 431 Z " /><path fill="rgb(149,177,183)" stroke="rgb(149,177,183)" stroke-width="1" opacity="1" d="M 205.5 431 L 208 431.5 L 205.5 432 L 205.5 431 Z " /><path fill="rgb(149,177,183)" stroke="rgb(149,177,183)" stroke-width="1" opacity="1" d="M 253.5 431 L 256 431.5 L 253.5 432 L 253.5 431 Z " /><path fill="rgb(149,177,183)" stroke="rgb(149,177,183)" stroke-width="1" opacity="1" d="M 301.5 431 L 304 431.5 L 301.5 432 L 301.5 431 Z " /><path fill="rgb(149,177,183)" stroke="rgb(149,177,183)" stroke-width="1" opacity="1" d="M 348.5 431 L 351 431.5 L 348.5 432 L 348.5 431 Z " /><path fill="rgb(149,177,183)" stroke="rgb(149,177,183)" stroke-width="1" opacity="1" d="M 396.5 431 L 399 431.5 L 396.5 432 L 396.5 431 Z " /><path fill="rgb(149,177,183)" stroke="rgb(149,177,183)" stroke-width="1" opacity="1" d="M 107.5 432 L 105.5 435 L 107.5 432 Z " /><path fill="rgb(149,177,183)" stroke="rgb(149,177,183)" stroke-width="1" opacity="1" d="M 115.5 432 L 117.5 435 L 115.5 432 Z " /><path fill="rgb(149,177,183)" stroke="rgb(149,177,183)" stroke-width="1" opacity="1" d="M 250.5 432 L 248.5 435 L 250.5 432 Z " /><path fill="rgb(149,177,183)" stroke="rgb(149,177,183)" stroke-width="1" opacity="1" d="M 258.5 432 L 260.5 435 L 258.5 432 Z " /><path fill="rgb(149,177,183)" stroke="rgb(149,177,183)" stroke-width="1" opacity="1" d="M 401.5 432 L 404.5 436 L 401.5 432 Z " /><path fill="rgb(149,177,183)" stroke="rgb(149,177,183)" stroke-width="1" opacity="1" d="M 164.5 433 L 165.5 435 L 164.5 433 Z " /><path fill="rgb(149,177,183)" stroke="rgb(149,177,183)" stroke-width="1" opacity="1" d="M 307.5 433 L 308.5 435 L 307.5 433 Z " /><path fill="rgb(149,177,183)" stroke="rgb(149,177,183)" stroke-width="1" opacity="1" d="M 392.5 433 L 391.5 435 L 392.5 433 Z " /><path fill="rgb(149,177,183)" stroke="rgb(149,177,183)" stroke-width="1" opacity="1" d="M 214.5 437 L 215 449 L 247 449 L 247 461 L 214 461 L 214.5 437 Z " /><path fill="rgb(149,177,183)" stroke="rgb(149,177,183)" stroke-width="1" opacity="1" d="M 357.5 437 L 358 449 L 390 449 L 390 461 L 358 461 L 358 449.5 L 357 448.5 L 357.5 437 Z " /><path fill="rgb(149,177,183)" stroke="rgb(149,177,183)" stroke-width="1" opacity="1" d="M 151.5 438 L 152 461 L 119 461 L 119 449 L 151 449 L 151.5 438 Z " /><path fill="rgb(149,177,183)" stroke="rgb(149,177,183)" stroke-width="1" opacity="1" d="M 294.5 438 L 295 461 L 262 461 L 262 448.5 L 263.5 449 L 294 449 L 294.5 438 Z " /><path fill="rgb(149,177,183)" stroke="rgb(149,177,183)" stroke-width="1" opacity="1" d="M 167 449 L 199 449 L 199 461 L 167 461 L 167 449 Z " /><path fill="rgb(149,177,183)" stroke="rgb(149,177,183)" stroke-width="1" opacity="1" d="M 310 449 L 342 449 L 342 461 L 310 461 L 310 449 Z " /><path fill="rgb(149,200,165)" stroke="rgb(149,200,165)" stroke-width="1" opacity="1" d="M 395.5 77 L 396 163.5 L 394.5 163 L 384 158 L 384 88.5 L 395.5 77 Z " /><path fill="rgb(149,200,165)" stroke="rgb(149,200,165)" stroke-width="1" opacity="1" d="M 380.5 91 L 370.5 102 L 380.5 91 Z " /><path fill="rgb(149,200,165)" stroke="rgb(149,200,165)" stroke-width="1" opacity="1" d="M 63.5 162 L 62.5 164 L 63.5 162 Z " /><path fill="rgb(149,200,165)" stroke="rgb(149,200,165)" stroke-width="1" opacity="1" d="M 391.5 188 Q 396 187.5 396 188.5 L 396 311.5 L 392.5 317 L 388.5 319 L 259 319 L 262 307 L 377.5 307 L 383 303.5 L 384 301.5 L 384 190 L 391.5 188 Z " /><path fill="rgb(149,200,165)" stroke="rgb(149,200,165)" stroke-width="1" opacity="1" d="M 115.5 221 L 134.5 241 L 115.5 221 Z " /><path fill="rgb(149,200,165)" stroke="rgb(149,200,165)" stroke-width="1" opacity="1" d="M 167.5 273 L 186.5 293 L 167.5 273 Z " /><path fill="rgb(149,200,165)" stroke="rgb(149,200,165)" stroke-width="1" opacity="1" d="M 108.5 306 Q 113.5 312 126.5 310 L 132.5 307 L 231.5 307 L 237 318.5 L 72.5 319 L 66 313.5 L 65 307 L 107.5 307 L 108.5 306 Z " /><path fill="rgb(0,0,0)" stroke="rgb(0,0,0)" stroke-width="1" opacity="1" d="M 236.5 36 L 298.5 37 L 299.5 38 L 312.5 38 L 317 41.5 L 318 47.5 L 315.5 51 L 306 52 L 306 71.5 L 308.5 72 L 354.5 61 L 358.5 61 L 365 58.5 L 351.5 56 L 344.5 56 L 337 52.5 L 336 46.5 L 339.5 42 L 344.5 41 L 345.5 42 L 360.5 43 L 361.5 44 L 392.5 48 L 451.5 61 L 488.5 72 Q 497.4 75.6 503 82.5 L 509 92.5 L 512 107.5 L 512 363.5 L 511 364.5 L 510 375.5 Q 506 386.5 497.5 393 L 484.5 400 L 452 410 L 452 458.5 Q 449.5 467.5 442.5 472 L 432.5 476 L 76.5 476 Q 65.4 473.6 60 465.5 L 57 458.5 L 57 410 L 26.5 400 Q 13.9 395.6 7 385.5 L 2 375.5 L 1 364.5 L 0 363.5 L 0 107.5 L 3 92.5 Q 6.6 83.6 13.5 78 L 23.5 72 L 35.5 68 L 103.5 51 L 108.5 51 L 119.5 48 L 143.5 45 L 150.5 43 L 165.5 42 L 166.5 41 L 196.5 39 L 197.5 38 L 211.5 38 L 212.5 37 L 235.5 37 L 236.5 36 Z M 242 50 L 241 51 L 215 51 L 214 52 L 201 52 L 201 81 L 200 85 L 196 88 L 191 88 L 125 71 L 128 77 L 171 131 L 172 139 L 113 177 Q 110 176 111 179 L 166 191 L 169 191 L 235 125 L 239 123 L 274 118 L 275 117 L 279 117 L 286 120 L 291 128 L 291 138 L 284 174 L 220 238 L 245 301 L 248 304 L 266 237 L 269 229 L 275 227 L 337 269 L 310 196 L 312 189 L 317 187 L 343 183 L 383 175 L 325 140 L 320 135 L 321 130 L 380 72 L 380 70 L 303 88 L 297 88 L 292 84 L 292 51 L 272 51 L 271 50 L 242 50 Z M 177 54 L 176 55 L 160 56 L 140 60 L 166 67 L 185 71 L 186 72 L 186 54 L 177 54 Z M 101 66 L 67 74 L 65 76 L 65 158 L 63 163 L 59 165 L 52 163 L 50 158 L 50 79 L 29 85 L 24 88 Q 18 93 15 101 L 15 371 L 20 380 L 30 386 L 64 398 L 346 398 L 349 399 L 352 404 L 351 410 L 349 412 L 345 413 L 71 413 L 71 457 L 73 460 L 78 462 L 104 462 L 104 440 L 106 435 L 111 432 L 116 433 L 119 439 L 119 462 L 152 462 L 152 438 L 153 436 L 158 432 L 163 433 L 166 437 L 166 461 L 168 462 L 200 462 L 200 437 L 206 432 L 211 433 L 214 438 L 214 462 L 247 462 L 247 440 L 249 435 L 254 432 L 259 433 L 262 439 L 262 462 L 295 462 L 295 438 L 296 436 L 301 432 L 306 433 L 309 437 L 309 461 L 311 462 L 343 462 L 343 437 L 349 432 L 354 433 L 357 438 L 357 462 L 390 462 L 391 461 L 391 437 L 392 434 L 397 432 L 402 433 L 405 439 L 405 462 L 432 462 L 436 460 L 438 457 L 438 413 L 376 413 L 372 412 L 368 408 L 369 402 L 375 398 L 447 398 L 488 383 Q 495 379 497 370 L 497 332 L 454 332 L 451 331 L 449 328 L 450 322 L 455 318 L 497 318 L 497 272 L 454 272 L 449 267 L 450 262 L 455 258 L 497 258 L 497 212 L 454 212 L 449 207 Q 449 200 454 198 L 497 198 L 497 152 L 455 152 L 453 151 Q 448 149 449 143 L 454 138 L 497 138 L 497 101 L 493 93 L 486 86 L 475 82 L 430 70 L 411 67 L 411 314 L 406 325 Q 401 332 390 334 L 72 334 Q 63 333 59 328 L 51 317 Q 52 312 50 311 L 50 188 L 51 185 Q 53 180 61 181 L 65 188 L 65 314 L 67 317 L 75 320 L 237 320 L 238 319 L 210 251 L 209 249 L 187 271 L 199 285 Q 201 292 196 294 L 190 294 L 169 273 L 167 273 L 134 306 L 128 309 Q 123 308 122 310 L 113 308 L 108 305 Q 101 301 99 292 L 99 284 L 103 275 L 136 242 L 114 218 L 115 213 L 120 209 Q 125 208 127 211 L 138 222 L 155 205 L 155 203 L 89 189 L 84 185 L 84 180 L 95 171 L 154 134 L 154 132 L 103 68 Q 104 65 101 66 Z M 397 75 L 339 132 L 385 159 L 397 165 L 397 75 Z M 271 132 L 243 137 L 148 232 L 177 261 L 272 166 L 276 137 L 277 136 L 277 132 L 271 132 Z M 394 187 L 330 199 L 327 201 L 359 287 L 358 293 L 353 296 L 349 295 L 281 247 L 278 247 L 258 320 L 388 320 L 393 318 L 397 312 L 397 188 L 394 187 Z M 146 252 L 113 286 L 114 292 Q 116 296 125 295 L 157 262 L 148 252 L 146 252 Z " /><path fill="rgb(0,0,0)" stroke="rgb(0,0,0)" stroke-width="1" opacity="0" d="M 0 0 L 511.5 0 L 512 0.5 L 512 98.5 L 511 98.5 Q 508.5 84 498.5 77 L 482.5 69 L 434.5 56 L 379.5 45 L 351.5 42 L 350.5 41 L 339.5 41 Q 335.3 42.3 336 47 L 330.5 46 L 320.5 46 L 319 44.5 L 314.5 38 L 309.5 37 L 294.5 37 L 293.5 36 L 218.5 36 L 217.5 37 L 201.5 37 L 200.5 38 L 189.5 38 L 188.5 39 L 178.5 39 L 177.5 40 L 152.5 42 L 90.5 53 L 23.5 71 Q 13.9 74.9 8 82.5 Q 2 88.5 0.5 99 L 0 0 Z " /><path fill="rgb(0,0,0)" stroke="rgb(0,0,0)" stroke-width="1" opacity="0" d="M 0.5 371 Q 3.9 388.1 16.5 396 L 56 411.5 L 56 456.5 Q 57.9 468.1 66.5 473 L 73.5 476 L 436.5 476 L 447 470 L 453 457.5 L 453 411.5 L 454.5 410 L 491.5 398 L 505 386.5 Q 510.1 380.6 511.5 371 L 512 512 L 0.5 512 L 0 511.5 L 0.5 371 Z " /></svg>