<?xml version="1.0" standalone="no"?>
<!DOCTYPE svg PUBLIC "-//W3C//DTD SVG 20010904//EN"
 "http://www.w3.org/TR/2001/REC-SVG-20010904/DTD/svg10.dtd">
<svg version="1.0" xmlns="http://www.w3.org/2000/svg"
 width="18.000000pt" height="30.000000pt" viewBox="0 0 18.000000 30.000000"
 preserveAspectRatio="xMidYMid meet">

<g transform="translate(0.000000,30.000000) scale(0.100000,-0.100000)"
fill="#000000" stroke="none">
<path d="M12 278 c-17 -17 -17 -239 0 -256 16 -16 140 -16 156 0 17 17 17 239
0 256 -16 16 -140 16 -156 0z m153 -128 l0 -125 -75 0 -75 0 -3 114 c-1 63 0
121 3 128 3 10 23 13 77 11 l73 -3 0 -125z"/>
<path d="M109 210 c-4 -40 -7 -45 -31 -48 -25 -3 -27 0 -31 40 l-4 43 1 -45
c1 -44 2 -45 33 -45 30 0 31 -1 38 -53 11 -85 14 -56 6 53 -6 75 -8 89 -12 55z"/>
</g>
</svg>
