<svg width="512" height="512" version="1.1" xmlns="http://www.w3.org/2000/svg" desc="Created with imagetracer.js version 1.2.6" ><path fill="rgb(0,0,0)" stroke="rgb(0,0,0)" stroke-width="1" opacity="0" d="M 0 0 L 512 0 L 512 512 L 0 512 L 0 293.5 L 1.5 294 L 250.5 472 L 257 475 L 510 39.5 L 219.5 329 L 91.5 201 L 0 291.5 L 0 0 Z " /><path fill="rgb(0,0,0)" stroke="rgb(0,0,0)" stroke-width="1" opacity="0.807843137254902" d="M 510.5 38 L 510 39.5 Q 510.8 41.8 508.5 41 L 508.5 43 L 507.5 42 L 220 328.5 L 510.5 38 Z " /><path fill="rgb(0,0,0)" stroke="rgb(0,0,0)" stroke-width="1" opacity="0.807843137254902" d="M 504.5 49 L 503.5 51 L 504.5 49 Z " /><path fill="rgb(0,0,0)" stroke="rgb(0,0,0)" stroke-width="1" opacity="0.807843137254902" d="M 497.5 61 L 496.5 63 L 497.5 61 Z " /><path fill="rgb(0,0,0)" stroke="rgb(0,0,0)" stroke-width="1" opacity="0.807843137254902" d="M 490.5 73 L 489.5 75 L 490.5 73 Z " /><path fill="rgb(0,0,0)" stroke="rgb(0,0,0)" stroke-width="1" opacity="0.807843137254902" d="M 483.5 85 L 482.5 87 L 483.5 85 Z " /><path fill="rgb(0,0,0)" stroke="rgb(0,0,0)" stroke-width="1" opacity="0.807843137254902" d="M 476.5 97 L 475.5 99 L 476.5 97 Z " /><path fill="rgb(0,0,0)" stroke="rgb(0,0,0)" stroke-width="1" opacity="0.807843137254902" d="M 469.5 109 L 468.5 111 L 469.5 109 Z " /><path fill="rgb(0,0,0)" stroke="rgb(0,0,0)" stroke-width="1" opacity="0.807843137254902" d="M 462.5 121 L 461.5 123 L 462.5 121 Z " /><path fill="rgb(0,0,0)" stroke="rgb(0,0,0)" stroke-width="1" opacity="0.807843137254902" d="M 455.5 133 L 454.5 135 L 455.5 133 Z " /><path fill="rgb(0,0,0)" stroke="rgb(0,0,0)" stroke-width="1" opacity="0.807843137254902" d="M 448.5 145 L 447.5 147 L 448.5 145 Z " /><path fill="rgb(0,0,0)" stroke="rgb(0,0,0)" stroke-width="1" opacity="0.807843137254902" d="M 441.5 157 L 440.5 159 L 441.5 157 Z " /><path fill="rgb(0,0,0)" stroke="rgb(0,0,0)" stroke-width="1" opacity="0.807843137254902" d="M 434.5 169 L 433.5 171 L 434.5 169 Z " /><path fill="rgb(0,0,0)" stroke="rgb(0,0,0)" stroke-width="1" opacity="0.807843137254902" d="M 427.5 181 L 426.5 183 L 427.5 181 Z " /><path fill="rgb(0,0,0)" stroke="rgb(0,0,0)" stroke-width="1" opacity="0.807843137254902" d="M 420.5 193 L 419.5 195 L 420.5 193 Z " /><path fill="rgb(0,0,0)" stroke="rgb(0,0,0)" stroke-width="1" opacity="0.807843137254902" d="M 91.5 201 L 218.5 329 L 91.5 202 L 1 292.5 L 1.5 294 L 0 292.5 L 91.5 201 Z " /><path fill="rgb(0,0,0)" stroke="rgb(0,0,0)" stroke-width="1" opacity="0.807843137254902" d="M 413.5 205 L 412.5 207 L 413.5 205 Z " /><path fill="rgb(0,0,0)" stroke="rgb(0,0,0)" stroke-width="1" opacity="0.807843137254902" d="M 406.5 217 L 405.5 219 L 406.5 217 Z " /><path fill="rgb(0,0,0)" stroke="rgb(0,0,0)" stroke-width="1" opacity="0.807843137254902" d="M 399.5 229 L 398.5 231 L 399.5 229 Z " /><path fill="rgb(0,0,0)" stroke="rgb(0,0,0)" stroke-width="1" opacity="0.807843137254902" d="M 392.5 241 L 391.5 243 L 392.5 241 Z " /><path fill="rgb(0,0,0)" stroke="rgb(0,0,0)" stroke-width="1" opacity="0.807843137254902" d="M 385.5 253 L 384.5 255 L 385.5 253 Z " /><path fill="rgb(0,0,0)" stroke="rgb(0,0,0)" stroke-width="1" opacity="0.807843137254902" d="M 378.5 265 L 377.5 267 L 378.5 265 Z " /><path fill="rgb(0,0,0)" stroke="rgb(0,0,0)" stroke-width="1" opacity="0.807843137254902" d="M 371.5 277 L 370.5 279 L 371.5 277 Z " /><path fill="rgb(0,0,0)" stroke="rgb(0,0,0)" stroke-width="1" opacity="0.807843137254902" d="M 364.5 289 L 363.5 291 L 364.5 289 Z " /><path fill="rgb(0,0,0)" stroke="rgb(0,0,0)" stroke-width="1" opacity="0.807843137254902" d="M 4.5 295 L 5.5 297 L 4.5 295 Z " /><path fill="rgb(0,0,0)" stroke="rgb(0,0,0)" stroke-width="1" opacity="0.807843137254902" d="M 7.5 297 L 8.5 299 L 7.5 297 Z " /><path fill="rgb(0,0,0)" stroke="rgb(0,0,0)" stroke-width="1" opacity="0.807843137254902" d="M 11.5 300 L 12.5 302 L 11.5 300 Z " /><path fill="rgb(0,0,0)" stroke="rgb(0,0,0)" stroke-width="1" opacity="0.807843137254902" d="M 357.5 301 L 356.5 303 L 357.5 301 Z " /><path fill="rgb(0,0,0)" stroke="rgb(0,0,0)" stroke-width="1" opacity="0.807843137254902" d="M 14.5 302 L 15.5 304 L 14.5 302 Z " /><path fill="rgb(0,0,0)" stroke="rgb(0,0,0)" stroke-width="1" opacity="0.807843137254902" d="M 18.5 305 L 19.5 307 L 18.5 305 Z " /><path fill="rgb(0,0,0)" stroke="rgb(0,0,0)" stroke-width="1" opacity="0.807843137254902" d="M 21.5 307 L 22.5 309 L 21.5 307 Z " /><path fill="rgb(0,0,0)" stroke="rgb(0,0,0)" stroke-width="1" opacity="0.807843137254902" d="M 25.5 310 L 26.5 312 L 25.5 310 Z " /><path fill="rgb(0,0,0)" stroke="rgb(0,0,0)" stroke-width="1" opacity="0.807843137254902" d="M 28.5 312 L 29.5 314 L 28.5 312 Z " /><path fill="rgb(0,0,0)" stroke="rgb(0,0,0)" stroke-width="1" opacity="0.807843137254902" d="M 350.5 313 L 349.5 315 L 350.5 313 Z " /><path fill="rgb(0,0,0)" stroke="rgb(0,0,0)" stroke-width="1" opacity="0.807843137254902" d="M 32.5 315 L 33.5 317 L 32.5 315 Z " /><path fill="rgb(0,0,0)" stroke="rgb(0,0,0)" stroke-width="1" opacity="0.807843137254902" d="M 35.5 317 L 36.5 319 L 35.5 317 Z " /><path fill="rgb(0,0,0)" stroke="rgb(0,0,0)" stroke-width="1" opacity="0.807843137254902" d="M 39.5 320 L 40.5 322 L 39.5 320 Z " /><path fill="rgb(0,0,0)" stroke="rgb(0,0,0)" stroke-width="1" opacity="0.807843137254902" d="M 42.5 322 L 43.5 324 L 42.5 322 Z " /><path fill="rgb(0,0,0)" stroke="rgb(0,0,0)" stroke-width="1" opacity="0.807843137254902" d="M 46.5 325 L 47.5 327 L 46.5 325 Z " /><path fill="rgb(0,0,0)" stroke="rgb(0,0,0)" stroke-width="1" opacity="0.807843137254902" d="M 343.5 325 L 342.5 327 L 343.5 325 Z " /><path fill="rgb(0,0,0)" stroke="rgb(0,0,0)" stroke-width="1" opacity="0.807843137254902" d="M 49.5 327 L 50.5 329 L 49.5 327 Z " /><path fill="rgb(0,0,0)" stroke="rgb(0,0,0)" stroke-width="1" opacity="0.807843137254902" d="M 53.5 330 L 54.5 332 L 53.5 330 Z " /><path fill="rgb(0,0,0)" stroke="rgb(0,0,0)" stroke-width="1" opacity="0.807843137254902" d="M 56.5 332 L 57.5 334 L 56.5 332 Z " /><path fill="rgb(0,0,0)" stroke="rgb(0,0,0)" stroke-width="1" opacity="0.807843137254902" d="M 60.5 335 L 61.5 337 L 60.5 335 Z " /><path fill="rgb(0,0,0)" stroke="rgb(0,0,0)" stroke-width="1" opacity="0.807843137254902" d="M 63.5 337 L 64.5 339 L 63.5 337 Z " /><path fill="rgb(0,0,0)" stroke="rgb(0,0,0)" stroke-width="1" opacity="0.807843137254902" d="M 336.5 337 L 335.5 339 L 336.5 337 Z " /><path fill="rgb(0,0,0)" stroke="rgb(0,0,0)" stroke-width="1" opacity="0.807843137254902" d="M 67.5 340 L 68.5 342 L 67.5 340 Z " /><path fill="rgb(0,0,0)" stroke="rgb(0,0,0)" stroke-width="1" opacity="0.807843137254902" d="M 70.5 342 L 71.5 344 L 70.5 342 Z " /><path fill="rgb(0,0,0)" stroke="rgb(0,0,0)" stroke-width="1" opacity="0.807843137254902" d="M 74.5 345 L 75.5 347 L 74.5 345 Z " /><path fill="rgb(0,0,0)" stroke="rgb(0,0,0)" stroke-width="1" opacity="0.807843137254902" d="M 77.5 347 L 78.5 349 L 77.5 347 Z " /><path fill="rgb(0,0,0)" stroke="rgb(0,0,0)" stroke-width="1" opacity="0.807843137254902" d="M 329.5 349 L 328.5 351 L 329.5 349 Z " /><path fill="rgb(0,0,0)" stroke="rgb(0,0,0)" stroke-width="1" opacity="0.807843137254902" d="M 81.5 350 L 82.5 352 L 81.5 350 Z " /><path fill="rgb(0,0,0)" stroke="rgb(0,0,0)" stroke-width="1" opacity="0.807843137254902" d="M 84.5 352 L 85.5 354 L 84.5 352 Z " /><path fill="rgb(0,0,0)" stroke="rgb(0,0,0)" stroke-width="1" opacity="0.807843137254902" d="M 88.5 355 L 89.5 357 L 88.5 355 Z " /><path fill="rgb(0,0,0)" stroke="rgb(0,0,0)" stroke-width="1" opacity="0.807843137254902" d="M 91.5 357 L 92.5 359 L 91.5 357 Z " /><path fill="rgb(0,0,0)" stroke="rgb(0,0,0)" stroke-width="1" opacity="0.807843137254902" d="M 95.5 360 L 96.5 362 L 95.5 360 Z " /><path fill="rgb(0,0,0)" stroke="rgb(0,0,0)" stroke-width="1" opacity="0.807843137254902" d="M 322.5 361 L 321.5 363 L 322.5 361 Z " /><path fill="rgb(0,0,0)" stroke="rgb(0,0,0)" stroke-width="1" opacity="0.807843137254902" d="M 98.5 362 L 99.5 364 L 98.5 362 Z " /><path fill="rgb(0,0,0)" stroke="rgb(0,0,0)" stroke-width="1" opacity="0.807843137254902" d="M 102.5 365 L 103.5 367 L 102.5 365 Z " /><path fill="rgb(0,0,0)" stroke="rgb(0,0,0)" stroke-width="1" opacity="0.807843137254902" d="M 105.5 367 L 106.5 369 L 105.5 367 Z " /><path fill="rgb(0,0,0)" stroke="rgb(0,0,0)" stroke-width="1" opacity="0.807843137254902" d="M 109.5 370 L 110.5 372 L 109.5 370 Z " /><path fill="rgb(0,0,0)" stroke="rgb(0,0,0)" stroke-width="1" opacity="0.807843137254902" d="M 112.5 372 L 113.5 374 L 112.5 372 Z " /><path fill="rgb(0,0,0)" stroke="rgb(0,0,0)" stroke-width="1" opacity="0.807843137254902" d="M 315.5 373 L 314.5 375 L 315.5 373 Z " /><path fill="rgb(0,0,0)" stroke="rgb(0,0,0)" stroke-width="1" opacity="0.807843137254902" d="M 116.5 375 L 117.5 377 L 116.5 375 Z " /><path fill="rgb(0,0,0)" stroke="rgb(0,0,0)" stroke-width="1" opacity="0.807843137254902" d="M 119.5 377 L 120.5 379 L 119.5 377 Z " /><path fill="rgb(0,0,0)" stroke="rgb(0,0,0)" stroke-width="1" opacity="0.807843137254902" d="M 123.5 380 L 124.5 382 L 123.5 380 Z " /><path fill="rgb(0,0,0)" stroke="rgb(0,0,0)" stroke-width="1" opacity="0.807843137254902" d="M 126.5 382 L 127.5 384 L 126.5 382 Z " /><path fill="rgb(0,0,0)" stroke="rgb(0,0,0)" stroke-width="1" opacity="0.807843137254902" d="M 130.5 385 L 131.5 387 L 130.5 385 Z " /><path fill="rgb(0,0,0)" stroke="rgb(0,0,0)" stroke-width="1" opacity="0.807843137254902" d="M 308.5 385 L 307.5 387 L 308.5 385 Z " /><path fill="rgb(0,0,0)" stroke="rgb(0,0,0)" stroke-width="1" opacity="0.807843137254902" d="M 133.5 387 L 134.5 389 L 133.5 387 Z " /><path fill="rgb(0,0,0)" stroke="rgb(0,0,0)" stroke-width="1" opacity="0.807843137254902" d="M 137.5 390 L 138.5 392 L 137.5 390 Z " /><path fill="rgb(0,0,0)" stroke="rgb(0,0,0)" stroke-width="1" opacity="0.807843137254902" d="M 140.5 392 L 141.5 394 L 140.5 392 Z " /><path fill="rgb(0,0,0)" stroke="rgb(0,0,0)" stroke-width="1" opacity="0.807843137254902" d="M 144.5 395 L 145.5 397 L 144.5 395 Z " /><path fill="rgb(0,0,0)" stroke="rgb(0,0,0)" stroke-width="1" opacity="0.807843137254902" d="M 147.5 397 L 148.5 399 L 147.5 397 Z " /><path fill="rgb(0,0,0)" stroke="rgb(0,0,0)" stroke-width="1" opacity="0.807843137254902" d="M 301.5 397 L 300.5 399 L 301.5 397 Z " /><path fill="rgb(0,0,0)" stroke="rgb(0,0,0)" stroke-width="1" opacity="0.807843137254902" d="M 151.5 400 L 152.5 402 L 151.5 400 Z " /><path fill="rgb(0,0,0)" stroke="rgb(0,0,0)" stroke-width="1" opacity="0.807843137254902" d="M 154.5 402 L 155.5 404 L 154.5 402 Z " /><path fill="rgb(0,0,0)" stroke="rgb(0,0,0)" stroke-width="1" opacity="0.807843137254902" d="M 158.5 405 L 159.5 407 L 158.5 405 Z " /><path fill="rgb(0,0,0)" stroke="rgb(0,0,0)" stroke-width="1" opacity="0.807843137254902" d="M 161.5 407 L 162.5 409 L 161.5 407 Z " /><path fill="rgb(0,0,0)" stroke="rgb(0,0,0)" stroke-width="1" opacity="0.807843137254902" d="M 294.5 409 L 293.5 411 L 294.5 409 Z " /><path fill="rgb(0,0,0)" stroke="rgb(0,0,0)" stroke-width="1" opacity="0.807843137254902" d="M 165.5 410 L 166.5 412 L 165.5 410 Z " /><path fill="rgb(0,0,0)" stroke="rgb(0,0,0)" stroke-width="1" opacity="0.807843137254902" d="M 168.5 412 L 169.5 414 L 168.5 412 Z " /><path fill="rgb(0,0,0)" stroke="rgb(0,0,0)" stroke-width="1" opacity="0.807843137254902" d="M 172.5 415 L 173.5 417 L 172.5 415 Z " /><path fill="rgb(0,0,0)" stroke="rgb(0,0,0)" stroke-width="1" opacity="0.807843137254902" d="M 175.5 417 L 176.5 419 L 175.5 417 Z " /><path fill="rgb(0,0,0)" stroke="rgb(0,0,0)" stroke-width="1" opacity="0.807843137254902" d="M 179.5 420 L 180.5 422 L 179.5 420 Z " /><path fill="rgb(0,0,0)" stroke="rgb(0,0,0)" stroke-width="1" opacity="0.807843137254902" d="M 287.5 421 L 286.5 423 L 287.5 421 Z " /><path fill="rgb(0,0,0)" stroke="rgb(0,0,0)" stroke-width="1" opacity="0.807843137254902" d="M 182.5 422 L 183.5 424 L 182.5 422 Z " /><path fill="rgb(0,0,0)" stroke="rgb(0,0,0)" stroke-width="1" opacity="0.807843137254902" d="M 186.5 425 L 187.5 427 L 186.5 425 Z " /><path fill="rgb(0,0,0)" stroke="rgb(0,0,0)" stroke-width="1" opacity="0.807843137254902" d="M 189.5 427 L 190.5 429 L 189.5 427 Z " /><path fill="rgb(0,0,0)" stroke="rgb(0,0,0)" stroke-width="1" opacity="0.807843137254902" d="M 193.5 430 L 194.5 432 L 193.5 430 Z " /><path fill="rgb(0,0,0)" stroke="rgb(0,0,0)" stroke-width="1" opacity="0.807843137254902" d="M 196.5 432 L 197.5 434 L 196.5 432 Z " /><path fill="rgb(0,0,0)" stroke="rgb(0,0,0)" stroke-width="1" opacity="0.807843137254902" d="M 280.5 433 L 279.5 435 L 280.5 433 Z " /><path fill="rgb(0,0,0)" stroke="rgb(0,0,0)" stroke-width="1" opacity="0.807843137254902" d="M 200.5 435 L 201.5 437 L 200.5 435 Z " /><path fill="rgb(0,0,0)" stroke="rgb(0,0,0)" stroke-width="1" opacity="0.807843137254902" d="M 203.5 437 L 204.5 439 L 203.5 437 Z " /><path fill="rgb(0,0,0)" stroke="rgb(0,0,0)" stroke-width="1" opacity="0.807843137254902" d="M 207.5 440 L 208.5 442 L 207.5 440 Z " /><path fill="rgb(0,0,0)" stroke="rgb(0,0,0)" stroke-width="1" opacity="0.807843137254902" d="M 210.5 442 L 211.5 444 L 210.5 442 Z " /><path fill="rgb(0,0,0)" stroke="rgb(0,0,0)" stroke-width="1" opacity="0.807843137254902" d="M 214.5 445 L 215.5 447 L 214.5 445 Z " /><path fill="rgb(0,0,0)" stroke="rgb(0,0,0)" stroke-width="1" opacity="0.807843137254902" d="M 273.5 445 L 272.5 447 L 273.5 445 Z " /><path fill="rgb(0,0,0)" stroke="rgb(0,0,0)" stroke-width="1" opacity="0.807843137254902" d="M 217.5 447 L 218.5 449 L 217.5 447 Z " /><path fill="rgb(0,0,0)" stroke="rgb(0,0,0)" stroke-width="1" opacity="0.807843137254902" d="M 221.5 450 L 222.5 452 L 221.5 450 Z " /><path fill="rgb(0,0,0)" stroke="rgb(0,0,0)" stroke-width="1" opacity="0.807843137254902" d="M 224.5 452 L 225.5 454 L 224.5 452 Z " /><path fill="rgb(0,0,0)" stroke="rgb(0,0,0)" stroke-width="1" opacity="0.807843137254902" d="M 228.5 455 L 229.5 457 L 228.5 455 Z " /><path fill="rgb(0,0,0)" stroke="rgb(0,0,0)" stroke-width="1" opacity="0.807843137254902" d="M 231.5 457 L 232.5 459 L 231.5 457 Z " /><path fill="rgb(0,0,0)" stroke="rgb(0,0,0)" stroke-width="1" opacity="0.807843137254902" d="M 266.5 457 L 265.5 459 L 266.5 457 Z " /><path fill="rgb(0,0,0)" stroke="rgb(0,0,0)" stroke-width="1" opacity="0.807843137254902" d="M 235.5 460 L 236.5 462 L 235.5 460 Z " /><path fill="rgb(0,0,0)" stroke="rgb(0,0,0)" stroke-width="1" opacity="0.807843137254902" d="M 238.5 462 L 239.5 464 L 238.5 462 Z " /><path fill="rgb(0,0,0)" stroke="rgb(0,0,0)" stroke-width="1" opacity="0.807843137254902" d="M 242.5 465 L 243.5 467 L 242.5 465 Z " /><path fill="rgb(0,0,0)" stroke="rgb(0,0,0)" stroke-width="1" opacity="0.807843137254902" d="M 245.5 467 L 246.5 469 L 245.5 467 Z " /><path fill="rgb(0,0,0)" stroke="rgb(0,0,0)" stroke-width="1" opacity="0.807843137254902" d="M 259.5 469 L 258.5 471 L 259.5 469 Z " /><path fill="rgb(0,0,0)" stroke="rgb(0,0,0)" stroke-width="1" opacity="0.807843137254902" d="M 249.5 470 L 250.5 472 L 249.5 470 Z " /><path fill="rgb(0,0,0)" stroke="rgb(0,0,0)" stroke-width="1" opacity="0.807843137254902" d="M 252.5 472 L 253.5 474 L 252.5 472 Z " /><path fill="rgb(0,0,0)" stroke="rgb(0,0,0)" stroke-width="1" opacity="1" d="M 508.5 41 L 508 42.5 L 255.5 475 L 1 292.5 L 91.5 202 L 218.5 329 L 220.5 329 L 508.5 41 Z " /></svg>