<svg width="512" height="512" version="1.1" xmlns="http://www.w3.org/2000/svg" desc="Created with imagetracer.js version 1.2.6" ><path fill="rgb(41,39,39)" stroke="rgb(41,39,39)" stroke-width="1" opacity="0.9921568627450981" d="M 233.5 0 L 241.5 0 L 276.5 16 Q 304.2 31.8 325 54.5 Q 357.2 87.8 372.5 138 Q 380 130.5 383 118.5 L 387.5 114 Q 390.8 110.8 398.5 112 L 402.5 114 L 414 125.5 Q 433.4 147.6 444 178.5 L 449 197.5 L 451 218.5 L 452 219.5 L 452 255.5 L 445 292.5 L 435 319.5 Q 418.1 356.1 390 381.5 L 389 389.5 L 384 404.5 L 367 445.5 L 367 491.5 Q 364.9 500.9 358.5 506 L 346.5 512 L 199.5 512 L 186 505 L 179 490.5 L 179 447.5 L 165.5 434 L 135 404.5 Q 127.4 396.6 124 384.5 Q 105.7 368.3 92 347.5 L 76 318.5 L 66 290.5 L 62 272.5 L 61 258.5 L 60 257.5 L 60 225.5 L 65 198.5 L 74 173.5 Q 85.6 148.1 103.5 129 Q 107.3 124.3 117.5 126 L 125 132.5 L 127 137.5 L 128 149.5 L 132.5 157 Q 146 127.5 168.5 107 L 205 75.5 Q 215.3 64.8 222 50.5 L 225 39.5 L 225 21.5 L 223 13.5 Q 224.2 5.7 229.5 2 L 233.5 0 Z M 243 19 L 242 30 L 243 31 L 241 48 L 236 62 L 220 85 Q 205 102 186 115 Q 171 128 159 145 Q 149 157 144 176 L 140 179 L 134 179 L 125 174 L 115 164 L 110 149 Q 96 164 88 185 L 82 202 L 77 228 L 77 254 L 78 255 L 78 263 L 84 291 Q 95 327 118 353 Q 117 355 120 354 L 119 353 L 119 265 L 122 250 L 128 239 Q 140 220 171 222 L 171 199 L 179 183 Q 186 174 199 171 Q 209 170 216 172 Q 225 175 231 182 Q 237 174 250 171 Q 260 170 267 172 L 280 180 L 284 187 L 296 181 L 304 179 Q 318 179 327 185 L 337 196 Q 342 190 353 188 L 369 189 L 380 195 L 389 207 L 392 215 Q 390 221 393 223 L 393 239 L 392 243 L 388 247 L 380 246 L 376 242 L 376 221 L 373 213 L 364 205 Q 352 203 348 208 L 342 216 L 340 227 L 336 230 L 329 229 L 325 226 L 324 209 L 322 205 Q 318 198 311 196 Q 303 195 299 198 L 291 207 L 289 218 L 283 222 L 278 221 L 273 215 L 273 201 L 269 194 L 261 188 Q 251 186 247 190 L 240 198 L 238 209 L 233 213 L 226 212 L 222 207 L 222 201 L 219 195 L 211 188 Q 199 186 195 191 L 189 198 L 187 207 L 187 337 L 182 341 L 175 340 L 171 336 L 171 239 L 157 239 L 148 243 Q 138 249 136 262 L 136 360 L 137 361 L 137 371 Q 140 385 148 394 L 172 416 L 196 442 L 196 489 L 197 491 L 203 495 L 345 495 L 348 493 L 350 489 L 350 442 L 368 399 L 375 374 L 375 365 L 376 364 L 376 271 L 377 269 Q 379 264 388 265 L 392 270 L 393 274 L 394 353 Q 412 332 423 304 L 431 278 L 434 261 L 434 253 L 435 252 L 435 224 L 434 223 L 434 214 L 428 186 Q 417 154 397 132 L 386 150 Q 380 158 370 162 L 363 161 L 359 158 L 356 144 L 347 119 Q 336 93 319 74 Q 290 37 243 19 Z " /><path fill="rgb(0,0,0)" stroke="rgb(0,0,0)" stroke-width="1" opacity="0" d="M 0 0 L 233 0.5 L 226 5.5 L 223 14.5 Q 227 24 225 39.5 Q 223 50.5 218 58.5 Q 209.7 71.7 198.5 82 L 161 114.5 Q 143.6 132.6 132.5 157 L 128 149.5 L 126 134.5 L 119.5 127 Q 116 124.5 108.5 126 L 102 130.5 Q 80.1 154.6 68 188.5 L 63 206.5 L 61 224.5 L 60 225.5 L 60 257.5 L 66 290.5 Q 72.8 314.7 84 334.5 Q 100.2 363.3 124 384.5 Q 127.4 396.6 135 404.5 L 164.5 434 L 179 447.5 L 179 490.5 L 186 505 L 199 511.5 L 0 512 L 0 0 Z " /><path fill="rgb(0,0,0)" stroke="rgb(0,0,0)" stroke-width="1" opacity="0" d="M 242.5 0 L 512 0 L 512 512 L 347 511.5 Q 356.3 509.8 361 503.5 L 367 491.5 L 367 445.5 L 384 404.5 L 389 389.5 L 390 381.5 Q 428 347.5 445 292.5 L 452 255.5 L 452 219.5 L 451 218.5 L 449 197.5 L 444 178.5 L 439 165.5 Q 425.6 134.9 402.5 114 Q 399.2 110.8 391.5 112 L 383 118.5 Q 380 130.5 372.5 138 Q 354.4 80.1 314.5 44 Q 299.6 29.9 281.5 19 L 254.5 5 L 242.5 1 L 242.5 0 Z " /><path fill="rgb(218,70,78)" stroke="rgb(218,70,78)" stroke-width="1" opacity="1" d="M 242.5 22 L 243 29.5 L 242 29.5 L 242.5 22 Z " /><path fill="rgb(218,70,78)" stroke="rgb(218,70,78)" stroke-width="1" opacity="1" d="M 249.5 22 L 253 23.5 L 251.5 24 L 249.5 22 Z " /><path fill="rgb(218,70,78)" stroke="rgb(218,70,78)" stroke-width="1" opacity="1" d="M 262.5 28 L 268 31.5 L 266.5 31 Q 262.5 30.5 262.5 28 Z " /><path fill="rgb(218,70,78)" stroke="rgb(218,70,78)" stroke-width="1" opacity="1" d="M 242.5 32 L 243 39.5 L 242 39.5 L 242.5 32 Z " /><path fill="rgb(218,70,78)" stroke="rgb(218,70,78)" stroke-width="1" opacity="1" d="M 269.5 32 L 273 34.5 L 271.5 34 L 269.5 32 Z " /><path fill="rgb(218,70,78)" stroke="rgb(218,70,78)" stroke-width="1" opacity="1" d="M 274.5 35 L 285 42.5 L 282.5 41 L 275.5 37 L 274.5 35 Z " /><path fill="rgb(218,70,78)" stroke="rgb(218,70,78)" stroke-width="1" opacity="1" d="M 241.5 43 L 242 45.5 L 241 45.5 L 241.5 43 Z " /><path fill="rgb(218,70,78)" stroke="rgb(218,70,78)" stroke-width="1" opacity="1" d="M 286.5 43 L 288.5 46 L 286.5 43 Z " /><path fill="rgb(218,70,78)" stroke="rgb(218,70,78)" stroke-width="1" opacity="1" d="M 290.5 46 L 304 58.5 L 295.5 51 L 290.5 46 Z " /><path fill="rgb(218,70,78)" stroke="rgb(218,70,78)" stroke-width="1" opacity="1" d="M 237.5 57 L 238 58.5 L 236.5 61 L 236 59.5 L 237.5 57 Z " /><path fill="rgb(218,70,78)" stroke="rgb(218,70,78)" stroke-width="1" opacity="1" d="M 234.5 64 L 234 65.5 L 232.5 68 L 233 66.5 L 234.5 64 Z " /><path fill="rgb(218,70,78)" stroke="rgb(218,70,78)" stroke-width="1" opacity="1" d="M 310.5 65 L 323 78.5 L 318 74.5 L 310.5 65 Z " /><path fill="rgb(218,70,78)" stroke="rgb(218,70,78)" stroke-width="1" opacity="1" d="M 231.5 69 L 231 70.5 L 225.5 78 L 228 74.5 L 231.5 69 Z " /><path fill="rgb(218,70,78)" stroke="rgb(218,70,78)" stroke-width="1" opacity="1" d="M 224.5 79 L 220.5 84 L 224.5 79 Z " /><path fill="rgb(218,70,78)" stroke="rgb(218,70,78)" stroke-width="1" opacity="1" d="M 323.5 80 L 325.5 83 L 323.5 80 Z " /><path fill="rgb(218,70,78)" stroke="rgb(218,70,78)" stroke-width="1" opacity="1" d="M 326.5 84 L 334 94.5 L 332 93.5 L 326.5 84 Z " /><path fill="rgb(218,70,78)" stroke="rgb(218,70,78)" stroke-width="1" opacity="1" d="M 219.5 85 L 206.5 99 L 219.5 85 Z " /><path fill="rgb(218,70,78)" stroke="rgb(218,70,78)" stroke-width="1" opacity="1" d="M 334.5 96 L 335.5 98 L 334.5 96 Z " /><path fill="rgb(218,70,78)" stroke="rgb(218,70,78)" stroke-width="1" opacity="1" d="M 204.5 99 L 199.5 105 L 204.5 99 Z " /><path fill="rgb(218,70,78)" stroke="rgb(218,70,78)" stroke-width="1" opacity="1" d="M 337.5 101 L 340 104.5 L 338 103.5 L 337.5 101 Z " /><path fill="rgb(218,70,78)" stroke="rgb(218,70,78)" stroke-width="1" opacity="1" d="M 197.5 105 L 193.5 110 L 197.5 105 Z " /><path fill="rgb(218,70,78)" stroke="rgb(218,70,78)" stroke-width="1" opacity="1" d="M 191.5 110 L 187.5 115 L 191.5 110 Z " /><path fill="rgb(218,70,78)" stroke="rgb(218,70,78)" stroke-width="1" opacity="1" d="M 185.5 115 L 170.5 131 L 185.5 115 Z " /><path fill="rgb(218,70,78)" stroke="rgb(218,70,78)" stroke-width="1" opacity="1" d="M 348.5 123 L 350 126.5 L 349 126.5 L 348.5 123 Z " /><path fill="rgb(218,70,78)" stroke="rgb(218,70,78)" stroke-width="1" opacity="1" d="M 169.5 132 L 165.5 137 L 169.5 132 Z " /><path fill="rgb(218,70,78)" stroke="rgb(218,70,78)" stroke-width="1" opacity="1" d="M 396.5 132 L 399.5 136 L 396.5 132 Z " /><path fill="rgb(218,70,78)" stroke="rgb(218,70,78)" stroke-width="1" opacity="1" d="M 400.5 137 L 403.5 141 L 400.5 137 Z " /><path fill="rgb(218,70,78)" stroke="rgb(218,70,78)" stroke-width="1" opacity="1" d="M 164.5 138 L 162.5 141 L 164.5 138 Z " /><path fill="rgb(218,70,78)" stroke="rgb(218,70,78)" stroke-width="1" opacity="1" d="M 392.5 140 L 391.5 142 L 392.5 140 Z " /><path fill="rgb(218,70,78)" stroke="rgb(218,70,78)" stroke-width="1" opacity="1" d="M 161.5 142 L 159.5 145 L 161.5 142 Z " /><path fill="rgb(218,70,78)" stroke="rgb(218,70,78)" stroke-width="1" opacity="1" d="M 404.5 142 L 406.5 145 L 404.5 142 Z " /><path fill="rgb(218,70,78)" stroke="rgb(218,70,78)" stroke-width="1" opacity="1" d="M 390.5 143 L 390 144.5 L 379.5 157 L 376.5 159 L 378.5 156 L 386 149.5 L 390.5 143 Z " /><path fill="rgb(218,70,78)" stroke="rgb(218,70,78)" stroke-width="1" opacity="1" d="M 158.5 146 L 157.5 148 L 158.5 146 Z " /><path fill="rgb(218,70,78)" stroke="rgb(218,70,78)" stroke-width="1" opacity="1" d="M 407.5 146 L 411 150.5 L 409 149.5 L 407.5 146 Z " /><path fill="rgb(218,70,78)" stroke="rgb(218,70,78)" stroke-width="1" opacity="1" d="M 109.5 149 L 111 152.5 L 110 152.5 L 109.5 150 L 107 151.5 L 109.5 149 Z " /><path fill="rgb(218,70,78)" stroke="rgb(218,70,78)" stroke-width="1" opacity="1" d="M 156.5 149 L 156 150.5 L 154.5 153 L 155 151.5 L 156.5 149 Z " /><path fill="rgb(218,70,78)" stroke="rgb(218,70,78)" stroke-width="1" opacity="1" d="M 411.5 152 L 412.5 154 L 411.5 152 Z " /><path fill="rgb(218,70,78)" stroke="rgb(218,70,78)" stroke-width="1" opacity="1" d="M 106.5 153 L 105 155.5 L 102.5 159 L 104 156.5 L 106.5 153 Z " /><path fill="rgb(218,70,78)" stroke="rgb(218,70,78)" stroke-width="1" opacity="1" d="M 153.5 154 L 153 155.5 L 150.5 160 L 151 158.5 L 153.5 154 Z " /><path fill="rgb(218,70,78)" stroke="rgb(218,70,78)" stroke-width="1" opacity="1" d="M 413.5 155 L 416 158.5 L 414 157.5 L 413.5 155 Z " /><path fill="rgb(218,70,78)" stroke="rgb(218,70,78)" stroke-width="1" opacity="1" d="M 359.5 158 L 364 161.5 L 362.5 162 L 359.5 158 Z " /><path fill="rgb(218,70,78)" stroke="rgb(218,70,78)" stroke-width="1" opacity="1" d="M 374.5 159 L 373.5 161 L 370.5 162 L 370.5 161 L 374.5 159 Z " /><path fill="rgb(218,70,78)" stroke="rgb(218,70,78)" stroke-width="1" opacity="1" d="M 101.5 160 L 100.5 162 L 101.5 160 Z " /><path fill="rgb(218,70,78)" stroke="rgb(218,70,78)" stroke-width="1" opacity="1" d="M 149.5 161 L 150 162.5 L 148.5 165 L 148 163.5 L 149.5 161 Z " /><path fill="rgb(218,70,78)" stroke="rgb(218,70,78)" stroke-width="1" opacity="1" d="M 365.5 162 L 369 162.5 L 365.5 163 L 365.5 162 Z " /><path fill="rgb(218,70,78)" stroke="rgb(218,70,78)" stroke-width="1" opacity="1" d="M 115.5 164 L 116.5 166 L 115.5 164 Z " /><path fill="rgb(218,70,78)" stroke="rgb(218,70,78)" stroke-width="1" opacity="1" d="M 98.5 165 L 97.5 167 L 98.5 165 Z " /><path fill="rgb(218,70,78)" stroke="rgb(218,70,78)" stroke-width="1" opacity="1" d="M 117.5 167 L 123.5 174 L 117.5 167 Z " /><path fill="rgb(218,70,78)" stroke="rgb(218,70,78)" stroke-width="1" opacity="1" d="M 200.5 170 L 209 170.5 L 200.5 171 L 200.5 170 Z " /><path fill="rgb(218,70,78)" stroke="rgb(218,70,78)" stroke-width="1" opacity="1" d="M 252.5 170 L 260 170.5 L 252.5 171 L 252.5 170 Z " /><path fill="rgb(218,70,78)" stroke="rgb(218,70,78)" stroke-width="1" opacity="1" d="M 195.5 171 L 198 171.5 L 195.5 172 L 195.5 171 Z " /><path fill="rgb(218,70,78)" stroke="rgb(218,70,78)" stroke-width="1" opacity="1" d="M 94.5 172 L 94 173.5 L 91.5 179 L 91 177.5 L 94.5 172 Z " /><path fill="rgb(218,70,78)" stroke="rgb(218,70,78)" stroke-width="1" opacity="1" d="M 192.5 172 L 194 172.5 L 187.5 176 L 188.5 174 L 192.5 172 Z " /><path fill="rgb(218,70,78)" stroke="rgb(218,70,78)" stroke-width="1" opacity="1" d="M 243.5 172 L 245 172.5 L 241.5 174 L 241.5 173 L 243.5 172 Z " /><path fill="rgb(218,70,78)" stroke="rgb(218,70,78)" stroke-width="1" opacity="1" d="M 422.5 172 L 424 175.5 L 423 175.5 L 422.5 172 Z " /><path fill="rgb(218,70,78)" stroke="rgb(218,70,78)" stroke-width="1" opacity="1" d="M 218.5 173 L 223 175.5 L 221.5 175 Q 217.8 174.7 218.5 173 Z " /><path fill="rgb(218,70,78)" stroke="rgb(218,70,78)" stroke-width="1" opacity="1" d="M 269.5 173 L 274 175.5 L 272.5 175 Q 268.8 174.7 269.5 173 Z " /><path fill="rgb(218,70,78)" stroke="rgb(218,70,78)" stroke-width="1" opacity="1" d="M 125.5 174 L 126.5 176 L 125.5 174 Z " /><path fill="rgb(218,70,78)" stroke="rgb(218,70,78)" stroke-width="1" opacity="1" d="M 239.5 174 L 238.5 176 L 235.5 178 L 237.5 175 L 239.5 174 Z " /><path fill="rgb(218,70,78)" stroke="rgb(218,70,78)" stroke-width="1" opacity="1" d="M 128.5 176 L 131 177.5 L 129.5 178 L 128.5 176 Z " /><path fill="rgb(218,70,78)" stroke="rgb(218,70,78)" stroke-width="1" opacity="1" d="M 143.5 176 L 142.5 178 L 143.5 176 Z " /><path fill="rgb(218,70,78)" stroke="rgb(218,70,78)" stroke-width="1" opacity="1" d="M 185.5 176 L 183.5 179 L 185.5 176 Z " /><path fill="rgb(218,70,78)" stroke="rgb(218,70,78)" stroke-width="1" opacity="1" d="M 224.5 176 L 225.5 178 L 224.5 176 Z " /><path fill="rgb(218,70,78)" stroke="rgb(218,70,78)" stroke-width="1" opacity="1" d="M 275.5 176 L 278.5 180 L 275.5 176 Z " /><path fill="rgb(218,70,78)" stroke="rgb(218,70,78)" stroke-width="1" opacity="1" d="M 227.5 178 L 230.5 181 L 234 178.5 L 230.5 182 L 227.5 178 Z " /><path fill="rgb(218,70,78)" stroke="rgb(218,70,78)" stroke-width="1" opacity="1" d="M 135.5 179 L 138 179.5 L 135.5 180 L 135.5 179 Z " /><path fill="rgb(218,70,78)" stroke="rgb(218,70,78)" stroke-width="1" opacity="1" d="M 181.5 179 L 179.5 182 L 181.5 179 Z " /><path fill="rgb(218,70,78)" stroke="rgb(218,70,78)" stroke-width="1" opacity="1" d="M 300.5 179 L 303 179.5 L 300.5 180 L 300.5 179 Z " /><path fill="rgb(218,70,78)" stroke="rgb(218,70,78)" stroke-width="1" opacity="1" d="M 311.5 179 L 314 179.5 L 311.5 180 L 311.5 179 Z " /><path fill="rgb(218,70,78)" stroke="rgb(218,70,78)" stroke-width="1" opacity="1" d="M 293.5 181 L 295 181.5 L 284.5 187 L 284.5 186 L 293.5 181 Z " /><path fill="rgb(218,70,78)" stroke="rgb(218,70,78)" stroke-width="1" opacity="1" d="M 319.5 181 L 326 184.5 L 324.5 184 L 319.5 182 L 319.5 181 Z " /><path fill="rgb(218,70,78)" stroke="rgb(218,70,78)" stroke-width="1" opacity="1" d="M 281.5 182 L 283.5 185 L 281.5 182 Z " /><path fill="rgb(218,70,78)" stroke="rgb(218,70,78)" stroke-width="1" opacity="1" d="M 178.5 183 L 176.5 186 L 178.5 183 Z " /><path fill="rgb(218,70,78)" stroke="rgb(218,70,78)" stroke-width="1" opacity="1" d="M 327.5 185 L 334.5 193 L 327.5 185 Z " /><path fill="rgb(218,70,78)" stroke="rgb(218,70,78)" stroke-width="1" opacity="1" d="M 175.5 187 L 175 188.5 L 173.5 192 L 173 190.5 L 175.5 187 Z " /><path fill="rgb(218,70,78)" stroke="rgb(218,70,78)" stroke-width="1" opacity="1" d="M 355.5 187 L 362 187.5 L 355.5 188 L 355.5 187 Z " /><path fill="rgb(218,70,78)" stroke="rgb(218,70,78)" stroke-width="1" opacity="1" d="M 349.5 188 L 352 188.5 L 349.5 189 L 349.5 188 Z " /><path fill="rgb(218,70,78)" stroke="rgb(218,70,78)" stroke-width="1" opacity="1" d="M 365.5 188 L 368 188.5 L 365.5 189 L 365.5 188 Z " /><path fill="rgb(218,70,78)" stroke="rgb(218,70,78)" stroke-width="1" opacity="1" d="M 369.5 189 L 376 192.5 L 374.5 192 L 369.5 190 L 369.5 189 Z " /><path fill="rgb(218,70,78)" stroke="rgb(218,70,78)" stroke-width="1" opacity="1" d="M 266.5 191 L 268.5 194 L 266.5 191 Z " /><path fill="rgb(218,70,78)" stroke="rgb(218,70,78)" stroke-width="1" opacity="1" d="M 429.5 192 L 430 194.5 L 429 194.5 L 429.5 192 Z " /><path fill="rgb(218,70,78)" stroke="rgb(218,70,78)" stroke-width="1" opacity="1" d="M 338.5 193 L 336.5 196 L 335.5 194 Q 337 196.5 338.5 193 Z " /><path fill="rgb(218,70,78)" stroke="rgb(218,70,78)" stroke-width="1" opacity="1" d="M 377.5 193 L 378.5 195 L 377.5 193 Z " /><path fill="rgb(218,70,78)" stroke="rgb(218,70,78)" stroke-width="1" opacity="1" d="M 380.5 195 L 384.5 200 L 380.5 195 Z " /><path fill="rgb(218,70,78)" stroke="rgb(218,70,78)" stroke-width="1" opacity="1" d="M 430.5 196 L 431 198.5 L 430 198.5 L 430.5 196 Z " /><path fill="rgb(218,70,78)" stroke="rgb(218,70,78)" stroke-width="1" opacity="1" d="M 170.5 201 L 171 222 L 160 221.5 L 170 221 L 170.5 201 Z " /><path fill="rgb(218,70,78)" stroke="rgb(218,70,78)" stroke-width="1" opacity="1" d="M 385.5 201 L 389 205.5 L 387 204.5 L 385.5 201 Z " /><path fill="rgb(218,70,78)" stroke="rgb(218,70,78)" stroke-width="1" opacity="1" d="M 431.5 201 L 432 203.5 L 431 203.5 L 431.5 201 Z " /><path fill="rgb(218,70,78)" stroke="rgb(218,70,78)" stroke-width="1" opacity="1" d="M 187.5 206 L 188 334.5 L 187 334.5 L 187.5 206 Z " /><path fill="rgb(218,70,78)" stroke="rgb(218,70,78)" stroke-width="1" opacity="1" d="M 432.5 206 L 433 209.5 L 432 209.5 L 432.5 206 Z " /><path fill="rgb(218,70,78)" stroke="rgb(218,70,78)" stroke-width="1" opacity="1" d="M 367.5 207 L 368.5 209 L 367.5 207 Z " /><path fill="rgb(218,70,78)" stroke="rgb(218,70,78)" stroke-width="1" opacity="1" d="M 389.5 207 L 391 210.5 L 390 210.5 L 389.5 207 Z " /><path fill="rgb(218,70,78)" stroke="rgb(218,70,78)" stroke-width="1" opacity="1" d="M 347.5 208 L 345.5 211 L 347.5 208 Z " /><path fill="rgb(218,70,78)" stroke="rgb(218,70,78)" stroke-width="1" opacity="1" d="M 80.5 209 L 81 211.5 L 80 211.5 L 80.5 209 Z " /><path fill="rgb(218,70,78)" stroke="rgb(218,70,78)" stroke-width="1" opacity="1" d="M 237.5 209 L 235.5 212 L 237.5 209 Z " /><path fill="rgb(218,70,78)" stroke="rgb(218,70,78)" stroke-width="1" opacity="1" d="M 433.5 213 L 434 217.5 L 433 217.5 L 433.5 213 Z " /><path fill="rgb(218,70,78)" stroke="rgb(218,70,78)" stroke-width="1" opacity="1" d="M 79.5 214 L 80 216.5 L 79 216.5 L 79.5 214 Z " /><path fill="rgb(218,70,78)" stroke="rgb(218,70,78)" stroke-width="1" opacity="1" d="M 324.5 215 L 325 223.5 L 324 223.5 L 324.5 215 Z " /><path fill="rgb(218,70,78)" stroke="rgb(218,70,78)" stroke-width="1" opacity="1" d="M 392.5 216 L 393 221.5 L 392 221.5 L 392.5 216 Z " /><path fill="rgb(218,70,78)" stroke="rgb(218,70,78)" stroke-width="1" opacity="1" d="M 78.5 220 L 79 222.5 L 78 222.5 L 78.5 220 Z " /><path fill="rgb(218,70,78)" stroke="rgb(218,70,78)" stroke-width="1" opacity="1" d="M 375.5 220 L 376 239.5 L 375 239.5 L 375.5 220 Z " /><path fill="rgb(218,70,78)" stroke="rgb(218,70,78)" stroke-width="1" opacity="1" d="M 152.5 222 L 155 222.5 L 152.5 223 L 152.5 222 Z " /><path fill="rgb(218,70,78)" stroke="rgb(218,70,78)" stroke-width="1" opacity="1" d="M 148.5 223 L 151 223.5 L 146.5 225 L 146.5 224 L 148.5 223 Z " /><path fill="rgb(218,70,78)" stroke="rgb(218,70,78)" stroke-width="1" opacity="1" d="M 434.5 223 L 435 230.5 L 434 230.5 L 434.5 223 Z " /><path fill="rgb(218,70,78)" stroke="rgb(218,70,78)" stroke-width="1" opacity="1" d="M 141.5 226 L 143 226.5 L 140.5 228 L 141.5 226 Z " /><path fill="rgb(218,70,78)" stroke="rgb(218,70,78)" stroke-width="1" opacity="1" d="M 77.5 227 L 78 233.5 L 77 233.5 L 77.5 227 Z " /><path fill="rgb(218,70,78)" stroke="rgb(218,70,78)" stroke-width="1" opacity="1" d="M 326.5 227 L 327.5 229 L 326.5 227 Z " /><path fill="rgb(218,70,78)" stroke="rgb(218,70,78)" stroke-width="1" opacity="1" d="M 138.5 228 L 137.5 230 L 138.5 228 Z " /><path fill="rgb(218,70,78)" stroke="rgb(218,70,78)" stroke-width="1" opacity="1" d="M 135.5 230 L 128.5 238 L 135.5 230 Z " /><path fill="rgb(218,70,78)" stroke="rgb(218,70,78)" stroke-width="1" opacity="1" d="M 127.5 239 L 126.5 241 L 127.5 239 Z " /><path fill="rgb(218,70,78)" stroke="rgb(218,70,78)" stroke-width="1" opacity="1" d="M 392.5 239 L 393 241.5 L 392 241.5 L 392.5 239 Z " /><path fill="rgb(218,70,78)" stroke="rgb(218,70,78)" stroke-width="1" opacity="1" d="M 125.5 242 L 124.5 244 L 125.5 242 Z " /><path fill="rgb(218,70,78)" stroke="rgb(218,70,78)" stroke-width="1" opacity="1" d="M 391.5 243 L 388.5 247 L 391.5 243 Z " /><path fill="rgb(218,70,78)" stroke="rgb(218,70,78)" stroke-width="1" opacity="1" d="M 434.5 243 L 435 251.5 L 434 251.5 L 434.5 243 Z " /><path fill="rgb(218,70,78)" stroke="rgb(218,70,78)" stroke-width="1" opacity="1" d="M 123.5 245 L 124 246.5 L 122.5 249 L 122 247.5 L 123.5 245 Z " /><path fill="rgb(218,70,78)" stroke="rgb(218,70,78)" stroke-width="1" opacity="1" d="M 77.5 247 L 78 253.5 L 77 253.5 L 77.5 247 Z " /><path fill="rgb(218,70,78)" stroke="rgb(218,70,78)" stroke-width="1" opacity="1" d="M 384.5 247 L 387 247.5 L 384.5 248 L 384.5 247 Z " /><path fill="rgb(218,70,78)" stroke="rgb(218,70,78)" stroke-width="1" opacity="1" d="M 433.5 257 L 434 260.5 L 433 260.5 L 433.5 257 Z " /><path fill="rgb(218,70,78)" stroke="rgb(218,70,78)" stroke-width="1" opacity="1" d="M 119.5 258 L 120 263.5 L 119 263.5 L 119.5 258 Z " /><path fill="rgb(218,70,78)" stroke="rgb(218,70,78)" stroke-width="1" opacity="1" d="M 78.5 259 L 79 262.5 L 78 262.5 L 78.5 259 Z " /><path fill="rgb(218,70,78)" stroke="rgb(218,70,78)" stroke-width="1" opacity="1" d="M 136.5 261 L 137 359.5 L 136 359.5 L 136.5 261 Z " /><path fill="rgb(218,70,78)" stroke="rgb(218,70,78)" stroke-width="1" opacity="1" d="M 384.5 264 L 387 264.5 L 384.5 265 L 384.5 264 Z " /><path fill="rgb(218,70,78)" stroke="rgb(218,70,78)" stroke-width="1" opacity="1" d="M 432.5 264 L 433 267.5 L 432 267.5 L 432.5 264 Z " /><path fill="rgb(218,70,78)" stroke="rgb(218,70,78)" stroke-width="1" opacity="1" d="M 388.5 265 L 391.5 269 L 388.5 265 Z " /><path fill="rgb(218,70,78)" stroke="rgb(218,70,78)" stroke-width="1" opacity="1" d="M 79.5 266 L 80 269.5 L 79 269.5 L 79.5 266 Z " /><path fill="rgb(218,70,78)" stroke="rgb(218,70,78)" stroke-width="1" opacity="1" d="M 392.5 270 L 393 272.5 L 392 272.5 L 392.5 270 Z " /><path fill="rgb(218,70,78)" stroke="rgb(218,70,78)" stroke-width="1" opacity="1" d="M 431.5 270 L 432 272.5 L 431 272.5 L 431.5 270 Z " /><path fill="rgb(218,70,78)" stroke="rgb(218,70,78)" stroke-width="1" opacity="1" d="M 80.5 272 L 81 274.5 L 80 274.5 L 80.5 272 Z " /><path fill="rgb(218,70,78)" stroke="rgb(218,70,78)" stroke-width="1" opacity="1" d="M 375.5 272 L 376 363.5 L 375 363.5 L 375.5 272 Z " /><path fill="rgb(218,70,78)" stroke="rgb(218,70,78)" stroke-width="1" opacity="1" d="M 430.5 275 L 431 277.5 L 430 277.5 L 430.5 275 Z " /><path fill="rgb(218,70,78)" stroke="rgb(218,70,78)" stroke-width="1" opacity="1" d="M 428.5 283 L 429 285.5 L 428 285.5 L 428.5 283 Z " /><path fill="rgb(218,70,78)" stroke="rgb(218,70,78)" stroke-width="1" opacity="1" d="M 84.5 288 L 85 290.5 L 84 290.5 L 84.5 288 Z " /><path fill="rgb(218,70,78)" stroke="rgb(218,70,78)" stroke-width="1" opacity="1" d="M 91.5 308 L 93 311.5 L 92 311.5 L 91.5 308 Z " /><path fill="rgb(218,70,78)" stroke="rgb(218,70,78)" stroke-width="1" opacity="1" d="M 412.5 324 L 412 325.5 L 410.5 328 L 411 326.5 L 412.5 324 Z " /><path fill="rgb(218,70,78)" stroke="rgb(218,70,78)" stroke-width="1" opacity="1" d="M 99.5 325 L 103 330.5 L 101 329.5 L 99.5 325 Z " /><path fill="rgb(218,70,78)" stroke="rgb(218,70,78)" stroke-width="1" opacity="1" d="M 409.5 329 L 409 330.5 L 407.5 333 L 408 331.5 L 409.5 329 Z " /><path fill="rgb(218,70,78)" stroke="rgb(218,70,78)" stroke-width="1" opacity="1" d="M 103.5 332 L 104.5 334 L 103.5 332 Z " /><path fill="rgb(218,70,78)" stroke="rgb(218,70,78)" stroke-width="1" opacity="1" d="M 406.5 334 L 405.5 336 L 406.5 334 Z " /><path fill="rgb(218,70,78)" stroke="rgb(218,70,78)" stroke-width="1" opacity="1" d="M 105.5 335 L 106.5 337 L 105.5 335 Z " /><path fill="rgb(218,70,78)" stroke="rgb(218,70,78)" stroke-width="1" opacity="1" d="M 404.5 337 L 403.5 339 L 404.5 337 Z " /><path fill="rgb(218,70,78)" stroke="rgb(218,70,78)" stroke-width="1" opacity="1" d="M 107.5 338 L 108.5 340 L 107.5 338 Z " /><path fill="rgb(218,70,78)" stroke="rgb(218,70,78)" stroke-width="1" opacity="1" d="M 402.5 340 L 401 342.5 L 398.5 346 L 400 343.5 L 402.5 340 Z " /><path fill="rgb(218,70,78)" stroke="rgb(218,70,78)" stroke-width="1" opacity="1" d="M 109.5 341 L 110.5 343 L 109.5 341 Z " /><path fill="rgb(218,70,78)" stroke="rgb(218,70,78)" stroke-width="1" opacity="1" d="M 111.5 344 L 113.5 347 L 111.5 344 Z " /><path fill="rgb(218,70,78)" stroke="rgb(218,70,78)" stroke-width="1" opacity="1" d="M 397.5 347 L 394.5 351 L 397.5 347 Z " /><path fill="rgb(218,70,78)" stroke="rgb(218,70,78)" stroke-width="1" opacity="1" d="M 114.5 348 L 117.5 352 L 114.5 348 Z " /><path fill="rgb(218,70,78)" stroke="rgb(218,70,78)" stroke-width="1" opacity="1" d="M 148.5 393 L 170.5 416 L 148.5 393 Z " /><path fill="rgb(219,182,170)" stroke="rgb(219,182,170)" stroke-width="1" opacity="1" d="M 245.5 191 L 242.5 195 L 245.5 191 Z " /><path fill="rgb(219,182,170)" stroke="rgb(219,182,170)" stroke-width="1" opacity="1" d="M 193.5 192 L 192.5 194 L 193.5 192 Z " /><path fill="rgb(219,182,170)" stroke="rgb(219,182,170)" stroke-width="1" opacity="1" d="M 216.5 192 L 217.5 194 L 216.5 192 Z " /><path fill="rgb(219,182,170)" stroke="rgb(219,182,170)" stroke-width="1" opacity="1" d="M 269.5 195 L 270.5 197 L 269.5 195 Z " /><path fill="rgb(219,182,170)" stroke="rgb(219,182,170)" stroke-width="1" opacity="1" d="M 305.5 196 L 310 196.5 L 305.5 197 L 305.5 196 Z " /><path fill="rgb(219,182,170)" stroke="rgb(219,182,170)" stroke-width="1" opacity="1" d="M 297.5 199 L 293.5 204 L 297.5 199 Z " /><path fill="rgb(219,182,170)" stroke="rgb(219,182,170)" stroke-width="1" opacity="1" d="M 316.5 199 L 320.5 204 L 316.5 199 Z " /><path fill="rgb(219,182,170)" stroke="rgb(219,182,170)" stroke-width="1" opacity="1" d="M 272.5 201 L 273 203.5 L 272 203.5 L 272.5 201 Z " /><path fill="rgb(219,182,170)" stroke="rgb(219,182,170)" stroke-width="1" opacity="1" d="M 221.5 202 L 222 204.5 L 221 204.5 L 221.5 202 Z " /><path fill="rgb(219,182,170)" stroke="rgb(219,182,170)" stroke-width="1" opacity="1" d="M 349.5 207 L 348.5 209 L 349.5 207 Z " /><path fill="rgb(219,182,170)" stroke="rgb(219,182,170)" stroke-width="1" opacity="1" d="M 369.5 209 L 371.5 212 L 369.5 209 Z " /><path fill="rgb(219,182,170)" stroke="rgb(219,182,170)" stroke-width="1" opacity="1" d="M 290.5 210 L 291 213.5 L 290 213.5 L 290.5 210 Z " /><path fill="rgb(219,182,170)" stroke="rgb(219,182,170)" stroke-width="1" opacity="1" d="M 228.5 213 L 232 213.5 L 228.5 214 L 228.5 213 Z " /><path fill="rgb(219,182,170)" stroke="rgb(219,182,170)" stroke-width="1" opacity="1" d="M 274.5 218 L 276.5 221 L 274.5 218 Z " /><path fill="rgb(219,182,170)" stroke="rgb(219,182,170)" stroke-width="1" opacity="1" d="M 288.5 218 L 286.5 221 L 288.5 218 Z " /><path fill="rgb(219,182,170)" stroke="rgb(219,182,170)" stroke-width="1" opacity="1" d="M 341.5 220 L 342 223.5 L 341 223.5 L 341.5 220 Z " /><path fill="rgb(219,182,170)" stroke="rgb(219,182,170)" stroke-width="1" opacity="1" d="M 339.5 227 L 338.5 229 L 339.5 227 Z " /><path fill="rgb(219,182,170)" stroke="rgb(219,182,170)" stroke-width="1" opacity="1" d="M 331.5 230 L 335 230.5 L 331.5 231 L 331.5 230 Z " /><path fill="rgb(219,182,170)" stroke="rgb(219,182,170)" stroke-width="1" opacity="1" d="M 157.5 239 L 160 239.5 L 157.5 240 L 157.5 239 Z " /><path fill="rgb(219,182,170)" stroke="rgb(219,182,170)" stroke-width="1" opacity="1" d="M 170.5 239 L 171 334.5 L 170 334.5 L 170.5 239 Z " /><path fill="rgb(219,182,170)" stroke="rgb(219,182,170)" stroke-width="1" opacity="1" d="M 376.5 243 L 379.5 247 L 376.5 243 Z " /><path fill="rgb(219,182,170)" stroke="rgb(219,182,170)" stroke-width="1" opacity="1" d="M 146.5 244 L 141.5 250 L 146.5 244 Z " /><path fill="rgb(219,182,170)" stroke="rgb(219,182,170)" stroke-width="1" opacity="1" d="M 379.5 265 L 376.5 269 L 379.5 265 Z " /><path fill="rgb(219,182,170)" stroke="rgb(219,182,170)" stroke-width="1" opacity="1" d="M 172.5 338 L 173.5 340 L 172.5 338 Z " /><path fill="rgb(219,182,170)" stroke="rgb(219,182,170)" stroke-width="1" opacity="1" d="M 184.5 339 L 183.5 341 L 184.5 339 Z " /><path fill="rgb(219,182,170)" stroke="rgb(219,182,170)" stroke-width="1" opacity="1" d="M 177.5 341 L 181 341.5 L 177.5 342 L 177.5 341 Z " /><path fill="rgb(219,182,170)" stroke="rgb(219,182,170)" stroke-width="1" opacity="1" d="M 137.5 365 L 138 368.5 L 137 368.5 L 137.5 365 Z " /><path fill="rgb(219,182,170)" stroke="rgb(219,182,170)" stroke-width="1" opacity="1" d="M 374.5 369 L 375 371.5 L 374 371.5 L 374.5 369 Z " /><path fill="rgb(219,182,170)" stroke="rgb(219,182,170)" stroke-width="1" opacity="1" d="M 143.5 386 L 144.5 388 L 143.5 386 Z " /><path fill="rgb(219,182,170)" stroke="rgb(219,182,170)" stroke-width="1" opacity="1" d="M 145.5 389 L 147.5 392 L 145.5 389 Z " /><path fill="rgb(219,182,170)" stroke="rgb(219,182,170)" stroke-width="1" opacity="1" d="M 180.5 424 L 194.5 439 L 180.5 424 Z " /><path fill="rgb(219,182,170)" stroke="rgb(219,182,170)" stroke-width="1" opacity="1" d="M 196.5 443 L 197 487.5 L 196 487.5 L 196.5 443 Z " /><path fill="rgb(219,182,170)" stroke="rgb(219,182,170)" stroke-width="1" opacity="1" d="M 349.5 443 L 350 488.5 L 349 488.5 L 349.5 443 Z " /><path fill="rgb(219,182,170)" stroke="rgb(219,182,170)" stroke-width="1" opacity="1" d="M 197.5 490 L 200.5 494 L 197.5 490 Z " /><path fill="rgb(219,182,170)" stroke="rgb(219,182,170)" stroke-width="1" opacity="1" d="M 202.5 494 L 205 494.5 L 202.5 495 L 202.5 494 Z " /><path fill="rgb(219,182,170)" stroke="rgb(219,182,170)" stroke-width="1" opacity="1" d="M 341.5 494 L 344 494.5 L 341.5 495 L 341.5 494 Z " /><path fill="rgb(253,209,195)" stroke="rgb(253,209,195)" stroke-width="1" opacity="1" d="M 202.5 188 Q 214.6 187.9 219 195.5 L 221 199.5 L 222 208.5 L 226.5 213 L 231.5 214 L 239 208.5 Q 238.6 195.6 246.5 191 L 249.5 189 L 258.5 188 Q 265.4 189.6 269 194.5 Q 274.7 201.8 273 216.5 L 276.5 221 L 284.5 222 L 289 218.5 Q 291.7 215.2 291 208.5 L 298.5 199 Q 302.5 195.5 311.5 197 L 322 205.5 Q 325.6 212.4 324 224.5 L 328.5 230 L 334.5 231 L 340 227.5 L 342 223.5 L 343 214.5 L 347.5 209 L 355.5 205 L 360.5 205 Q 368.1 206.8 372 212.5 L 375 219.5 L 375 241.5 L 379.5 247 L 384 248 L 384 263.5 L 382.5 264 L 376 268.5 L 375 270.5 L 375 368.5 L 370 391.5 L 349 443.5 L 349 489.5 L 346.5 493 L 340.5 495 L 205.5 495 L 201.5 494 L 197 489.5 L 197 443.5 L 195 438.5 L 180.5 424 L 148 392.5 L 140 379.5 L 137 364.5 L 137 259.5 Q 140.1 248.6 148.5 243 L 160.5 239 L 170 239 L 170 334.5 L 173.5 340 L 180.5 342 L 187 337.5 L 188 335.5 L 188 202.5 Q 189.8 194.9 195.5 191 L 202.5 188 Z " /><path fill="rgb(219,70,78)" stroke="rgb(219,70,78)" stroke-width="1" opacity="1" d="M 242 20 Q 282.6 35 310 64.5 Q 327.4 82.6 340 105.5 L 352 132.5 L 358 156.5 L 362.5 162 L 368.5 163 Q 380.1 158.6 387 149.5 L 396.5 133 Q 415.5 153 426 181.5 L 433 210.5 L 435 242.5 L 434 243.5 L 434 256.5 L 430 279.5 L 422 304.5 Q 411 331.5 393.5 352 L 393 270.5 L 388.5 265 L 384 264 L 384 248.5 L 386.5 248 L 392 243.5 L 393 241.5 L 393 216.5 Q 390 202.5 380.5 195 L 367.5 188 L 355.5 187 L 346.5 189 L 336.5 195 L 327.5 185 L 313.5 179 L 300.5 179 L 293.5 181 L 284 186 L 284 184.5 L 275.5 176 Q 267.4 169.6 252.5 170 L 243.5 172 L 230.5 181 Q 221.3 169.7 200.5 170 Q 186.6 172.6 179 181.5 Q 173.3 187.3 171 196.5 L 170 201.5 L 170 221 L 148.5 223 Q 135.6 227.6 128 237.5 Q 121.1 245.6 119 258.5 L 118.5 353 Q 99.4 330.6 88 300.5 L 80 271.5 L 79 259.5 L 78 258.5 L 78 247.5 L 77 246.5 L 77 234.5 L 78 233.5 L 78 223.5 L 81 207.5 L 87 188.5 Q 95.4 166.4 109.5 150 Q 112.8 165.7 123.5 174 Q 128.5 179 137.5 180 L 144 176.5 Q 149.1 158.6 159 145.5 Q 171 128.5 186.5 115 Q 205 102 220 85.5 Q 231 74 238 58.5 L 243 39.5 L 243 22.5 L 242 20 Z " /></svg>