<svg width="512" height="512" version="1.1" xmlns="http://www.w3.org/2000/svg" desc="Created with imagetracer.js version 1.2.6" ><path fill="rgb(0,0,0)" stroke="rgb(0,0,0)" stroke-width="1" opacity="0" d="M 0 0 L 511.5 0 L 512 0.5 L 512 48.5 L 511 48.5 L 510 39.5 L 504 26.5 L 490.5 11 L 477.5 3 L 468.5 2 L 464.5 7 L 453.5 5 L 452.5 6 L 443 6 L 441.5 3 L 436.5 1 Q 418.3 6.8 408 20.5 Q 400.5 29.5 397 42.5 L 396 47.5 L 396 64.5 L 323.5 137 L 286.5 102 L 278.5 99 L 268.5 99 L 235.5 106 L 225.5 107 Q 214.6 110.1 209 118.5 L 205 128.5 L 205 135.5 Q 207 147.5 215.5 153 Q 221.7 158.3 233.5 158 L 265.5 152 L 275 162.5 L 247 185 L 242 193.5 L 242 197.5 L 233.5 206 L 12 402.5 L 8 410.5 L 0.5 484 L 0 0 Z " /><path fill="rgb(0,0,0)" stroke="rgb(0,0,0)" stroke-width="1" opacity="0" d="M 511.5 64 L 512 512 L 0.5 512 L 0 511.5 L 0 495.5 L 1 495.5 Q 2.6 504.4 9.5 508 L 13.5 510 L 20.5 511 L 21.5 510 L 30.5 510 L 40.5 508 L 49.5 508 L 59.5 506 L 96.5 503 Q 107.8 501.3 113 493.5 L 222 370.5 L 223 362.5 L 221 360.5 L 229 352.5 L 234.5 346 L 241.5 347 L 248 341.5 L 312.5 269 Q 324.9 266.9 330 257.5 L 348.5 235 L 359 246.5 L 353 273.5 L 353 285.5 Q 355.8 295.8 363.5 301 Q 369.8 306.7 383.5 305 Q 394.4 301.9 400 293.5 L 404 282.5 L 404 277.5 L 407 266.5 L 412 235.5 Q 410 222.5 401.5 216 L 394.5 215 L 391.5 216 L 377 202.5 Q 380.5 201 379 194.5 L 373 187.5 L 446.5 114 L 449.5 114 Q 451.3 116.8 457.5 115 L 458.5 114 L 469.5 113 L 483.5 107 L 500 92.5 L 509 76.5 L 511.5 64 Z " /><path fill="rgb(158,152,162)" stroke="rgb(158,152,162)" stroke-width="1" opacity="0.996078431372549" d="M 465.5 13 L 467.5 16 L 465.5 13 Z " /><path fill="rgb(158,152,162)" stroke="rgb(158,152,162)" stroke-width="1" opacity="0.996078431372549" d="M 427.5 22 L 425.5 25 L 427.5 22 Z " /><path fill="rgb(158,152,162)" stroke="rgb(158,152,162)" stroke-width="1" opacity="0.996078431372549" d="M 481.5 23 L 486.5 29 L 481.5 23 Z " /><path fill="rgb(158,152,162)" stroke="rgb(158,152,162)" stroke-width="1" opacity="0.996078431372549" d="M 421.5 28 L 420.5 30 L 421.5 28 Z " /><path fill="rgb(158,152,162)" stroke="rgb(158,152,162)" stroke-width="1" opacity="0.996078431372549" d="M 434.5 36 L 433.5 38 L 434.5 36 Z " /><path fill="rgb(158,152,162)" stroke="rgb(158,152,162)" stroke-width="1" opacity="0.996078431372549" d="M 450.5 44 L 457.5 44 L 465 49.5 L 467 57.5 Q 466.1 64.1 461.5 67 Q 458.2 70.2 450.5 69 L 443 63.5 Q 440.4 60.6 441 54.5 Q 442.3 48.8 446.5 46 L 450.5 44 Z " /><path fill="rgb(158,152,162)" stroke="rgb(158,152,162)" stroke-width="1" opacity="0.996078431372549" d="M 496.5 50 L 497 52.5 L 496 52.5 L 496.5 50 Z " /><path fill="rgb(158,152,162)" stroke="rgb(158,152,162)" stroke-width="1" opacity="0.996078431372549" d="M 481.5 51 L 482 53.5 L 481 53.5 L 481.5 51 Z " /><path fill="rgb(158,152,162)" stroke="rgb(158,152,162)" stroke-width="1" opacity="0.996078431372549" d="M 496.5 60 L 497 62.5 L 496 62.5 L 496.5 60 Z " /><path fill="rgb(158,152,162)" stroke="rgb(158,152,162)" stroke-width="1" opacity="0.996078431372549" d="M 432.5 74 L 435.5 78 L 432.5 74 Z " /><path fill="rgb(158,152,162)" stroke="rgb(158,152,162)" stroke-width="1" opacity="0.996078431372549" d="M 474.5 75 L 472.5 78 L 474.5 75 Z " /><path fill="rgb(158,152,162)" stroke="rgb(158,152,162)" stroke-width="1" opacity="0.996078431372549" d="M 400.5 82 Q 402.8 81.3 402 83.5 Q 408.5 95.1 418.5 103 L 429 109.5 L 412.5 125 L 385 97.5 L 400.5 82 Z " /><path fill="rgb(158,152,162)" stroke="rgb(158,152,162)" stroke-width="1" opacity="0.996078431372549" d="M 420.5 83 L 421.5 85 L 420.5 83 Z " /><path fill="rgb(158,152,162)" stroke="rgb(158,152,162)" stroke-width="1" opacity="0.996078431372549" d="M 487.5 83 L 481.5 90 L 487.5 83 Z " /><path fill="rgb(158,152,162)" stroke="rgb(158,152,162)" stroke-width="1" opacity="0.996078431372549" d="M 452.5 84 L 456 84.5 L 452.5 85 L 452.5 84 Z " /><path fill="rgb(158,152,162)" stroke="rgb(158,152,162)" stroke-width="1" opacity="0.996078431372549" d="M 425.5 88 L 427.5 91 L 425.5 88 Z " /><path fill="rgb(158,152,162)" stroke="rgb(158,152,162)" stroke-width="1" opacity="0.996078431372549" d="M 452.5 99 L 456 99.5 L 452.5 100 L 452.5 99 Z " /><path fill="rgb(158,152,162)" stroke="rgb(158,152,162)" stroke-width="1" opacity="0.996078431372549" d="M 374.5 108 L 402 136.5 L 386.5 152 L 359 124.5 L 374.5 108 Z " /><path fill="rgb(158,152,162)" stroke="rgb(158,152,162)" stroke-width="1" opacity="0.996078431372549" d="M 220.5 130 L 221 134.5 L 220 134.5 L 220.5 130 Z " /><path fill="rgb(158,152,162)" stroke="rgb(158,152,162)" stroke-width="1" opacity="0.996078431372549" d="M 347.5 135 L 362 148.5 L 375 163.5 L 361.5 176 L 334 148.5 L 347.5 135 Z " /><path fill="rgb(158,152,162)" stroke="rgb(158,152,162)" stroke-width="1" opacity="0.996078431372549" d="M 229.5 142 L 233 142.5 L 229.5 143 L 229.5 142 Z " /><path fill="rgb(158,152,162)" stroke="rgb(158,152,162)" stroke-width="1" opacity="0.996078431372549" d="M 286.5 173 L 336.5 224 L 286.5 173 Z " /><path fill="rgb(158,152,162)" stroke="rgb(158,152,162)" stroke-width="1" opacity="0.996078431372549" d="M 283.5 175 L 282.5 177 L 283.5 175 Z " /><path fill="rgb(158,152,162)" stroke="rgb(158,152,162)" stroke-width="1" opacity="0.996078431372549" d="M 277.5 180 L 276.5 182 L 277.5 180 Z " /><path fill="rgb(158,152,162)" stroke="rgb(158,152,162)" stroke-width="1" opacity="0.996078431372549" d="M 272.5 184 L 271.5 186 L 272.5 184 Z " /><path fill="rgb(158,152,162)" stroke="rgb(158,152,162)" stroke-width="1" opacity="0.996078431372549" d="M 267.5 188 L 266.5 190 L 267.5 188 Z " /><path fill="rgb(158,152,162)" stroke="rgb(158,152,162)" stroke-width="1" opacity="0.996078431372549" d="M 261.5 193 L 260.5 195 L 261.5 193 Z " /><path fill="rgb(158,152,162)" stroke="rgb(158,152,162)" stroke-width="1" opacity="0.996078431372549" d="M 295.5 201 L 308.5 215 L 295.5 201 Z " /><path fill="rgb(158,152,162)" stroke="rgb(158,152,162)" stroke-width="1" opacity="0.996078431372549" d="M 241.5 218 L 236.5 224 L 241.5 218 Z " /><path fill="rgb(158,152,162)" stroke="rgb(158,152,162)" stroke-width="1" opacity="0.996078431372549" d="M 232.5 226 L 227.5 232 L 232.5 226 Z " /><path fill="rgb(158,152,162)" stroke="rgb(158,152,162)" stroke-width="1" opacity="0.996078431372549" d="M 334.5 227 L 333.5 229 L 334.5 227 Z " /><path fill="rgb(158,152,162)" stroke="rgb(158,152,162)" stroke-width="1" opacity="0.996078431372549" d="M 329.5 233 L 328.5 235 L 329.5 233 Z " /><path fill="rgb(158,152,162)" stroke="rgb(158,152,162)" stroke-width="1" opacity="0.996078431372549" d="M 223.5 234 L 218.5 240 L 223.5 234 Z " /><path fill="rgb(158,152,162)" stroke="rgb(158,152,162)" stroke-width="1" opacity="0.996078431372549" d="M 325.5 238 L 324.5 240 L 325.5 238 Z " /><path fill="rgb(158,152,162)" stroke="rgb(158,152,162)" stroke-width="1" opacity="0.996078431372549" d="M 374.5 241 L 375 244.5 L 374 244.5 L 374.5 241 Z " /><path fill="rgb(158,152,162)" stroke="rgb(158,152,162)" stroke-width="1" opacity="0.996078431372549" d="M 214.5 242 L 209.5 248 L 214.5 242 Z " /><path fill="rgb(158,152,162)" stroke="rgb(158,152,162)" stroke-width="1" opacity="0.996078431372549" d="M 257.5 242 L 16.5 484 L 257.5 242 Z " /><path fill="rgb(158,152,162)" stroke="rgb(158,152,162)" stroke-width="1" opacity="0.996078431372549" d="M 321.5 243 L 320.5 245 L 321.5 243 Z " /><path fill="rgb(158,152,162)" stroke="rgb(158,152,162)" stroke-width="1" opacity="0.996078431372549" d="M 316.5 249 L 315.5 251 L 316.5 249 Z " /><path fill="rgb(158,152,162)" stroke="rgb(158,152,162)" stroke-width="1" opacity="0.996078431372549" d="M 205.5 250 L 200.5 256 L 205.5 250 Z " /><path fill="rgb(158,152,162)" stroke="rgb(158,152,162)" stroke-width="1" opacity="0.996078431372549" d="M 269.5 252 L 296 264.5 L 235 332.5 L 232 336.5 L 232 341.5 L 235 345.5 L 221.5 360 L 214.5 358 L 203 368.5 L 97.5 487 L 27.5 495 L 269.5 252 Z " /><path fill="rgb(158,152,162)" stroke="rgb(158,152,162)" stroke-width="1" opacity="0.996078431372549" d="M 309.5 253 L 312 253.5 L 309.5 254 L 309.5 253 Z " /><path fill="rgb(158,152,162)" stroke="rgb(158,152,162)" stroke-width="1" opacity="0.996078431372549" d="M 196.5 258 L 191.5 264 L 196.5 258 Z " /><path fill="rgb(158,152,162)" stroke="rgb(158,152,162)" stroke-width="1" opacity="0.996078431372549" d="M 187.5 266 L 182.5 272 L 187.5 266 Z " /><path fill="rgb(158,152,162)" stroke="rgb(158,152,162)" stroke-width="1" opacity="0.996078431372549" d="M 178.5 274 L 173.5 280 L 178.5 274 Z " /><path fill="rgb(158,152,162)" stroke="rgb(158,152,162)" stroke-width="1" opacity="0.996078431372549" d="M 169.5 282 L 164.5 288 L 169.5 282 Z " /><path fill="rgb(158,152,162)" stroke="rgb(158,152,162)" stroke-width="1" opacity="0.996078431372549" d="M 369.5 285 L 372.5 289 L 369.5 285 Z " /><path fill="rgb(158,152,162)" stroke="rgb(158,152,162)" stroke-width="1" opacity="0.996078431372549" d="M 160.5 290 L 155.5 296 L 160.5 290 Z " /><path fill="rgb(158,152,162)" stroke="rgb(158,152,162)" stroke-width="1" opacity="0.996078431372549" d="M 151.5 298 L 147.5 303 L 151.5 298 Z " /><path fill="rgb(158,152,162)" stroke="rgb(158,152,162)" stroke-width="1" opacity="0.996078431372549" d="M 142.5 306 L 137.5 312 L 142.5 306 Z " /><path fill="rgb(158,152,162)" stroke="rgb(158,152,162)" stroke-width="1" opacity="0.996078431372549" d="M 133.5 314 L 129.5 319 L 133.5 314 Z " /><path fill="rgb(158,152,162)" stroke="rgb(158,152,162)" stroke-width="1" opacity="0.996078431372549" d="M 124.5 322 L 120.5 327 L 124.5 322 Z " /><path fill="rgb(158,152,162)" stroke="rgb(158,152,162)" stroke-width="1" opacity="0.996078431372549" d="M 115.5 330 L 111.5 335 L 115.5 330 Z " /><path fill="rgb(158,152,162)" stroke="rgb(158,152,162)" stroke-width="1" opacity="0.996078431372549" d="M 106.5 338 L 102.5 343 L 106.5 338 Z " /><path fill="rgb(158,152,162)" stroke="rgb(158,152,162)" stroke-width="1" opacity="0.996078431372549" d="M 97.5 346 L 93.5 351 L 97.5 346 Z " /><path fill="rgb(158,152,162)" stroke="rgb(158,152,162)" stroke-width="1" opacity="0.996078431372549" d="M 88.5 354 L 84.5 359 L 88.5 354 Z " /><path fill="rgb(158,152,162)" stroke="rgb(158,152,162)" stroke-width="1" opacity="0.996078431372549" d="M 79.5 362 L 75.5 367 L 79.5 362 Z " /><path fill="rgb(158,152,162)" stroke="rgb(158,152,162)" stroke-width="1" opacity="0.996078431372549" d="M 70.5 370 L 66.5 375 L 70.5 370 Z " /><path fill="rgb(158,152,162)" stroke="rgb(158,152,162)" stroke-width="1" opacity="0.996078431372549" d="M 61.5 378 L 57.5 383 L 61.5 378 Z " /><path fill="rgb(158,152,162)" stroke="rgb(158,152,162)" stroke-width="1" opacity="0.996078431372549" d="M 52.5 386 L 48.5 391 L 52.5 386 Z " /><path fill="rgb(158,152,162)" stroke="rgb(158,152,162)" stroke-width="1" opacity="0.996078431372549" d="M 43.5 394 L 39.5 399 L 43.5 394 Z " /><path fill="rgb(158,152,162)" stroke="rgb(158,152,162)" stroke-width="1" opacity="0.996078431372549" d="M 34.5 402 L 30.5 407 L 34.5 402 Z " /><path fill="rgb(158,152,162)" stroke="rgb(158,152,162)" stroke-width="1" opacity="0.996078431372549" d="M 25.5 410 L 24.5 412 L 25.5 410 Z " /><path fill="rgb(158,152,162)" stroke="rgb(158,152,162)" stroke-width="1" opacity="0.996078431372549" d="M 22.5 418 L 23 422.5 L 22 422.5 L 22.5 418 Z " /><path fill="rgb(158,152,162)" stroke="rgb(158,152,162)" stroke-width="1" opacity="0.996078431372549" d="M 21.5 427 L 22 431.5 L 21 431.5 L 21.5 427 Z " /><path fill="rgb(158,152,162)" stroke="rgb(158,152,162)" stroke-width="1" opacity="0.996078431372549" d="M 20.5 437 L 21 441.5 L 20 441.5 L 20.5 437 Z " /><path fill="rgb(158,152,162)" stroke="rgb(158,152,162)" stroke-width="1" opacity="0.996078431372549" d="M 19.5 446 L 20 450.5 L 19 450.5 L 19.5 446 Z " /><path fill="rgb(158,152,162)" stroke="rgb(158,152,162)" stroke-width="1" opacity="0.996078431372549" d="M 18.5 456 L 19 460.5 L 18 460.5 L 18.5 456 Z " /><path fill="rgb(158,152,162)" stroke="rgb(158,152,162)" stroke-width="1" opacity="0.996078431372549" d="M 17.5 465 L 18 469.5 L 17 469.5 L 17.5 465 Z " /><path fill="rgb(158,152,162)" stroke="rgb(158,152,162)" stroke-width="1" opacity="0.996078431372549" d="M 16.5 475 L 17 479.5 L 16 479.5 L 16.5 475 Z " /><path fill="rgb(237,209,139)" stroke="rgb(237,209,139)" stroke-width="1" opacity="0.996078431372549" d="M 453.5 5 L 464 6 Q 463 13.3 467.5 16 Q 481.7 20.3 489 31.5 Q 497 41.5 497 59.5 L 495 69.5 L 491 78.5 L 478.5 92 L 461.5 99 L 446.5 99 Q 430.8 95.8 422 85.5 Q 414.9 78.1 412 66.5 L 411 51.5 Q 413.8 34.3 424.5 25 L 443 13.5 L 444 6 L 452.5 6 L 453.5 5 Z M 454 28 L 442 31 L 435 36 Q 428 42 426 52 Q 425 67 432 75 L 442 82 L 453 85 Q 466 85 473 78 Q 479 72 482 62 L 482 52 L 478 42 L 467 31 L 454 28 Z " /><path fill="rgb(237,209,139)" stroke="rgb(237,209,139)" stroke-width="1" opacity="0.996078431372549" d="M 271.5 114 Q 277.2 113.3 279.5 116 L 367.5 204 L 374.5 205 L 378.5 203 L 391 215.5 L 391 217.5 Q 388.2 219.2 389 224.5 L 396 233.5 L 396 241.5 L 393 252.5 L 389 278.5 L 384.5 288 Q 381.8 290.8 375.5 290 L 369 284.5 L 368 277.5 L 375 241.5 L 270.5 136 L 263.5 136 L 235.5 142 L 226.5 142 L 223 140 L 221 136.5 L 221 128.5 L 224.5 124 L 229.5 122 L 244.5 120 L 260.5 116 L 265.5 116 L 271.5 114 Z " /><path fill="rgb(237,209,139)" stroke="rgb(237,209,139)" stroke-width="1" opacity="0.996078431372549" d="M 285.5 174 L 337 224.5 L 313.5 253 L 305.5 252 L 278.5 240 L 272 235.5 L 257 201.5 L 257 197.5 L 285.5 174 Z M 290 200 L 288 201 L 283 208 L 284 212 L 301 227 Q 308 228 310 223 L 309 215 L 296 201 L 290 200 Z " /><path fill="rgb(237,209,139)" stroke="rgb(237,209,139)" stroke-width="1" opacity="0.996078431372549" d="M 244.5 216 Q 247.8 214.9 247 217.5 L 258 241.5 L 16 482.5 L 18 461.5 L 19 460.5 L 20 442.5 L 21 441.5 L 22 423.5 L 23 422.5 L 23 414.5 L 29.5 407 L 244.5 216 Z " /><path fill="rgb(0,0,0)" stroke="rgb(0,0,0)" stroke-width="1" opacity="0.8117647058823529" d="M 468.5 2 L 470 2.5 L 465.5 6 L 468.5 2 Z " /><path fill="rgb(0,0,0)" stroke="rgb(0,0,0)" stroke-width="1" opacity="0.8117647058823529" d="M 441.5 3 L 442.5 5 L 441.5 3 Z " /><path fill="rgb(0,0,0)" stroke="rgb(0,0,0)" stroke-width="1" opacity="0.8117647058823529" d="M 424.5 6 L 423.5 8 L 424.5 6 Z " /><path fill="rgb(0,0,0)" stroke="rgb(0,0,0)" stroke-width="1" opacity="0.8117647058823529" d="M 483.5 6 L 484.5 8 L 483.5 6 Z " /><path fill="rgb(0,0,0)" stroke="rgb(0,0,0)" stroke-width="1" opacity="0.8117647058823529" d="M 421.5 8 L 420.5 10 L 421.5 8 Z " /><path fill="rgb(0,0,0)" stroke="rgb(0,0,0)" stroke-width="1" opacity="0.8117647058823529" d="M 486.5 8 L 487.5 10 L 486.5 8 Z " /><path fill="rgb(0,0,0)" stroke="rgb(0,0,0)" stroke-width="1" opacity="0.8117647058823529" d="M 418.5 10 L 415.5 14 L 418.5 10 Z " /><path fill="rgb(0,0,0)" stroke="rgb(0,0,0)" stroke-width="1" opacity="0.8117647058823529" d="M 490.5 11 L 499.5 21 L 490.5 11 Z " /><path fill="rgb(0,0,0)" stroke="rgb(0,0,0)" stroke-width="1" opacity="0.8117647058823529" d="M 410.5 18 L 408.5 21 L 410.5 18 Z " /><path fill="rgb(0,0,0)" stroke="rgb(0,0,0)" stroke-width="1" opacity="0.8117647058823529" d="M 500.5 22 L 501.5 24 L 500.5 22 Z " /><path fill="rgb(0,0,0)" stroke="rgb(0,0,0)" stroke-width="1" opacity="0.8117647058823529" d="M 406.5 23 L 405.5 25 L 406.5 23 Z " /><path fill="rgb(0,0,0)" stroke="rgb(0,0,0)" stroke-width="1" opacity="0.8117647058823529" d="M 403.5 28 L 402.5 30 L 403.5 28 Z " /><path fill="rgb(0,0,0)" stroke="rgb(0,0,0)" stroke-width="1" opacity="0.8117647058823529" d="M 397.5 42 L 398 44.5 L 397 44.5 L 397.5 42 Z " /><path fill="rgb(0,0,0)" stroke="rgb(0,0,0)" stroke-width="1" opacity="0.8117647058823529" d="M 396.5 47 L 397 51.5 L 396 51.5 L 396.5 47 Z " /><path fill="rgb(0,0,0)" stroke="rgb(0,0,0)" stroke-width="1" opacity="0.8117647058823529" d="M 511.5 49 L 512 54.5 L 511 54.5 L 511.5 49 Z " /><path fill="rgb(0,0,0)" stroke="rgb(0,0,0)" stroke-width="1" opacity="0.8117647058823529" d="M 511.5 58 L 512 63.5 L 511 63.5 L 511.5 58 Z " /><path fill="rgb(0,0,0)" stroke="rgb(0,0,0)" stroke-width="1" opacity="0.8117647058823529" d="M 396.5 61 L 397 64.5 L 322.5 138 L 290.5 105 L 323.5 137 L 396 64.5 L 396.5 61 Z " /><path fill="rgb(0,0,0)" stroke="rgb(0,0,0)" stroke-width="1" opacity="0.8117647058823529" d="M 502.5 88 L 500.5 91 L 502.5 88 Z " /><path fill="rgb(0,0,0)" stroke="rgb(0,0,0)" stroke-width="1" opacity="0.8117647058823529" d="M 499.5 92 L 495.5 97 L 499.5 92 Z " /><path fill="rgb(0,0,0)" stroke="rgb(0,0,0)" stroke-width="1" opacity="0.8117647058823529" d="M 493.5 98 L 490.5 102 L 493.5 98 Z " /><path fill="rgb(0,0,0)" stroke="rgb(0,0,0)" stroke-width="1" opacity="0.8117647058823529" d="M 268.5 99 L 271 99.5 L 268.5 100 L 268.5 99 Z " /><path fill="rgb(0,0,0)" stroke="rgb(0,0,0)" stroke-width="1" opacity="0.8117647058823529" d="M 276.5 99 L 279 99.5 L 276.5 100 L 276.5 99 Z " /><path fill="rgb(0,0,0)" stroke="rgb(0,0,0)" stroke-width="1" opacity="0.8117647058823529" d="M 262.5 100 L 265 100.5 L 262.5 101 L 262.5 100 Z " /><path fill="rgb(0,0,0)" stroke="rgb(0,0,0)" stroke-width="1" opacity="0.8117647058823529" d="M 257.5 101 L 260 101.5 L 257.5 102 L 257.5 101 Z " /><path fill="rgb(0,0,0)" stroke="rgb(0,0,0)" stroke-width="1" opacity="0.8117647058823529" d="M 286.5 102 L 287.5 104 L 286.5 102 Z " /><path fill="rgb(0,0,0)" stroke="rgb(0,0,0)" stroke-width="1" opacity="0.8117647058823529" d="M 246.5 103 L 249 103.5 L 246.5 104 L 246.5 103 Z " /><path fill="rgb(0,0,0)" stroke="rgb(0,0,0)" stroke-width="1" opacity="0.8117647058823529" d="M 487.5 103 L 486.5 105 L 487.5 103 Z " /><path fill="rgb(0,0,0)" stroke="rgb(0,0,0)" stroke-width="1" opacity="0.8117647058823529" d="M 241.5 104 L 244 104.5 L 241.5 105 L 241.5 104 Z " /><path fill="rgb(0,0,0)" stroke="rgb(0,0,0)" stroke-width="1" opacity="0.8117647058823529" d="M 484.5 105 L 483.5 107 L 484.5 105 Z " /><path fill="rgb(0,0,0)" stroke="rgb(0,0,0)" stroke-width="1" opacity="0.8117647058823529" d="M 230.5 106 L 233 106.5 L 230.5 107 L 230.5 106 Z " /><path fill="rgb(0,0,0)" stroke="rgb(0,0,0)" stroke-width="1" opacity="0.8117647058823529" d="M 225.5 107 L 228 107.5 L 225.5 108 L 225.5 107 Z " /><path fill="rgb(0,0,0)" stroke="rgb(0,0,0)" stroke-width="1" opacity="0.8117647058823529" d="M 219.5 109 L 221 109.5 L 218.5 111 L 219.5 109 Z " /><path fill="rgb(0,0,0)" stroke="rgb(0,0,0)" stroke-width="1" opacity="0.8117647058823529" d="M 216.5 111 L 215.5 113 L 216.5 111 Z " /><path fill="rgb(0,0,0)" stroke="rgb(0,0,0)" stroke-width="1" opacity="0.8117647058823529" d="M 462.5 113 L 466 113.5 L 462.5 114 L 462.5 113 Z " /><path fill="rgb(0,0,0)" stroke="rgb(0,0,0)" stroke-width="1" opacity="0.8117647058823529" d="M 445.5 114 L 373 187.5 L 377.5 193 L 372 187.5 L 445.5 114 Z " /><path fill="rgb(0,0,0)" stroke="rgb(0,0,0)" stroke-width="1" opacity="0.8117647058823529" d="M 450.5 114 L 458 114.5 L 450.5 115 L 450.5 114 Z " /><path fill="rgb(0,0,0)" stroke="rgb(0,0,0)" stroke-width="1" opacity="0.8117647058823529" d="M 210.5 117 L 209.5 119 L 210.5 117 Z " /><path fill="rgb(0,0,0)" stroke="rgb(0,0,0)" stroke-width="1" opacity="0.8117647058823529" d="M 205.5 128 L 206 135.5 L 205 135.5 L 205.5 128 Z " /><path fill="rgb(0,0,0)" stroke="rgb(0,0,0)" stroke-width="1" opacity="0.8117647058823529" d="M 209.5 146 L 215.5 153 L 209.5 146 Z " /><path fill="rgb(0,0,0)" stroke="rgb(0,0,0)" stroke-width="1" opacity="0.8117647058823529" d="M 258.5 152 L 261 152.5 L 258.5 153 L 258.5 152 Z " /><path fill="rgb(0,0,0)" stroke="rgb(0,0,0)" stroke-width="1" opacity="0.8117647058823529" d="M 253.5 153 L 256 153.5 L 253.5 154 L 253.5 153 Z " /><path fill="rgb(0,0,0)" stroke="rgb(0,0,0)" stroke-width="1" opacity="0.8117647058823529" d="M 242.5 155 L 245 155.5 L 242.5 156 L 242.5 155 Z " /><path fill="rgb(0,0,0)" stroke="rgb(0,0,0)" stroke-width="1" opacity="0.8117647058823529" d="M 237.5 156 L 240 156.5 L 237.5 157 L 237.5 156 Z " /><path fill="rgb(0,0,0)" stroke="rgb(0,0,0)" stroke-width="1" opacity="0.8117647058823529" d="M 227.5 157 L 234 157.5 L 227.5 158 L 227.5 157 Z " /><path fill="rgb(0,0,0)" stroke="rgb(0,0,0)" stroke-width="1" opacity="0.8117647058823529" d="M 275.5 162 L 272.5 166 L 275.5 162 Z " /><path fill="rgb(0,0,0)" stroke="rgb(0,0,0)" stroke-width="1" opacity="0.8117647058823529" d="M 269.5 167 L 267.5 170 L 269.5 167 Z " /><path fill="rgb(0,0,0)" stroke="rgb(0,0,0)" stroke-width="1" opacity="0.8117647058823529" d="M 264.5 171 L 261.5 175 L 264.5 171 Z " /><path fill="rgb(0,0,0)" stroke="rgb(0,0,0)" stroke-width="1" opacity="0.8117647058823529" d="M 258.5 176 L 256.5 179 L 258.5 176 Z " /><path fill="rgb(0,0,0)" stroke="rgb(0,0,0)" stroke-width="1" opacity="0.8117647058823529" d="M 253.5 180 L 250.5 184 L 253.5 180 Z " /><path fill="rgb(0,0,0)" stroke="rgb(0,0,0)" stroke-width="1" opacity="0.8117647058823529" d="M 245.5 188 L 244.5 190 L 245.5 188 Z " /><path fill="rgb(0,0,0)" stroke="rgb(0,0,0)" stroke-width="1" opacity="0.8117647058823529" d="M 241.5 198 L 236.5 204 L 241.5 198 Z " /><path fill="rgb(0,0,0)" stroke="rgb(0,0,0)" stroke-width="1" opacity="0.8117647058823529" d="M 378.5 199 L 379 200.5 L 377 201.5 L 378.5 199 Z " /><path fill="rgb(0,0,0)" stroke="rgb(0,0,0)" stroke-width="1" opacity="0.8117647058823529" d="M 232.5 206 L 227.5 212 L 232.5 206 Z " /><path fill="rgb(0,0,0)" stroke="rgb(0,0,0)" stroke-width="1" opacity="0.8117647058823529" d="M 223.5 214 L 218.5 220 L 223.5 214 Z " /><path fill="rgb(0,0,0)" stroke="rgb(0,0,0)" stroke-width="1" opacity="0.8117647058823529" d="M 401.5 216 L 404.5 220 L 401.5 216 Z " /><path fill="rgb(0,0,0)" stroke="rgb(0,0,0)" stroke-width="1" opacity="0.8117647058823529" d="M 214.5 222 L 209.5 228 L 214.5 222 Z " /><path fill="rgb(0,0,0)" stroke="rgb(0,0,0)" stroke-width="1" opacity="0.8117647058823529" d="M 406.5 222 L 407.5 224 L 406.5 222 Z " /><path fill="rgb(0,0,0)" stroke="rgb(0,0,0)" stroke-width="1" opacity="0.8117647058823529" d="M 205.5 230 L 200.5 236 L 205.5 230 Z " /><path fill="rgb(0,0,0)" stroke="rgb(0,0,0)" stroke-width="1" opacity="0.8117647058823529" d="M 347.5 235 L 344.5 239 L 347.5 235 Z " /><path fill="rgb(0,0,0)" stroke="rgb(0,0,0)" stroke-width="1" opacity="0.8117647058823529" d="M 411.5 235 L 412 238.5 L 411 238.5 L 411.5 235 Z " /><path fill="rgb(0,0,0)" stroke="rgb(0,0,0)" stroke-width="1" opacity="0.8117647058823529" d="M 196.5 238 L 191.5 244 L 196.5 238 Z " /><path fill="rgb(0,0,0)" stroke="rgb(0,0,0)" stroke-width="1" opacity="0.8117647058823529" d="M 342.5 241 L 340.5 244 L 342.5 241 Z " /><path fill="rgb(0,0,0)" stroke="rgb(0,0,0)" stroke-width="1" opacity="0.8117647058823529" d="M 187.5 246 L 182.5 252 L 187.5 246 Z " /><path fill="rgb(0,0,0)" stroke="rgb(0,0,0)" stroke-width="1" opacity="0.8117647058823529" d="M 338.5 246 L 336.5 249 L 338.5 246 Z " /><path fill="rgb(0,0,0)" stroke="rgb(0,0,0)" stroke-width="1" opacity="0.8117647058823529" d="M 409.5 248 L 410 250.5 L 409 250.5 L 409.5 248 Z " /><path fill="rgb(0,0,0)" stroke="rgb(0,0,0)" stroke-width="1" opacity="0.8117647058823529" d="M 334.5 251 L 331.5 255 L 334.5 251 Z " /><path fill="rgb(0,0,0)" stroke="rgb(0,0,0)" stroke-width="1" opacity="0.8117647058823529" d="M 357.5 252 L 358 254.5 L 357 254.5 L 357.5 252 Z " /><path fill="rgb(0,0,0)" stroke="rgb(0,0,0)" stroke-width="1" opacity="0.8117647058823529" d="M 408.5 253 L 409 255.5 L 408 255.5 L 408.5 253 Z " /><path fill="rgb(0,0,0)" stroke="rgb(0,0,0)" stroke-width="1" opacity="0.8117647058823529" d="M 178.5 254 L 173.5 260 L 178.5 254 Z " /><path fill="rgb(0,0,0)" stroke="rgb(0,0,0)" stroke-width="1" opacity="0.8117647058823529" d="M 329.5 257 L 327.5 260 L 329.5 257 Z " /><path fill="rgb(0,0,0)" stroke="rgb(0,0,0)" stroke-width="1" opacity="0.8117647058823529" d="M 356.5 257 L 357 259.5 L 356 259.5 L 356.5 257 Z " /><path fill="rgb(0,0,0)" stroke="rgb(0,0,0)" stroke-width="1" opacity="0.8117647058823529" d="M 169.5 262 L 164.5 268 L 169.5 262 Z " /><path fill="rgb(0,0,0)" stroke="rgb(0,0,0)" stroke-width="1" opacity="0.8117647058823529" d="M 406.5 264 L 407 266.5 L 406 266.5 L 406.5 264 Z " /><path fill="rgb(0,0,0)" stroke="rgb(0,0,0)" stroke-width="1" opacity="0.8117647058823529" d="M 312.5 268 L 315 268.5 L 312.5 269 L 306.5 275 L 312.5 268 Z " /><path fill="rgb(0,0,0)" stroke="rgb(0,0,0)" stroke-width="1" opacity="0.8117647058823529" d="M 354.5 268 L 355 270.5 L 354 270.5 L 354.5 268 Z " /><path fill="rgb(0,0,0)" stroke="rgb(0,0,0)" stroke-width="1" opacity="0.8117647058823529" d="M 405.5 269 L 406 271.5 L 405 271.5 L 405.5 269 Z " /><path fill="rgb(0,0,0)" stroke="rgb(0,0,0)" stroke-width="1" opacity="0.8117647058823529" d="M 160.5 270 L 155.5 276 L 160.5 270 Z " /><path fill="rgb(0,0,0)" stroke="rgb(0,0,0)" stroke-width="1" opacity="0.8117647058823529" d="M 353.5 273 L 354 275.5 L 353 275.5 L 353.5 273 Z " /><path fill="rgb(0,0,0)" stroke="rgb(0,0,0)" stroke-width="1" opacity="0.8117647058823529" d="M 151.5 278 L 146.5 284 L 151.5 278 Z " /><path fill="rgb(0,0,0)" stroke="rgb(0,0,0)" stroke-width="1" opacity="0.8117647058823529" d="M 303.5 278 L 298.5 284 L 303.5 278 Z " /><path fill="rgb(0,0,0)" stroke="rgb(0,0,0)" stroke-width="1" opacity="0.8117647058823529" d="M 403.5 280 L 404 282.5 L 403 282.5 L 403.5 280 Z " /><path fill="rgb(0,0,0)" stroke="rgb(0,0,0)" stroke-width="1" opacity="0.8117647058823529" d="M 353.5 283 L 354 285.5 L 353 285.5 L 353.5 283 Z " /><path fill="rgb(0,0,0)" stroke="rgb(0,0,0)" stroke-width="1" opacity="0.8117647058823529" d="M 142.5 286 L 137.5 292 L 142.5 286 Z " /><path fill="rgb(0,0,0)" stroke="rgb(0,0,0)" stroke-width="1" opacity="0.8117647058823529" d="M 295.5 287 L 290.5 293 L 295.5 287 Z " /><path fill="rgb(0,0,0)" stroke="rgb(0,0,0)" stroke-width="1" opacity="0.8117647058823529" d="M 399.5 293 L 398.5 295 L 399.5 293 Z " /><path fill="rgb(0,0,0)" stroke="rgb(0,0,0)" stroke-width="1" opacity="0.8117647058823529" d="M 133.5 294 L 128.5 300 L 133.5 294 Z " /><path fill="rgb(0,0,0)" stroke="rgb(0,0,0)" stroke-width="1" opacity="0.8117647058823529" d="M 357.5 294 L 363.5 301 L 357.5 294 Z " /><path fill="rgb(0,0,0)" stroke="rgb(0,0,0)" stroke-width="1" opacity="0.8117647058823529" d="M 287.5 296 L 282.5 302 L 287.5 296 Z " /><path fill="rgb(0,0,0)" stroke="rgb(0,0,0)" stroke-width="1" opacity="0.8117647058823529" d="M 393.5 299 L 392.5 301 L 393.5 299 Z " /><path fill="rgb(0,0,0)" stroke="rgb(0,0,0)" stroke-width="1" opacity="0.8117647058823529" d="M 124.5 302 L 119.5 308 L 124.5 302 Z " /><path fill="rgb(0,0,0)" stroke="rgb(0,0,0)" stroke-width="1" opacity="0.8117647058823529" d="M 279.5 305 L 274.5 311 L 279.5 305 Z " /><path fill="rgb(0,0,0)" stroke="rgb(0,0,0)" stroke-width="1" opacity="0.8117647058823529" d="M 115.5 310 L 110.5 316 L 115.5 310 Z " /><path fill="rgb(0,0,0)" stroke="rgb(0,0,0)" stroke-width="1" opacity="0.8117647058823529" d="M 271.5 314 L 266.5 320 L 271.5 314 Z " /><path fill="rgb(0,0,0)" stroke="rgb(0,0,0)" stroke-width="1" opacity="0.8117647058823529" d="M 106.5 318 L 101.5 324 L 106.5 318 Z " /><path fill="rgb(0,0,0)" stroke="rgb(0,0,0)" stroke-width="1" opacity="0.8117647058823529" d="M 263.5 323 L 258.5 329 L 263.5 323 Z " /><path fill="rgb(0,0,0)" stroke="rgb(0,0,0)" stroke-width="1" opacity="0.8117647058823529" d="M 97.5 326 L 92.5 332 L 97.5 326 Z " /><path fill="rgb(0,0,0)" stroke="rgb(0,0,0)" stroke-width="1" opacity="0.8117647058823529" d="M 255.5 332 L 250.5 338 L 255.5 332 Z " /><path fill="rgb(0,0,0)" stroke="rgb(0,0,0)" stroke-width="1" opacity="0.8117647058823529" d="M 88.5 334 L 84.5 339 L 88.5 334 Z " /><path fill="rgb(0,0,0)" stroke="rgb(0,0,0)" stroke-width="1" opacity="0.8117647058823529" d="M 247.5 341 L 243.5 346 L 247.5 341 Z " /><path fill="rgb(0,0,0)" stroke="rgb(0,0,0)" stroke-width="1" opacity="0.8117647058823529" d="M 79.5 342 L 74.5 348 L 79.5 342 Z " /><path fill="rgb(0,0,0)" stroke="rgb(0,0,0)" stroke-width="1" opacity="0.8117647058823529" d="M 237.5 346 L 242 346.5 L 237.5 347 L 237.5 346 Z " /><path fill="rgb(0,0,0)" stroke="rgb(0,0,0)" stroke-width="1" opacity="0.8117647058823529" d="M 70.5 350 L 65.5 356 L 70.5 350 Z " /><path fill="rgb(0,0,0)" stroke="rgb(0,0,0)" stroke-width="1" opacity="0.8117647058823529" d="M 61.5 358 L 57.5 363 L 61.5 358 Z " /><path fill="rgb(0,0,0)" stroke="rgb(0,0,0)" stroke-width="1" opacity="0.8117647058823529" d="M 52.5 366 L 48.5 371 L 52.5 366 Z " /><path fill="rgb(0,0,0)" stroke="rgb(0,0,0)" stroke-width="1" opacity="0.8117647058823529" d="M 221.5 370 L 219.5 373 L 221.5 370 Z " /><path fill="rgb(0,0,0)" stroke="rgb(0,0,0)" stroke-width="1" opacity="0.8117647058823529" d="M 43.5 374 L 39.5 379 L 43.5 374 Z " /><path fill="rgb(0,0,0)" stroke="rgb(0,0,0)" stroke-width="1" opacity="0.8117647058823529" d="M 215.5 377 L 211.5 382 L 215.5 377 Z " /><path fill="rgb(0,0,0)" stroke="rgb(0,0,0)" stroke-width="1" opacity="0.8117647058823529" d="M 34.5 382 L 30.5 387 L 34.5 382 Z " /><path fill="rgb(0,0,0)" stroke="rgb(0,0,0)" stroke-width="1" opacity="0.8117647058823529" d="M 207.5 386 L 203.5 391 L 207.5 386 Z " /><path fill="rgb(0,0,0)" stroke="rgb(0,0,0)" stroke-width="1" opacity="0.8117647058823529" d="M 25.5 390 L 21.5 395 L 25.5 390 Z " /><path fill="rgb(0,0,0)" stroke="rgb(0,0,0)" stroke-width="1" opacity="0.8117647058823529" d="M 199.5 395 L 194.5 401 L 199.5 395 Z " /><path fill="rgb(0,0,0)" stroke="rgb(0,0,0)" stroke-width="1" opacity="0.8117647058823529" d="M 16.5 398 L 12.5 403 L 16.5 398 Z " /><path fill="rgb(0,0,0)" stroke="rgb(0,0,0)" stroke-width="1" opacity="0.8117647058823529" d="M 191.5 404 L 186.5 410 L 191.5 404 Z " /><path fill="rgb(0,0,0)" stroke="rgb(0,0,0)" stroke-width="1" opacity="0.8117647058823529" d="M 8.5 410 L 9 412.5 L 8 412.5 L 8.5 410 Z " /><path fill="rgb(0,0,0)" stroke="rgb(0,0,0)" stroke-width="1" opacity="0.8117647058823529" d="M 183.5 413 L 179.5 418 L 183.5 413 Z " /><path fill="rgb(0,0,0)" stroke="rgb(0,0,0)" stroke-width="1" opacity="0.8117647058823529" d="M 7.5 418 L 8 421.5 L 7 421.5 L 7.5 418 Z " /><path fill="rgb(0,0,0)" stroke="rgb(0,0,0)" stroke-width="1" opacity="0.8117647058823529" d="M 175.5 422 L 171.5 427 L 175.5 422 Z " /><path fill="rgb(0,0,0)" stroke="rgb(0,0,0)" stroke-width="1" opacity="0.8117647058823529" d="M 6.5 427 L 7 431.5 L 6 431.5 L 6.5 427 Z " /><path fill="rgb(0,0,0)" stroke="rgb(0,0,0)" stroke-width="1" opacity="0.8117647058823529" d="M 167.5 431 L 163.5 436 L 167.5 431 Z " /><path fill="rgb(0,0,0)" stroke="rgb(0,0,0)" stroke-width="1" opacity="0.8117647058823529" d="M 5.5 437 L 6 440.5 L 5 440.5 L 5.5 437 Z " /><path fill="rgb(0,0,0)" stroke="rgb(0,0,0)" stroke-width="1" opacity="0.8117647058823529" d="M 160.5 439 L 155.5 445 L 160.5 439 Z " /><path fill="rgb(0,0,0)" stroke="rgb(0,0,0)" stroke-width="1" opacity="0.8117647058823529" d="M 4.5 446 L 5 450.5 L 4 450.5 L 4.5 446 Z " /><path fill="rgb(0,0,0)" stroke="rgb(0,0,0)" stroke-width="1" opacity="0.8117647058823529" d="M 152.5 448 L 147.5 454 L 152.5 448 Z " /><path fill="rgb(0,0,0)" stroke="rgb(0,0,0)" stroke-width="1" opacity="0.8117647058823529" d="M 3.5 456 L 4 459.5 L 3 459.5 L 3.5 456 Z " /><path fill="rgb(0,0,0)" stroke="rgb(0,0,0)" stroke-width="1" opacity="0.8117647058823529" d="M 144.5 457 L 139.5 463 L 144.5 457 Z " /><path fill="rgb(0,0,0)" stroke="rgb(0,0,0)" stroke-width="1" opacity="0.8117647058823529" d="M 2.5 465 L 3 469.5 L 2 469.5 L 2.5 465 Z " /><path fill="rgb(0,0,0)" stroke="rgb(0,0,0)" stroke-width="1" opacity="0.8117647058823529" d="M 136.5 466 L 131.5 472 L 136.5 466 Z " /><path fill="rgb(0,0,0)" stroke="rgb(0,0,0)" stroke-width="1" opacity="0.8117647058823529" d="M 1.5 474 L 2 478.5 L 1 478.5 L 1.5 474 Z " /><path fill="rgb(0,0,0)" stroke="rgb(0,0,0)" stroke-width="1" opacity="0.8117647058823529" d="M 128.5 475 L 123.5 481 L 128.5 475 Z " /><path fill="rgb(0,0,0)" stroke="rgb(0,0,0)" stroke-width="1" opacity="0.8117647058823529" d="M 0.5 484 L 1 488.5 L 0 488.5 L 0.5 484 Z " /><path fill="rgb(0,0,0)" stroke="rgb(0,0,0)" stroke-width="1" opacity="0.8117647058823529" d="M 119.5 485 L 115.5 490 L 119.5 485 Z " /><path fill="rgb(0,0,0)" stroke="rgb(0,0,0)" stroke-width="1" opacity="0.8117647058823529" d="M 0.5 492 L 1 494.5 L 0 494.5 L 0.5 492 Z " /><path fill="rgb(0,0,0)" stroke="rgb(0,0,0)" stroke-width="1" opacity="0.8117647058823529" d="M 112.5 493 L 107.5 499 L 112.5 493 Z " /><path fill="rgb(0,0,0)" stroke="rgb(0,0,0)" stroke-width="1" opacity="0.8117647058823529" d="M 92.5 502 L 97 502.5 L 92.5 503 L 92.5 502 Z " /><path fill="rgb(0,0,0)" stroke="rgb(0,0,0)" stroke-width="1" opacity="0.8117647058823529" d="M 83.5 503 L 88 503.5 L 83.5 504 L 83.5 503 Z " /><path fill="rgb(0,0,0)" stroke="rgb(0,0,0)" stroke-width="1" opacity="0.8117647058823529" d="M 73.5 504 L 78 504.5 L 73.5 505 L 73.5 504 Z " /><path fill="rgb(0,0,0)" stroke="rgb(0,0,0)" stroke-width="1" opacity="0.8117647058823529" d="M 64.5 505 L 69 505.5 L 64.5 506 L 64.5 505 Z " /><path fill="rgb(0,0,0)" stroke="rgb(0,0,0)" stroke-width="1" opacity="0.8117647058823529" d="M 8.5 506 L 9.5 508 L 8.5 506 Z " /><path fill="rgb(0,0,0)" stroke="rgb(0,0,0)" stroke-width="1" opacity="0.8117647058823529" d="M 55.5 506 L 59 506.5 L 55.5 507 L 55.5 506 Z " /><path fill="rgb(0,0,0)" stroke="rgb(0,0,0)" stroke-width="1" opacity="0.8117647058823529" d="M 45.5 507 L 50 507.5 L 45.5 508 L 45.5 507 Z " /><path fill="rgb(0,0,0)" stroke="rgb(0,0,0)" stroke-width="1" opacity="0.8117647058823529" d="M 35.5 508 L 40 508.5 L 35.5 509 L 35.5 508 Z " /><path fill="rgb(0,0,0)" stroke="rgb(0,0,0)" stroke-width="1" opacity="0.8117647058823529" d="M 26.5 509 L 31 509.5 L 26.5 510 L 26.5 509 Z " /><path fill="rgb(2,1,1)" stroke="rgb(2,1,1)" stroke-width="1" opacity="1" d="M 434.5 2 Q 441.4 1.1 443 5.5 L 444 10.5 L 442 15 Q 428.2 18.9 420 29.5 Q 409.5 40.5 411 63.5 Q 414.8 81.8 427.5 91 L 444.5 99 L 455.5 100 L 466.5 98 L 477.5 93 L 488 83.5 L 496 67.5 L 497 50.5 Q 493.7 32.3 481.5 23 L 468.5 16 L 465 12.5 L 464 9.5 L 468.5 3 L 473.5 2 Q 490.3 8.3 500 21.5 L 508 35.5 L 511 45.5 L 512 57.5 L 511 58.5 L 511 67.5 L 508 77.5 L 503 87.5 L 495 98 L 482.5 107 L 467.5 113 L 445.5 114 L 372 187.5 Q 378.5 190 379 198.5 L 375.5 204 L 370.5 205 L 366.5 203 L 278.5 115 L 269.5 114 L 263.5 116 L 258.5 116 L 242.5 120 L 227.5 122 L 221 127.5 L 220 134.5 L 224.5 141 L 232.5 143 L 243.5 140 L 269.5 136 L 373 238.5 L 374 247.5 L 368 275.5 L 368 283.5 L 372.5 289 L 381.5 290 L 387 285.5 L 389 280.5 L 389 275.5 L 397 236.5 L 396 232.5 L 391 227.5 L 389 221.5 L 391.5 217 L 398.5 215 L 406 221.5 L 411 232.5 L 411 242.5 L 408 253.5 L 408 258.5 L 402 288.5 L 394.5 299 Q 388.1 305.6 374.5 305 Q 362.6 302.4 357 293.5 L 354 287.5 L 353 276.5 L 359 245.5 L 347.5 235 L 322.5 265 L 316.5 268 L 312.5 268 L 306 274.5 L 242.5 346 Q 235.3 347.3 233 343.5 L 232 336.5 L 296 264.5 L 269.5 252 L 27.5 495 L 29.5 494 L 57.5 492 L 58.5 491 L 66.5 491 L 67.5 490 L 85.5 489 L 86.5 488 L 95.5 488 L 107 477.5 L 212.5 359 L 217.5 358 L 222 361.5 L 223 367.5 L 106.5 499 L 99.5 502 Q 93.2 500.3 91.5 503 L 73.5 504 L 72.5 505 L 64.5 505 L 54.5 507 L 45.5 507 L 44.5 508 L 35.5 508 L 25.5 510 L 15.5 510 Q 8.1 507.9 4 502.5 Q 0.2 497.8 0 489.5 L 1 488.5 L 1 479.5 L 3 469.5 L 4 451.5 L 5 450.5 L 8 413.5 L 11 404.5 L 20.5 395 L 242 198.5 Q 242.9 188.4 249.5 184 L 276 162.5 L 263.5 151 L 236.5 157 L 225.5 157 Q 214.1 154.4 209 145.5 Q 204.2 139.3 206 126.5 Q 208.5 118 214.5 113 L 223.5 108 L 275.5 99 L 283.5 101 L 288.5 104 L 323.5 138 L 397 64.5 L 397 61.5 L 396 60.5 L 396 52.5 L 401 32.5 Q 406.3 21.8 414.5 14 Q 422.7 6.2 434.5 2 Z M 401 82 L 385 98 L 413 125 L 429 110 L 419 103 Q 408 95 402 84 Q 403 81 401 82 Z M 375 108 L 359 125 L 387 152 L 402 137 L 375 108 Z M 348 135 L 334 149 L 362 176 L 375 164 L 362 149 L 348 135 Z M 287 173 L 257 198 L 257 203 L 272 236 L 276 239 L 310 254 L 314 253 L 337 225 L 287 173 Z M 246 215 L 26 410 L 23 414 L 22 419 L 16 484 L 258 243 L 258 240 L 247 217 Q 248 214 246 215 Z " /><path fill="rgb(2,1,1)" stroke="rgb(2,1,1)" stroke-width="1" opacity="1" d="M 448.5 29 Q 469.7 27.8 477 40.5 Q 482.1 47.4 482 59.5 Q 479.7 72.7 470.5 79 Q 463.7 85.7 448.5 84 Q 436.6 81.4 431 72.5 Q 425.5 66 426 53.5 Q 428.2 39.2 438.5 33 L 448.5 29 Z M 451 44 L 447 46 Q 442 49 441 55 Q 440 61 443 64 L 451 69 Q 458 70 462 67 Q 466 64 467 58 L 465 50 L 458 44 L 451 44 Z " /><path fill="rgb(2,1,1)" stroke="rgb(2,1,1)" stroke-width="1" opacity="1" d="M 291.5 200 L 294.5 201 L 309 215.5 L 310 221.5 L 306.5 226 L 301.5 227 L 298.5 226 L 285 212.5 L 284 205.5 L 287.5 201 L 291.5 200 Z " /></svg>